<?xml version="1.0" encoding="utf-8"?>
<!-- Generator: Adobe Illustrator 22.1.0, SVG Export Plug-In . SVG Version: 6.00 Build 0)  -->
<svg version="1.1" id="Layer_1" xmlns="http://www.w3.org/2000/svg" xmlns:xlink="http://www.w3.org/1999/xlink" x="0px" y="0px"
	 viewBox="0 0 1004.5 623.9" style="enable-background:new 0 0 1004.5 623.9;" xml:space="preserve">
<style type="text/css">
	.st0{fill:#EDF1F2;}
	.st1{fill:#020203;}
	.st2{fill:none;stroke:#020203;stroke-miterlimit:10;}
</style>
<g>
	<path class="st0" d="M997.7,594.2c-1.5-2.5-5.9-4.5-10.2-6c0.9-0.4,2-1,2.4-2c0.2-0.5,0.2-1.2-0.5-2c-1.4-1.7-6.3-2.6-11.1-3.6
		c-2.3-0.4-4.4-0.9-5.8-1.3c-2.7-0.8-6.1-1.5-9.3-2.1c0,0,0,0,0-0.1l-8.1-6.3c-0.1,0-0.1-0.1-0.2-0.1c-8.1-2.6-18.2-5.5-25-4.8
		c-3.7,0.4-11.1,0.6-17,0.7c-4.5,0.1-8.1,0.2-9.3,0.4c-8.6,1.1-18.6-0.9-19.4-1c-0.8-0.3-12.1-4.7-22.2-10.7
		c-3.6-2.1-12.2-7.6-22.6-14.4c6.7,1.5,17.3,2.5,23.8,3c2.6,0.2,4.6,0.4,5.1,0.5c0.1,0,12.4,2.6,18.2,2.6c0.7,0,1.3,0,1.7-0.1
		c1-0.2,2.2-0.3,3.5-0.4c3.3-0.3,6.5-0.6,7.5-1.9c0.3-0.4,0.4-0.8,0.3-1.2c-0.2-1.4-1-2.7-2.4-3.6c-2.4-1.7-6.1-2.3-8.3-1.9
		c-2.7,0.5-14.1-2.6-17.3-4.2c-0.1-0.1-0.2-0.1-0.4-0.2c0.8,0,1.5,0,1.9,0.1c2.1,0.4,5,0,8.1-0.4c3.3-0.4,6.7-0.9,9.6-0.5
		c1.6,0.2,3.8,0.2,6.2,0.2c4.3,0,9.1-0.1,11.3,1.2c2.5,1.5,14,5.7,20.3,5.7c0.9,0,1.8-0.1,2.4-0.3c0.9-0.3,1.5-0.7,1.7-1.4
		c0.1-0.3,0.2-0.8-0.1-1.4c-0.8-1.8-4.6-4.3-8.8-6.6c1.9,0.4,3.9,0.6,5.6,0.6c1.3,0,2.5-0.2,3.2-0.6c0.7-0.4,1-1,1.1-1.4
		c0.7-3.5-5-6-10.6-7.9c0.4-0.6,0.5-1.1,0.4-1.7c-0.1-0.8-0.8-1.5-1.9-2.1c-3.3-1.8-18.1-5.8-19.9-5.8c-1,0-6,0.2-11.2,0.4
		c-5.7,0.2-12.7,0.5-14.1,0.4c0,0,0,0-0.1,0c-0.1,0-0.1,0-0.2,0c-4-0.5-7.5-0.7-9.2-0.2c-2.6,0.8-7.7,0.4-13.1,0
		c-4.1-0.3-8.4-0.6-12.1-0.5c-6.9,0.3-15.6,1-20.2,1.4c-6.7,0.6-9.6,0.8-10.8,1.1c-2.8-2.3-25.8-21.8-36.8-30.3
		c-11.2-8.7-32.9-22.7-40.3-26.4c-6.9-3.5-17.5-11-22.7-17.3c-0.5-0.7-2-2.4-4-4.7c4.1-7.4,7.7-16.2,8.7-25.5
		c1.8,0.5,7.7,1.5,16-3.1c2.2-1.2,4.2-3,5.9-5.4c3.7-5.1,5.3-11.9,4.7-18.6l0,0c0-0.1,0-0.3-0.1-0.4c-0.1-1.2-0.4-2.3-0.7-3.5
		c0.2-0.3,0.1-0.6-0.1-0.8c-0.4-1.4-0.9-2.9-1.5-4.2c-5.6-12.3-17.6-20.1-27.9-18.3c-6.7,1.2-14.1,7.1-15.5,8.2
		c-11.1-12.1-24.1-19.5-35.8-20.3c-15.8-1.1-29.9,2.2-33,3c-1-1.5-5.2-7.9-8.7-13.9c-0.2-0.3-0.5-0.4-0.7-0.3
		c-0.3,0.1-0.5,0.3-0.5,0.6c0,0.3,0.1,0.6,0.1,0.9c-0.2-0.4-0.3-0.8-0.5-1.1c-4.6-7.2-4-13.5-7.7-21.1c-6.7-13.7-11.4-21.8-22-33.6
		c-11.1-12.4-49.9-46.5-81-72.3c-32.2-26.7-64.5-60.4-73.5-72.8c-9.2-12.6-27.6-41.7-39.4-63.2c-11.1-20.3-37.1-45.3-61.2-52
		c-10.8-3-29.8-3.6-50.3,3.7c-15.6,5.6-37.5,17.8-53,44.3c-23.6,40.4-41.3,81.4-55.5,114.3c-2.4,5.5-4.6,10.7-6.8,15.7
		c-8.8,20-19.5,48.8-23.7,60.3c-3.5,9.6-6.8,18.7-9.2,25.6c-2.8,8.2-3.4,10.4-3.4,11.1c-0.5,1.5-4.8,13.5-8.2,18.9
		c-1.7,2.7-5.2,5.8-10.2,10c-5.6,4.8-13.2,11.3-21.9,20.7c-16.4,17.7-29,46.9-33,66.6c-1.3,6.2-3.5,16.9-6,28.9
		c-0.1,0.1-0.1,0.3-0.1,0.5c0,0,0,0,0,0.1c-5.6,27-12.8,61-14.8,69.3c-3,12.2-11.8,39.8-15.9,48.6c-7.5,16.3-9.7,27.8-6.6,34.2
		c1.4,2.7,3.7,4.5,7,5.2c5.1,1.1,9.6,1.6,13.7,1.6c6.1,0,11.5-1.1,17.4-3.1c2.9,0.2,23.7,1.4,32.1,2.1c8.9,0.8,32.1,1.5,38.2-0.4
		c1.1,1,2.6,1.5,4.4,1.5c1.7,0,3.7-0.5,5.7-1.5c0,0,0.1,0,0.1-0.1c1.4-1.1,3.4-3.5,2.8-6.1c0.7,0.2,1.4,0.3,2.1,0.3
		c1.7,0,3.2-0.6,3.7-1c0.1-0.1,0.5-0.4,0.6-1.8c0-0.5,0-1.3-0.2-2.2c1.7,0,3.1-0.6,3.6-1c0.1-0.1,0.5-0.4,0.6-1.8
		c0-0.7-0.1-1.9-0.4-3.1c1.1,0.5,2,0.7,2.7,0.8c0.1,0,0.1,0,0.2,0c1.9,0,3.3-2.1,3.6-2.7c0.3-0.5,0.6-1.2,0.7-1.8
		c0.6,0,1.1-0.1,1.5-0.2c6-0.9,9.3-4.9,8.9-11c-0.3-5.4-9.9-4.8-17.6-4.4c-3.1,0.2-6.1,0.4-7.5,0c-1.5-0.3-2.7-0.8-3.9-1.2
		c-2.5-0.9-4.6-1.6-8.9-1.3c-6.1,0.4-34.9-3.7-39.7-6.1c-2.3-1.2-6.1-4.7-9.5-8.4c3.8-0.9,17-3.8,24.1-5.1c6.3-1.1,31-0.6,42.1,3.6
		c10.1,3.8,17.6,1.1,19.1,0.4c0.9,0.4,4,1.6,7.6,1.6c0.7,0,1.4,0,2.1-0.1c5.1-0.7,10.1-3.8,9.9-9.1c-0.1-2.2-0.8-3.5-2.9-4.2
		c0.2-0.9,0.1-1.8-0.2-2.4c-0.4-0.7-1.3-1.4-2.3-2c0.4-1.1,0.4-2.2,0-3c-0.4-0.8-1.4-1.5-2.6-2.2c0-0.4-0.1-0.7-0.3-1
		c-0.8-1.4-2.6-2.1-4-2.6c-0.1,0-0.2-0.1-0.3-0.1c0-0.1-0.1-0.2-0.2-0.3c-1.1-0.7-2.5-1.4-3.4-1.8c-0.3-0.1-0.5-0.2-0.7-0.3
		c-1.5-0.7-6.8-0.5-7.6-0.4c-1.1-0.1-20.7-1.4-27-2.3c-6.4-0.9-14-3.1-14-3.1c-5.6-2.2-18.1-9.6-11.3-28.8
		c7-19.9,54.7-108.5,58.2-110.6c3.9-1.6,15-9.8,20.6-17.9c5.4-7.8,12.7-28,15.1-38.1c7.3-7.2,66.8-79.9,69.3-83
		c4.6-5.4,23.6-33.3,38.8-55.7c9.1-13.4,17.7-26.1,18.6-27c0.1-0.1,0.2-0.3,0.3-0.5c5.7,7,11.7,14.5,14,18
		c5.3,7.9,11,23.8,12.5,32.9c0.2,1.2,0.5,2.9,0.8,5c2.2,13.6,6.7,41.8,12,55.3c4.7,12,18.5,28.5,25.9,34.6
		c6.3,5.2,19.4,16,28.7,33.1c3.2,6,5.3,11.7,7.3,17.2c3.1,8.5,5.7,15.9,11.9,21.9c11,10.8,36.4,12.8,54.5,13.3
		c10.8,0.3,24.5,2,37.8,3.7c14.1,1.8,27.4,3.5,36.9,3.5c0.7,0,1.4,0,2.1,0c0.4,0.4,0.7,0.7,1.1,1.1c2.1,2.2,4.1,4.1,5.9,6
		c-5.8,0.7-11.9,2.1-17.4,4.8c-7.5,3.8-15.1,10-19.5,16.1c-3,4.1-4.5,8.2-3.6,11.3c1,3.4,3.6,4.2,5.9,5c1,0.4,2,0.7,2.8,1.2
		c2.2,1.5,2.7,2.7,3.1,4.3c0,0.1,0.1,0.6,0.1,0.8c0,0.4,0,0.9,0.1,1.3c1.3,4.2,4.4,4.4,5.8,4.3c0.2,2.8,3.3,3.9,3.4,3.9
		c0,0,0.1,0,0.1,0l5.2,0.9l-0.8,3.1c-0.9,1.9-0.9,4.3,0,6.5c0.8,2,2.2,3.5,3.7,4c4.4,1.7,5.7,1.5,10.6,0.9c1.1-0.1,2.5-0.3,4.1-0.5
		c3.5-0.4,7.5-0.7,11.4,0.1c2.1,0.4,3.8,2.1,5.7,3.9c0.7,0.6,1.3,1.3,2,1.9c13.9,12.2,25.1,15.6,39.2,15.7c0.4,0.4,1.2,0.6,1.9,0.1
		c0,0,0-0.1,0.1-0.1c2.5,0,5-0.1,7.7-0.3c3.9-0.3,7.8-1.3,11.7-2.7l26.7,29.4c0.2,0.2,4.8,6.3,12.5,9.8c1.5,0.7,4.4,2.3,8.5,4.5
		c17.1,9.5,52.7,29.2,88.1,38.8c40.6,11,70.1,24.2,73.9,26c-0.1,2.2-0.4,11.2,4.9,13.9c5.3,2.8,21,7.5,35.1,6.7c3.8,0.5,7,1,9.9,1.4
		c6.3,1,10.9,1.7,15.2,1.2c2.6,1.7,9.3,2.3,14.4,2.3c4.6,1.4,11.6,1.8,16.5,1c1.6,0.5,4.6,0.9,7.5,0.9c2.7,0,5.3-0.3,7-1.2
		c1-0.5,1.6-1.2,1.9-2c0.2-0.8,0.1-1.6-0.4-2.3c-2-2.9-9.9-4.1-16.1-4.6c-6.3-0.5-8-0.8-10.8-1.2c-1-0.2-2.2-0.4-3.8-0.6
		c0,0,0,0,0,0l3-0.1c4.2,1.1,15.4,1.9,19.8,1.4c0.4,0.1,0.9,0.1,1.4,0.2c2.8,0.4,6.2,0.9,9.1,0.9c2.3,0,4.3-0.3,5.4-1.3
		c0.6-0.5,0.9-1.2,0.9-2c0-4.1-13.6-6.7-16.3-7.1c-0.3-0.1-0.8-0.1-1.4-0.2c2.4,0,4.1,0,4.1,0c1.2,0,3.4,0.6,5.7,1.2
		c3.5,0.9,7.3,1.9,10.3,1.9c1.5,0,2.7-0.2,3.6-0.9c0.8-0.6,1.2-1.4,1.3-2.4C997.8,594.4,997.8,594.3,997.7,594.2z"/>
	<g>
		<path class="st1" d="M399.2,79.3L399.2,79.3L399.2,79.3c-1.9-3.3-3.7-6.4-5.3-9.5c-11-20.1-36.7-44.9-60.5-51.5
			c-10.7-3-29.3-3.5-49.6,3.7c-15.5,5.5-37.1,17.6-52.4,43.8c-14,24-25.9,48.1-36.3,70.7c0,0,0,0,0,0c-0.1,0.3-0.2,0.5-0.4,0.8
			c-0.6,1.2-1.1,2.5-1.7,3.7c-0.1,0.3-0.3,0.6-0.4,0.8c-0.1,0.3-0.3,0.6-0.4,0.8c0,0,0,0,0,0c-0.8,1.7-1.6,3.4-2.3,5.2
			c-0.1,0.2-0.2,0.4-0.2,0.5c-0.8,1.7-1.5,3.3-2.2,5c-0.1,0.1-0.1,0.2-0.2,0.4c-0.8,1.7-1.5,3.4-2.2,5.1c-0.1,0.3-0.2,0.6-0.4,0.8
			c-0.7,1.7-1.4,3.3-2.2,4.9c0,0.1-0.1,0.2-0.1,0.3c-0.7,1.6-1.4,3.1-2,4.7c-0.1,0.2-0.2,0.5-0.3,0.7c-0.7,1.5-1.3,3.1-2,4.6
			c-0.2,0.4-0.3,0.7-0.5,1.1c-0.6,1.5-1.3,2.9-1.9,4.3c-2.4,5.5-4.6,10.8-6.8,15.8c-14,32.1-35.8,92.8-36.3,96.6c0,0.1,0,0.3,0,0.4
			c-0.2,0.5-4.7,13.4-8.4,19.4c-1.8,2.9-5.4,6-10.5,10.4c-5.6,4.8-13.2,11.3-21.8,20.6c-16.2,17.6-28.8,46.6-32.7,66.2
			c-1.3,6.3-3.5,17.1-6,29.3c0.1,0.8,0.5,1.7,1,2.5c2.4,3.6,8.8,6.8,19.3,9.8c5.2,1.5,9.8,2.5,14,2.9c5.5,0.6,10,0.4,13.1-0.8
			c6.9-14.1,13.1-26.7,16.5-33c10.8-19.7,26-46.1,28-49.4c0.7-1.2,2.4-2.1,4.7-3.5c4.8-2.8,12.8-7.4,20-18.9
			c10.7-16.9,13.6-31.5,13.6-32.7c0-0.8,3.7-5.3,24.5-29.7c14.8-17.4,33.3-39,40.6-48.7c13.8-18.2,39.5-60.8,48.3-75.7
			c5.7-9.7,15.4-29,16.1-30.5c0,0,0,0,0,0c0,0,0-0.1,0.1-0.2c0,0,0-0.1,0-0.1c0,0,0-0.1,0-0.1c0-0.1,0-0.1,0.1-0.2c0,0,0-0.1,0-0.1
			c0-0.1,0-0.2,0.1-0.2c0,0,0-0.1,0-0.1c0-0.1,0.1-0.2,0.1-0.3c0,0,0-0.1,0-0.1c0-0.1,0.1-0.2,0.1-0.3c0,0,0-0.1,0-0.1
			c0-0.1,0.1-0.2,0.1-0.4l0,0c0.1-0.2,0.1-0.4,0.2-0.6c0,0,0-0.1,0-0.1c0,0,0,0,0,0c0-0.2,0.1-0.3,0.1-0.5c0,0,0,0,0,0
			c0-0.1,0-0.1,0-0.2c0-0.1,0.1-0.3,0.1-0.4c0-0.1,0-0.2,0.1-0.2c0-0.1,0.1-0.3,0.1-0.4c0-0.1,0-0.2,0.1-0.3c0-0.1,0.1-0.3,0.1-0.4
			c0-0.1,0-0.2,0.1-0.3c0-0.1,0.1-0.2,0.1-0.4c0-0.1,0-0.2,0-0.2c0-0.1,0-0.3,0.1-0.4c0-0.1,0-0.1,0-0.2c0-0.2,0.1-0.4,0.1-0.5
			c0.3-2.4-0.5-8.9-0.5-9c0-0.4,0.2-0.7,0.6-0.7c0.4,0,0.7,0.2,0.7,0.6c0,0.3,0.8,6.8,0.5,9.3c0,0.2-0.1,0.4-0.1,0.6c0,0,0,0,0,0
			c0,0.1,0,0.2-0.1,0.3v0c0,0.1,0,0.1,0,0.2v0c0,0.1,0,0.2-0.1,0.3l0,0c0,0,0,0.1,0,0.1c0,0.2-0.1,0.3-0.1,0.5c0,0,0,0,0,0.1v0
			c-0.1,0.4-0.2,0.7-0.3,1.1v0l0,0c0,0,0,0,0,0c-0.1,0.4-0.2,0.8-0.3,1.1l0,0c0,0,0,0,0,0s0,0,0,0c-0.2,0.7-0.4,1.4-0.5,2
			c0,0,0,0,0,0.1c0,0.2-0.1,0.3-0.1,0.5c0.1,0.1,0.2,0.2,0.3,0.3c0,0,0.1,0.1,0.1,0.1c0.1,0.1,0.2,0.2,0.3,0.3c0,0,0.1,0.1,0.1,0.1
			c0.1,0.1,0.3,0.3,0.5,0.5c0,0,0.1,0.1,0.1,0.1c0.1,0.1,0.3,0.3,0.4,0.5c0,0.1,0.1,0.1,0.1,0.2c0.2,0.2,0.4,0.4,0.6,0.7
			c0,0,0.1,0.1,0.1,0.1c0.2,0.2,0.4,0.4,0.6,0.6c0.1,0.1,0.1,0.2,0.2,0.2c0.2,0.2,0.4,0.4,0.6,0.6c0.1,0.1,0.1,0.1,0.2,0.2
			c0.2,0.3,0.5,0.5,0.7,0.8c0.1,0.1,0.2,0.2,0.3,0.3c0.2,0.2,0.3,0.4,0.5,0.6c0.1,0.1,0.2,0.2,0.3,0.4c0.2,0.3,0.5,0.6,0.7,0.9
			c0.1,0.1,0.2,0.3,0.3,0.4c0.2,0.2,0.3,0.4,0.5,0.6c0.1,0.2,0.3,0.3,0.4,0.5c0.2,0.2,0.3,0.4,0.5,0.6c0.2,0.3,0.5,0.6,0.7,0.9
			c0.1,0.2,0.3,0.3,0.4,0.5c0.2,0.2,0.4,0.4,0.5,0.7c0.1,0.1,0.2,0.2,0.3,0.4c0.6,0.8,1.3,1.6,2,2.4c0.1,0.1,0.1,0.2,0.2,0.2
			c0.2,0.3,0.4,0.5,0.7,0.8c0,0,0.1,0.1,0.1,0.1c0.7,0.9,1.5,1.8,2.2,2.7c0,0,0,0.1,0.1,0.1c0.7,0.9,1.5,1.8,2.2,2.7
			c0,0,0,0.1,0.1,0.1c0.7,0.9,1.4,1.8,2.1,2.7c0,0,0,0,0,0l0,0l0,0c0.3,0.3,0.5,0.7,0.8,1c0,0,0.1,0.1,0.1,0.1
			c0.1,0.2,0.3,0.3,0.4,0.5c1-5.4,6-12.4,12-18.8c6.9-7.4,15.1-14.2,19.8-17.2c10.4-6.5,28.3-15,41.3-15.8
			C404.8,96.4,401.6,88,399.2,79.3z"/>
		<path class="st1" d="M297.8,162.4c-8.8,14.9-34.6,57.6-48.4,75.9c-7.4,9.7-25,30.5-40.6,48.8c-12,14.1-23.4,27.4-24.2,28.9
			c-0.1,2-3.2,16.4-13.8,33.2c-7.4,11.7-15.6,16.5-20.5,19.4c-2,1.2-3.7,2.1-4.2,3c-2,3.3-17.3,29.7-28,49.4
			c-2.2,4-5.5,10.6-9.4,18.5c2.4,1.3,8.1,3.7,13.2,1.8c0,0,0.1,0,0.1,0c16.5-32.3,38.1-71.8,40.8-72.9c3.4-1.4,14.5-9.5,20.1-17.5
			c5.4-7.7,12.7-28,15-37.9c0-0.1,0.1-0.2,0.2-0.3c6.5-6.3,68.9-82.5,69.5-83.3c4.6-5.4,23.6-33.3,38.8-55.8
			c18.6-27.4,18.7-27.4,19.2-27.5c0.1,0,0.1,0,0.2,0c-5.2-6.3-10-12-11.9-13.8C312.1,135.5,303.2,153.3,297.8,162.4z"/>
	</g>
	<path class="st1" d="M606,308.8c-5.5-11-10.3-18.5-19.6-28.8c-10.1-11.3-43.3-40.7-72.7-65.4c-1.4,0.1-3.2,0.8-5.4,2.1
		c-13,7.7-38.3,34-51.7,49c-1.4,1.6-3.1,3.4-5,5.5c-9.2,10.1-24.3,26.6-31.6,38.7c-2.5,4.1-4.1,7.7-4.2,10.4c1.3,2,2.5,4.1,3.7,6.3
		c3.3,6.1,5.4,11.9,7.4,17.5c3,8.4,5.7,15.6,11.6,21.4c4.6,4.5,11.7,7.4,19.8,9.3l0.1-0.6c0.8-4.1,1.2-6,8.3-10
		c1.6-0.9,3.6-2,6.1-3.2c3.9-1.9,11.6-2.8,22.7-2.6c10.5,0.2,24.2,1.3,40.6,3.4c-4.8-2.7-9.2-4.8-12.9-6.3c-0.1,0.1-0.2,0.2-0.4,0.2
		c-1,0.1-2,0.2-3,0.2c-8.6,0-16.2-3.7-22.1-8.6c-3.5-2.9-6.4-6.2-8.5-9.3c-6.4-9.6-3.3-24.2,8.3-39c13.8-17.7,37.3-32.5,52.8-26.9
		c2.6,0.9,5.7,1.8,8.9,2.8c6,1.7,12.8,3.7,19.1,6.7c11.2,5.3,21,13.9,22,30.1c0,0,0,0.1,0,0.1c0,0.1,0.1,0.2,0.1,0.2
		c0,0,0,0.1,0,0.1c0.8,1.6,1.7,3.4,2.7,5.3c0,0,0,0,0,0c0.1,0.2,0.2,0.4,0.3,0.5C603,314.9,603.2,311.3,606,308.8z"/>
	<g>
		<path class="st1" d="M917,609.7c-2.9-0.4-6.2-0.9-9.9-1.4c-14.1,0.8-29.9-4-35.2-6.7c-5.3-2.7-5-11.8-4.9-14
			c-3.8-1.7-33.4-15-74.1-26c-35.5-9.6-71.2-29.4-88.4-38.9c-4.1-2.2-7-3.9-8.5-4.5c-7.7-3.5-12.4-9.6-12.5-9.8l-86.3-95.1
			c-0.1-0.1-0.2-0.3-0.2-0.4c0-0.2,0.1-0.4,0.2-0.5c0.3-0.2,0.7-0.2,0.9,0l2.2,2.4l84.1,92.7c0,0.1,4.7,6.1,12,9.4
			c1.5,0.7,4.5,2.3,8.6,4.6c17.1,9.5,52.7,29.2,88.1,38.8c43.6,11.8,74.4,26.2,74.7,26.3c0.3,0.1,0.4,0.4,0.4,0.7
			c0,0.1-1,10.5,4.1,13.1c5.2,2.7,20.7,7.4,34.6,6.6c0,0,0.1,0,0.1,0c3.8,0.5,7.1,1,10,1.4"/>
		<path class="st1" d="M961,578.4c-0.1,0.2-0.3,0.3-0.5,0.3c-0.1,0-0.3,0-0.4-0.1l-1.8-1.4l-6.2-4.8c-7.4-2.4-17.8-5.4-24.4-4.7
			c-3.8,0.4-11.2,0.6-17.2,0.7c-4.3,0.1-8.1,0.2-9.2,0.4c-9.2,1.1-19.8-1-19.9-1.1c0,0-0.1,0-0.1,0c-0.1,0-12-4.6-22.5-10.9
			c-5.5-3.3-22.5-14.2-40.3-25.8c-16.7-10.8-33.9-22-44.1-28.3c-20.8-13-54.2-25.4-56.2-25.8c-0.3,0-0.5-0.2-0.6-0.5c0,0,0,0,0,0
			c-0.1-0.3,0.1-0.7,0.4-0.8c0.1,0,0.2,0,0.5,0.1c4.4,1,37.7,14.1,56.6,25.9c10.2,6.4,27.4,17.6,44.1,28.4
			c17.9,11.6,34.8,22.5,40.3,25.8c10.1,6,21.4,10.4,22.3,10.7c0.8,0.2,10.8,2.1,19.5,1c1.2-0.1,4.8-0.2,9.3-0.4
			c5.9-0.2,13.3-0.4,17.1-0.7c6.8-0.7,17,2.2,25.1,4.8c0.1,0,0.1,0.1,0.2,0.1l8.1,6.3c0,0,0,0,0,0.1
			C961.2,577.7,961.2,578.1,961,578.4z"/>
		<path class="st1" d="M591.8,300.1c0.3-0.2,0.7,0,0.9,0.3c0.2,0.4,16.1,32.8,25.6,48c0.1,0.1,0.2,0.3,0.2,0.4l0.7,1.1
			c0.1,0.2,0.3,0.4,0.4,0.7c0.5,0.7,0.9,1.4,1.4,2c9.8,13.7,38,52.3,48.5,65.1c10.7,13.1,48.4,56.9,48.7,57.4
			c0.1,0.1,0.1,0.2,0.1,0.3c-0.2-0.1-0.4-0.1-0.5-0.1c-0.3,0.1-0.5,0.5-0.4,0.8c-0.1,0-0.2-0.1-0.3-0.2c-0.4-0.4-38-44.3-48.8-57.4
			c-10.5-12.9-38.8-51.5-48.6-65.2c-0.5-0.8-1.1-1.6-1.7-2.6c-0.1-0.1-0.9-1.4-1-1.5c-9.5-15.3-25.5-47.9-25.7-48.3
			C591.3,300.7,591.4,300.3,591.8,300.1z"/>
	</g>
	<path class="st1" d="M619.8,439.4c2.6,4.9-0.6,12.4-3.4,16c-1.8,2.2-4.2,4.1-6.4,5.9c-2.1,1.6-3.8,3.6-6.7,4.1
		c-0.9,0.1-1.4-1.6-1-2.2c1.2-1.6,2.6-1.7,4.3-2.8c2.2-1.4,4.4-2.9,6.4-4.6c2.2-1.7,5.6-6.1,6-9c0.3-2.4,0.6-4.5-0.1-6.5
		C618.8,439.9,619.6,439,619.8,439.4z"/>
	<path class="st1" d="M567.2,425.7c-0.1-0.4-0.5-0.5-0.8-0.5c-0.9,0.2-2,1.2-2.2,1.4c0,0-0.1,0.1-0.1,0.2c0,0,0,0,0,0
		c-0.2,0.1-0.6,0.3-0.7,0.3c-1.6,0.6-2.9,0.8-4.2,1.1c-1.3,0.3-2.6,0.5-4.1,1.1c-0.4,0.2-0.9,0.4-1.3,0.6c-1.7,0.8-3.7,2.3-4.9,4
		c-0.1,0.2-0.2,0.3-0.3,0.5c0.1,0.2,0.2,0.4,0.2,0.7c0,0,0.1,1,0.2,1.7c0,0.4,0.1,0.7,0.1,0.8c1.1,3.7,3.8,3.5,4.6,3.3
		c0.1,0,0.2,0,0.3-0.1c0.3-0.1,0.6,0.1,0.8,0.3c0.1,0.1,0.2,0.3,0.2,0.5c0,0,0,0,0,0c0,0,0,0,0,0c0,0,0,0,0,0
		c-0.2,2.1,2.1,3.1,2.5,3.2l0.6,0.1l1.4,0.3c0-0.1-0.1-0.2-0.1-0.4c0.1-0.3,0.4-0.9,2-1.7c0.9-0.5,1.1-1.9,1.4-4.3
		c0.1-0.8,0.2-1.6,0.3-2.5c0.1-0.7,0.2-1.4,0.3-2c0.4-2.9,0.7-5,2-7c0,0,0,0,0-0.1c0.5-0.4,1-0.7,1.4-0.8
		C567.1,426.4,567.3,426,567.2,425.7z"/>
	<path class="st2" d="M714.9,410.3c1.8,0.5,7.7,1.5,16-3.2c2.2-1.2,4.2-3.1,5.9-5.4c3.7-5.1,5.3-12,4.7-18.6l0,0
		c0-0.1,0-0.3-0.1-0.4c-0.3-2.9-1.1-5.8-2.3-8.5c-5.6-12.3-17.6-20.2-28-18.3c-6.7,1.2-14.2,7.1-15.5,8.2
		c-11.1-12.1-24.2-19.6-35.9-20.4 M731.5,365.3c-3.3-0.6-12.6-1.8-19.3,0.9c-6.4,2.5-11.1,7.1-13,9.1c-0.3-1.1-0.6-2.3-0.9-3.4
		c0-0.1,0-0.3-0.1-0.4c-0.1-0.3-0.2-0.6-0.2-0.9c1.5-1.1,8.4-6,14.3-8.5c5.2-2.2,14.3-0.3,15.6,0
		C729.1,363.1,730.3,364.2,731.5,365.3z M720.8,371.3c-0.7,0.2-1.4,0.3-2.1,0.5c-4.8,1.1-11.2,2.6-17.5,9.6
		c-0.1-0.3-0.2-0.5-0.3-0.8c-0.4-1.1-0.8-2.4-1.2-3.8c1.2-1.3,6.2-6.7,13.1-9.4c7.8-3.1,19.6-0.6,19.8-0.6c0.1,0,0.3,0,0.4,0
		c0.4,0.5,0.8,1,1.2,1.5C731.4,368.7,725.3,370.1,720.8,371.3z M729.9,375c-1.1,0.5-2.4,1.1-3.8,1.8c-1.5,0.7-2.9,1.4-4.1,2
		c-2.9,1.4-4.9,2.4-7,3.3c-0.7,0.3-1.4,0.6-2.1,0.8c-3.7,1.5-7.6,3.1-9.1,5.1c0,0,0,0.1-0.1,0.1c-0.8-1.9-1.5-3.8-2.2-5.4
		c0,0,0,0,0,0c6.1-7.2,12.3-8.6,17.3-9.7c0.8-0.2,1.5-0.3,2.2-0.5c5.9-1.5,12.6-2.9,13.8-3c0.5,0.7,0.9,1.4,1.3,2.1
		C734.7,372.7,732.6,373.7,729.9,375z M737.8,374.5c-0.6,1-2.9,4.3-8,8.6c-5.6,4.7-8.1,6.5-11.4,8.1c-4,1.9-9.7,3.2-11.6,3.6
		c-0.7-1.6-1.5-3.4-2.3-5.2c0.1-0.1,0.2-0.2,0.3-0.3c0.8-1.9,5-3.6,8.8-5.2c0.7-0.3,1.4-0.6,2.1-0.9c2.2-0.9,4.2-1.9,7.1-3.4
		c1.2-0.6,2.5-1.3,4.1-2c1.4-0.7,2.6-1.3,3.8-1.8c2.7-1.2,4.8-2.3,6.4-3.4C737.2,373.4,737.5,373.9,737.8,374.5z M698,405.1
		c0.9-1.1,2.3-2.7,3.7-4.4c1.4-1.7,2.9-3.4,4-4.8c0,0.1,0.1,0.1,0.2,0.2c0.6,1.2,1.1,2.3,1.6,3.2c-1.1,2.7-2.5,5.8-4,8.6
		 M704.6,408.6c1.4-2.5,2.6-5.3,3.7-7.8l0.6,0.9c0,0.1,0.1,0.2,0.1,0.2c0,0,0,0,0,0l1.6,2.5 M703.9,391.7c0.4,1,0.8,1.9,1.2,2.8
		c-1.1,1.4-2.8,3.4-4.4,5.3c-1.5,1.7-2.8,3.3-3.7,4.5 M673.9,401.4c8.3-3.9,25.8-11.2,28.8-12.5c0.2,0.5,0.4,1,0.6,1.5 M734,387.6
		c-4.1,4-10.5,9.2-15,10.5c-1.6,0.5-3.4,1-4.9,1.4c-2.4,0.7-3.6,1-4.2,1.2l-0.9-1.5c-0.4-0.8-1-1.9-1.6-3.2
		c2.2-0.5,7.6-1.8,11.6-3.6c3.5-1.6,5.9-3.5,11.7-8.3c4.4-3.7,6.8-6.6,7.8-8.2c0.2,0.5,0.4,0.9,0.5,1.4c0,0,0,0,0,0.1
		C738.8,380,738.1,383.5,734,387.6z M740.1,383c-0.2,0.9-1.5,5.8-4.5,11.3c-3.2,5.8-8.2,9.5-14,10.2c-4.8,0.6-8,1.1-8.7,1.1
		l-2.4-3.9c0.9-0.3,2.4-0.7,3.9-1.1c1.6-0.4,3.3-0.9,4.9-1.4c6.1-1.8,14.1-9.3,15.6-10.8c3-2.9,4.3-5.6,4.9-7.9
		C739.9,381.4,740.1,382.2,740.1,383z M715,409c0-0.2-0.1-0.3-0.3-0.4l-1-1.6c1.3-0.2,4.1-0.5,8.1-1.1c6.3-0.8,11.6-4.7,15-10.9
		c1.6-3,2.8-5.7,3.5-7.9c-0.2,5.5-2.1,10.4-4.6,13.9c-1.6,2.2-3.4,3.8-5.5,5C721.9,410.7,716.1,409.3,715,409z M711.5,406l2.1,3.4
		 M701,385.1c0.1,0,0.1,0,0.2,0c0.3,0.8,0.7,1.7,1,2.6c-3,1.3-20.5,8.7-28.8,12.5 M699.9,382.2c0.1,0,0.1,0,0.2,0
		c0.2,0.5,0.4,1.1,0.6,1.6c-0.5,0.1-1,0.2-1.6,0.3c-0.2,0-0.4,0.1-0.6,0.1c-0.4,0.1-0.7,0.1-1.1,0.2c-0.2,0-0.5,0.1-0.7,0.1
		c-0.3,0.1-0.7,0.1-1,0.2c-0.3,0.1-0.5,0.1-0.8,0.2c-0.3,0.1-0.7,0.1-1,0.2c-0.3,0.1-0.6,0.1-0.8,0.2c-0.3,0.1-0.7,0.2-1,0.2
		c-0.3,0.1-0.6,0.1-0.9,0.2c-0.3,0.1-0.6,0.2-1,0.2c-0.3,0.1-0.6,0.2-1,0.2c-0.3,0.1-0.6,0.2-1,0.2c-0.3,0.1-0.7,0.2-1,0.3
		c-0.3,0.1-0.6,0.2-0.9,0.2c-0.4,0.1-0.7,0.2-1.1,0.3c-0.3,0.1-0.6,0.2-0.9,0.2c-0.4,0.1-0.8,0.2-1.2,0.3c-0.3,0.1-0.5,0.1-0.8,0.2
		c-0.4,0.1-0.9,0.2-1.3,0.4c-0.2,0-0.4,0.1-0.5,0.1c-3.2,0.9-6.4,1.8-9.7,2.8c0,0,0,0-0.1,0c-0.6,0.2-1.3,0.4-1.9,0.6
		c-0.1,0-0.1,0-0.2,0.1c-0.6,0.2-1.2,0.4-1.9,0.6c-0.1,0-0.1,0-0.2,0.1c-0.6,0.2-1.2,0.4-1.8,0.6c-0.1,0-0.1,0-0.2,0.1
		c-0.6,0.2-1.2,0.4-1.9,0.6c0,0-0.1,0-0.1,0c-0.6,0.2-1.3,0.4-1.9,0.6c0,0,0,0-0.1,0 M699,379.1c0.2,0.6,0.4,1.2,0.6,1.8
		c-0.4,0-0.9,0-1.6,0.1c0,0,0,0,0,0c-0.3,0-0.6,0-1,0c0,0-0.1,0-0.1,0c-0.4,0-0.7,0-1.1,0.1c0,0-0.1,0-0.1,0c-0.4,0-0.8,0-1.3,0.1
		c0,0-0.1,0-0.1,0c-0.5,0-0.9,0.1-1.4,0.1c0,0-0.1,0-0.1,0c-0.5,0-1,0.1-1.6,0.1c0,0,0,0-0.1,0c-0.6,0-1.1,0.1-1.7,0.1c0,0,0,0,0,0
		 M662.8,369.4c13.6,0.6,27.8,4.2,35.1,6.3c0.1,0.3,0.2,0.6,0.3,0.9c0,0.1,0,0.3,0.1,0.4c0.1,0.2,0.1,0.4,0.2,0.7 M669.4,362.6
		c7.6,1.9,24.9,8.6,27.6,9.7c0.2,0.7,0.4,1.3,0.5,2c-7.6-2.2-21.4-5.5-34.7-6.2 M659.4,351.8c7.7,1.5,13.2,3.5,21,7.5
		c7,3.6,14.1,8.3,15.6,9.3c0.2,0.6,0.3,1.3,0.5,2c-4.5-1.8-19.8-7.7-26.8-9.4 M659.7,345.1c11.5,0.8,24.4,8.3,35.5,20.5
		c0.1,0.1,0.2,0.1,0.2,0.2c0.1,0.3,0.1,0.6,0.2,1c-2.7-1.8-8.7-5.6-14.6-8.6c-7.9-4.1-13.5-6.1-21.4-7.6 M711.4,357.2
		c4.4-0.8,9.3,0.4,13.7,3c-3.6-0.6-9.3-1-13.3,0.6c-5.6,2.4-12,6.8-14.2,8.3c-0.1-0.3-0.1-0.5-0.2-0.8c0-0.2,0-0.4-0.1-0.5
		c-0.3-1.3-0.6-2.3-0.7-2.8C698.1,363.8,705.2,358.3,711.4,357.2z"/>
</g>
</svg>
