<?xml version="1.0" encoding="utf-8"?>
<!-- Generator: Adobe Illustrator 22.1.0, SVG Export Plug-In . SVG Version: 6.00 Build 0)  -->
<svg version="1.1" id="Layer_1" xmlns="http://www.w3.org/2000/svg" xmlns:xlink="http://www.w3.org/1999/xlink" x="0px" y="0px"
	 viewBox="0 0 102 182" style="enable-background:new 0 0 102 182;" xml:space="preserve">
<style type="text/css">
	.st0{opacity:0.38;fill:#FFE11A;enable-background:new    ;}
</style>
<g>
	<g>
		<path class="st0" d="M51.8,168.3c0.2-0.1,0.5-0.2,0.7-0.3c0.7-0.4,1.4-0.9,2-1.5c0.8-0.7,1.5-1.4,2.2-2.2c0.3-0.4,0.6-0.7,0.9-1.1
			c0.4-0.5,0.7-1,0.9-1.6c0-1.5-0.1-3.1,0-4.6c0-0.9,0.1-1.8,0.1-2.7c0.1-2.7,0.2-5.5,0.4-8.2c0.1-1.2,0.1-2.4,0.2-3.6
			c0.2-1.8,0.4-3.7,0.5-5.5c0.8-8.5,1.6-17,2.5-25.6c0.2-1.6,0.3-3.3,0.5-4.9s0.2-3.3,0.3-4.9c0.3-3.7,0.6-7.4,0.7-11.1
			c0.1-4.7,0.3-9.5,0.4-14.2c0-1.3,0-2.5,0-3.8c0-2.8-0.1-5.6-0.1-8.4c-0.1-3.8-0.3-7.7-0.6-11.5c-0.2-4-0.6-7.9-0.9-11.9
			c-0.3-4.2-0.6-8.4-1.1-12.5c0-0.4-0.1-0.9-0.1-1.3c0,0.1,0,0.2,0,0.2c0-0.6,0-1.2,0.1-1.7c0.5-2.4-3.8,0.8-4,0.9
			c-1.5,1.2-3,2.4-4.3,3.8c-0.7,0.7-1.4,1.5-2.1,2.2c-1.1,1.2-2,2.5-2.9,3.9c-0.6,0.9-1,1.9-1.4,2.9c-0.2,0.7-0.1,1.6,0,2.3
			c0.1,0.9,0.3,1.7,0.5,2.5c0.3,1,0.5,2.1,0.8,3.1c0.4,1.8,0.9,3.6,1.3,5.4c0.4,1.8,0.8,3.6,1.2,5.4c0.3,1.3,0.6,2.6,0.8,3.9
			c0.5,3.3,1.1,6.6,1.6,9.9c0.4,3.9,0.7,7.9,1.1,11.8c0.1,1,0.1,1.9,0.2,2.9c0.1,2.6,0.2,5.1,0.2,7.7c0.1,1.8,0.1,3.6,0.2,5.4
			c0,1.4-0.1,2.8-0.1,4.3c-0.1,2.6-0.1,5.2-0.2,7.9c0,1,0,2-0.1,3c-0.5,7.8-1.1,15.7-1.7,23.5c-0.2,2.7-0.4,5.3-0.6,8
			c-0.1,1.1-0.2,2.2-0.3,3.3c-0.2,4.5-0.3,8.9-0.5,13.4c-0.1,1.7,0,3.5,0,5.2c-0.1,0.3,0,0.5,0.3,0.5
			C51.6,168.3,51.7,168.3,51.8,168.3L51.8,168.3L51.8,168.3z"/>
		<path class="st0" d="M85.8,108.9c1.5-0.8,2.8-2.1,3.9-3.2c0.9-0.9,1.7-1.8,2.5-2.8c0.4-0.5,1.4-1.7,1.1-2.5
			c-1.9-4.8-3.8-9.6-5.7-14.3c-1.3-3.3-2.5-6.7-3.7-10.1c-0.6-1.8-1.3-3.5-1.9-5.3c-0.6-1.7-1.1-3.5-1.7-5.2
			c-1.3-3.9-2.5-7.8-3.7-11.7c-2.2-7.3-4.3-14.6-6.2-22c-0.4-1.7-0.9-3.3-1.4-5c-0.2-0.6-0.5-1.2-0.8-1.8c-0.1-0.3-0.5-0.5-0.7-0.8
			c-0.3-0.3-0.8-0.4-1.2-0.6c-0.8-0.2-1.4,0-2.1,0.5c-1.3,0.8-2.6,1.7-3.7,2.8c-1.5,1.3-2.9,2.7-4.2,4.2c-0.5,0.7-1.1,1.3-1.6,2
			c-0.8,0.9-1.3,1.9-1.7,3c0.1,1.3,0.2,2.7,0.8,3.9c0.2,0.4,0.4,0.8,0.6,1.1c0.3,0.5,0.7,1,1,1.5c1,1.4,1.9,2.8,2.8,4.3
			c0.4,0.7,0.9,1.4,1.3,2.2c0.4,0.9,0.9,1.8,1.3,2.7c0.7,1.5,1.4,2.9,2.1,4.4c1.7,3.8,3.3,7.6,4.8,11.4c1.5,3.6,2.9,7.2,4.4,10.9
			c2.6,6.6,5.3,13.3,8,19.9c1.5,3.6,3,7.3,4.5,10.9c0.1,0,0.3,0.1,0.4,0.1C85.2,109.3,85.5,109.2,85.8,108.9L85.8,108.9L85.8,108.9z
			"/>
		<path class="st0" d="M19.9,106.9c2.7-2,5.2-4.2,7.5-6.6c1.2-1.3,2.4-2.6,3.6-3.9c1.9-2.1,3.5-4.3,5-6.7
			c4.4-8.9,8.8-17.8,13.1-26.7c3.1-6.2,6-12.6,9-18.9c1.8-3.7,3.5-7.5,5.4-11.2c1.8-3.7,3.7-7.3,5.8-10.9c0.8-1.5,1.6-3,2.5-4.5
			c1-1.2,1.4-2.5,1-4c-1.4-0.4-2.8-0.1-4,1c-2.6,1.6-5,3.4-7.2,5.4c-1.4,1.3-2.8,2.6-4.2,3.9c-2.5,2.5-4.9,5.2-7.1,8.1
			c-1.8,2.6-3.5,5.3-5,8.1c-0.9,1.8-1.8,3.6-2.6,5.4c-1.4,2.9-2.7,5.8-4.1,8.8c-3.5,7.7-7,15.4-10.6,23.1c-3.2,7-6.7,13.9-10.1,20.8
			c-1.3,2.7-2.6,5.3-4,8c-1,1.1-1.3,2.4-0.9,3.7c0.5,0,0.9,0.1,1.4,0.1C16.4,109.3,18.2,108.3,19.9,106.9L19.9,106.9L19.9,106.9z"/>
	</g>
	<g>
		<path class="st0" d="M51.8,168.3c0.2-0.1,0.5-0.2,0.7-0.3c0.7-0.4,1.4-0.9,2-1.5c0.8-0.7,1.5-1.4,2.2-2.2c0.3-0.4,0.6-0.7,0.9-1.1
			c0.4-0.5,0.7-1,0.9-1.6c0-1.5-0.1-3.1,0-4.6c0-0.9,0.1-1.8,0.1-2.7c0.1-2.7,0.2-5.5,0.4-8.2c0.1-1.2,0.1-2.4,0.2-3.6
			c0.2-1.8,0.4-3.7,0.5-5.5c0.8-8.5,1.6-17,2.5-25.6c0.2-1.6,0.3-3.3,0.5-4.9s0.2-3.3,0.3-4.9c0.3-3.7,0.6-7.4,0.7-11.1
			c0.1-4.7,0.3-9.5,0.4-14.2c0-1.3,0-2.5,0-3.8c0-2.8-0.1-5.6-0.1-8.4c-0.1-3.8-0.3-7.7-0.6-11.5c-0.2-4-0.6-7.9-0.9-11.9
			c-0.3-4.2-0.6-8.4-1.1-12.5c0-0.4-0.1-0.9-0.1-1.3c0,0.1,0,0.2,0,0.2c0-0.6,0-1.2,0.1-1.7c0.5-2.4-3.8,0.8-4,0.9
			c-1.5,1.2-3,2.4-4.3,3.8c-0.7,0.7-1.4,1.5-2.1,2.2c-1.1,1.2-2,2.5-2.9,3.9c-0.6,0.9-1,1.9-1.4,2.9c-0.2,0.7-0.1,1.6,0,2.3
			c0.1,0.9,0.3,1.7,0.5,2.5c0.3,1,0.5,2.1,0.8,3.1c0.4,1.8,0.9,3.6,1.3,5.4c0.4,1.8,0.8,3.6,1.2,5.4c0.3,1.3,0.6,2.6,0.8,3.9
			c0.5,3.3,1.1,6.6,1.6,9.9c0.4,3.9,0.7,7.9,1.1,11.8c0.1,1,0.1,1.9,0.2,2.9c0.1,2.6,0.2,5.1,0.2,7.7c0.1,1.8,0.1,3.6,0.2,5.4
			c0,1.4-0.1,2.8-0.1,4.3c-0.1,2.6-0.1,5.2-0.2,7.9c0,1,0,2-0.1,3c-0.5,7.8-1.1,15.7-1.7,23.5c-0.2,2.7-0.4,5.3-0.6,8
			c-0.1,1.1-0.2,2.2-0.3,3.3c-0.2,4.5-0.3,8.9-0.5,13.4c-0.1,1.7,0,3.5,0,5.2c-0.1,0.3,0,0.5,0.3,0.5
			C51.6,168.3,51.7,168.3,51.8,168.3L51.8,168.3L51.8,168.3z"/>
		<path class="st0" d="M85.8,108.9c1.5-0.8,2.8-2.1,3.9-3.2c0.9-0.9,1.7-1.8,2.5-2.8c0.4-0.5,1.4-1.7,1.1-2.5
			c-1.9-4.8-3.8-9.6-5.7-14.3c-1.3-3.3-2.5-6.7-3.7-10.1c-0.6-1.8-1.3-3.5-1.9-5.3c-0.6-1.7-1.1-3.5-1.7-5.2
			c-1.3-3.9-2.5-7.8-3.7-11.7c-2.2-7.3-4.3-14.6-6.2-22c-0.4-1.7-0.9-3.3-1.4-5c-0.2-0.6-0.5-1.2-0.8-1.8c-0.1-0.3-0.5-0.5-0.7-0.8
			c-0.3-0.3-0.8-0.4-1.2-0.6c-0.8-0.2-1.4,0-2.1,0.5c-1.3,0.8-2.6,1.7-3.7,2.8c-1.5,1.3-2.9,2.7-4.2,4.2c-0.5,0.7-1.1,1.3-1.6,2
			c-0.8,0.9-1.3,1.9-1.7,3c0.1,1.3,0.2,2.7,0.8,3.9c0.2,0.4,0.4,0.8,0.6,1.1c0.3,0.5,0.7,1,1,1.5c1,1.4,1.9,2.8,2.8,4.3
			c0.4,0.7,0.9,1.4,1.3,2.2c0.4,0.9,0.9,1.8,1.3,2.7c0.7,1.5,1.4,2.9,2.1,4.4c1.7,3.8,3.3,7.6,4.8,11.4c1.5,3.6,2.9,7.2,4.4,10.9
			c2.6,6.6,5.3,13.3,8,19.9c1.5,3.6,3,7.3,4.5,10.9c0.1,0,0.3,0.1,0.4,0.1C85.2,109.3,85.5,109.2,85.8,108.9L85.8,108.9L85.8,108.9z
			"/>
		<path class="st0" d="M19.9,106.9c2.7-2,5.2-4.2,7.5-6.6c1.2-1.3,2.4-2.6,3.6-3.9c1.9-2.1,3.5-4.3,5-6.7
			c4.4-8.9,8.8-17.8,13.1-26.7c3.1-6.2,6-12.6,9-18.9c1.8-3.7,3.5-7.5,5.4-11.2c1.8-3.7,3.7-7.3,5.8-10.9c0.8-1.5,1.6-3,2.5-4.5
			c1-1.2,1.4-2.5,1-4c-1.4-0.4-2.8-0.1-4,1c-2.6,1.6-5,3.4-7.2,5.4c-1.4,1.3-2.8,2.6-4.2,3.9c-2.5,2.5-4.9,5.2-7.1,8.1
			c-1.8,2.6-3.5,5.3-5,8.1c-0.9,1.8-1.8,3.6-2.6,5.4c-1.4,2.9-2.7,5.8-4.1,8.8c-3.5,7.7-7,15.4-10.6,23.1c-3.2,7-6.7,13.9-10.1,20.8
			c-1.3,2.7-2.6,5.3-4,8c-1,1.1-1.3,2.4-0.9,3.7c0.5,0,0.9,0.1,1.4,0.1C16.4,109.3,18.2,108.3,19.9,106.9L19.9,106.9L19.9,106.9z"/>
	</g>
	<g>
		<path class="st0" d="M51.8,168.3c0.2-0.1,0.5-0.2,0.7-0.3c0.7-0.4,1.4-0.9,2-1.5c0.8-0.7,1.5-1.4,2.2-2.2c0.3-0.4,0.6-0.7,0.9-1.1
			c0.4-0.5,0.7-1,0.9-1.6c0-1.5-0.1-3.1,0-4.6c0-0.9,0.1-1.8,0.1-2.7c0.1-2.7,0.2-5.5,0.4-8.2c0.1-1.2,0.1-2.4,0.2-3.6
			c0.2-1.8,0.4-3.7,0.5-5.5c0.8-8.5,1.6-17,2.5-25.6c0.2-1.6,0.3-3.3,0.5-4.9s0.2-3.3,0.3-4.9c0.3-3.7,0.6-7.4,0.7-11.1
			c0.1-4.7,0.3-9.5,0.4-14.2c0-1.3,0-2.5,0-3.8c0-2.8-0.1-5.6-0.1-8.4c-0.1-3.8-0.3-7.7-0.6-11.5c-0.2-4-0.6-7.9-0.9-11.9
			c-0.3-4.2-0.6-8.4-1.1-12.5c0-0.4-0.1-0.9-0.1-1.3c0,0.1,0,0.2,0,0.2c0-0.6,0-1.2,0.1-1.7c0.5-2.4-3.8,0.8-4,0.9
			c-1.5,1.2-3,2.4-4.3,3.8c-0.7,0.7-1.4,1.5-2.1,2.2c-1.1,1.2-2,2.5-2.9,3.9c-0.6,0.9-1,1.9-1.4,2.9c-0.2,0.7-0.1,1.6,0,2.3
			c0.1,0.9,0.3,1.7,0.5,2.5c0.3,1,0.5,2.1,0.8,3.1c0.4,1.8,0.9,3.6,1.3,5.4c0.4,1.8,0.8,3.6,1.2,5.4c0.3,1.3,0.6,2.6,0.8,3.9
			c0.5,3.3,1.1,6.6,1.6,9.9c0.4,3.9,0.7,7.9,1.1,11.8c0.1,1,0.1,1.9,0.2,2.9c0.1,2.6,0.2,5.1,0.2,7.7c0.1,1.8,0.1,3.6,0.2,5.4
			c0,1.4-0.1,2.8-0.1,4.3c-0.1,2.6-0.1,5.2-0.2,7.9c0,1,0,2-0.1,3c-0.5,7.8-1.1,15.7-1.7,23.5c-0.2,2.7-0.4,5.3-0.6,8
			c-0.1,1.1-0.2,2.2-0.3,3.3c-0.2,4.5-0.3,8.9-0.5,13.4c-0.1,1.7,0,3.5,0,5.2c-0.1,0.3,0,0.5,0.3,0.5
			C51.6,168.3,51.7,168.3,51.8,168.3L51.8,168.3L51.8,168.3z"/>
		<path class="st0" d="M85.8,108.9c1.5-0.8,2.8-2.1,3.9-3.2c0.9-0.9,1.7-1.8,2.5-2.8c0.4-0.5,1.4-1.7,1.1-2.5
			c-1.9-4.8-3.8-9.6-5.7-14.3c-1.3-3.3-2.5-6.7-3.7-10.1c-0.6-1.8-1.3-3.5-1.9-5.3c-0.6-1.7-1.1-3.5-1.7-5.2
			c-1.3-3.9-2.5-7.8-3.7-11.7c-2.2-7.3-4.3-14.6-6.2-22c-0.4-1.7-0.9-3.3-1.4-5c-0.2-0.6-0.5-1.2-0.8-1.8c-0.1-0.3-0.5-0.5-0.7-0.8
			c-0.3-0.3-0.8-0.4-1.2-0.6c-0.8-0.2-1.4,0-2.1,0.5c-1.3,0.8-2.6,1.7-3.7,2.8c-1.5,1.3-2.9,2.7-4.2,4.2c-0.5,0.7-1.1,1.3-1.6,2
			c-0.8,0.9-1.3,1.9-1.7,3c0.1,1.3,0.2,2.7,0.8,3.9c0.2,0.4,0.4,0.8,0.6,1.1c0.3,0.5,0.7,1,1,1.5c1,1.4,1.9,2.8,2.8,4.3
			c0.4,0.7,0.9,1.4,1.3,2.2c0.4,0.9,0.9,1.8,1.3,2.7c0.7,1.5,1.4,2.9,2.1,4.4c1.7,3.8,3.3,7.6,4.8,11.4c1.5,3.6,2.9,7.2,4.4,10.9
			c2.6,6.6,5.3,13.3,8,19.9c1.5,3.6,3,7.3,4.5,10.9c0.1,0,0.3,0.1,0.4,0.1C85.2,109.3,85.5,109.2,85.8,108.9L85.8,108.9L85.8,108.9z
			"/>
		<path class="st0" d="M19.9,106.9c2.7-2,5.2-4.2,7.5-6.6c1.2-1.3,2.4-2.6,3.6-3.9c1.9-2.1,3.5-4.3,5-6.7
			c4.4-8.9,8.8-17.8,13.1-26.7c3.1-6.2,6-12.6,9-18.9c1.8-3.7,3.5-7.5,5.4-11.2c1.8-3.7,3.7-7.3,5.8-10.9c0.8-1.5,1.6-3,2.5-4.5
			c1-1.2,1.4-2.5,1-4c-1.4-0.4-2.8-0.1-4,1c-2.6,1.6-5,3.4-7.2,5.4c-1.4,1.3-2.8,2.6-4.2,3.9c-2.5,2.5-4.9,5.2-7.1,8.1
			c-1.8,2.6-3.5,5.3-5,8.1c-0.9,1.8-1.8,3.6-2.6,5.4c-1.4,2.9-2.7,5.8-4.1,8.8c-3.5,7.7-7,15.4-10.6,23.1c-3.2,7-6.7,13.9-10.1,20.8
			c-1.3,2.7-2.6,5.3-4,8c-1,1.1-1.3,2.4-0.9,3.7c0.5,0,0.9,0.1,1.4,0.1C16.4,109.3,18.2,108.3,19.9,106.9L19.9,106.9L19.9,106.9z"/>
	</g>
</g>
</svg>
