<?xml version="1.0" encoding="utf-8"?>
<!-- Generator: Adobe Illustrator 22.1.0, SVG Export Plug-In . SVG Version: 6.00 Build 0)  -->
<svg version="1.1" id="Layer_1" xmlns="http://www.w3.org/2000/svg" xmlns:xlink="http://www.w3.org/1999/xlink" x="0px" y="0px"
	 viewBox="0 0 1004.5 623.9" style="enable-background:new 0 0 1004.5 623.9;" xml:space="preserve">
<style type="text/css">
	.st0{fill:#EDF1F2;}
	.st1{fill:none;stroke:#020203;stroke-miterlimit:10;}
	.st2{fill:#020203;}
</style>
<g>
	<path class="st0" d="M846.1,156c-7.4,4.4-19.1,7.8-35.2,10c-26,3.7-32.7-0.1-50.6-10c-3.1-1.7-6.6-3.6-10.5-5.7
		c-21.8-11.6-40-9.3-48.7-8.2c-2,0.3-3.6,0.4-4.4,0.4c-0.4,0-1,0-1.6,0.1c-0.1,0-0.1-0.1-0.2-0.1c-0.1,0-0.1,0.1-0.2,0.1
		c-10.8,1.2-46.8,13.6-63,20.2c0,0-0.1,0-0.1,0c-0.2,0-0.4,0.1-0.5,0.3c-2.7,1.1-4.8,2.1-6.1,2.7c-9.5,5.1-40.8,22.1-45.5,25
		c-16.9,10.4-44.3,28.8-66.6,16.8c-15.2-8.2-51.4-20.2-80.1-6.9c-17.4,8-28.7,24-33.7,47.4c-4.9,2.4-69.5,33.6-92.1,47.5
		c-26.2,16.1-48.5,36.1-59.2,45.7c-2.3,2.1-16,12.2-25.8,10.5c-11-1.8-36.7,1.1-56.4,11.6c-5.7,3-12.4,7.9-19.9,13.6c0,0,0,0-0.1,0
		c-0.3,0-0.5,0.2-0.6,0.5c-1.6,1.2-3.2,2.4-4.9,3.7c-9.9,7.6-21,16.1-33.1,23.6c-2.5,1.6-23.6,10.4-33.3,12.6c-3,0.7-6.7,1.3-10.7,2
		c-9.2,1.6-19.6,3.5-25.5,6.5c-4.3,2.2-7.8,6.9-9.3,12.7c-1.9,7.2-0.7,15,3.4,21.2c1.1,1.7,11.4,20.4,14.2,28.7
		c0.4,1.1,0.8,2.4,1.3,3.8c3.4,10.2,8.6,25.7,10.1,33.8c1.3,7.5,2,8.3,3.4,10c0.1,0.1,0.2,0.2,0.2,0.3c0,0,0,0,0,0
		c-0.5,11.5,5.4,14.3,7.2,14.8c0.6,0.2,1.2,0.3,1.7,0.3c0.4,0,0.8-0.2,1.2-0.3c0,0.1,0,0.2,0,0.3c0.5,1.3,4.4,3.7,7.4,3.8
		c0.1,0,0.3,0,0.4,0c0.6,0,1-0.1,1.5-0.2c0,0,0,0,0,0.1c0.2,1.5,3.7,3.6,6.9,4.1c0.3,0,0.6,0.1,0.8,0.1c0.9,0,1.7-0.3,2.3-0.9
		c0.3-0.3,0.6-0.7,0.8-1.1c0.9,1.5,3.3,3.6,6.7,4c0.1,0,0.3,0,0.4,0c0.9,0,1.7-0.3,2.4-0.9c0.8-0.7,1.4-1.7,1.7-2.8
		c0.8,1,2.4,2.4,5.3,2.7c0.3,0,0.7,0,1,0c4,0,6.3-2.2,6.8-6.5c0.5-4.3-1.3-5.1-3-6c-0.3-0.2-0.6-0.3-1-0.5c-0.9-0.5-1.7-1.3-2.5-2.1
		c-0.9-0.9-1.9-1.9-3.4-2.8c-1.7-1.1-3-3.4-4.9-6.5c-0.8-1.4-1.8-3.1-2.9-4.9c-3.5-5.5-4.5-25.2-4.6-25.4
		c-2.2-21.1-1.1-36.7,3.3-46.2c1.5-3.3,8.6-9.5,12-11.2c16.6-7.8,34-13.5,39-15.1c1.8-0.6,4.7-1.6,8.5-2.8
		c19.9-6.6,61.4-20.4,71.3-20.6c0.9,0,1.9,0,2.9-0.1c13.7-0.2,30.7-0.5,56-16c42.3-7.6,56.5-10.5,100.8-24.9
		c15-4.9,53.1-17.7,81.8-30.5c0.6-0.3,2.3-0.8,4.5-1.5c8.7-2.8,29.2-9.4,48.2-20.6c9-5.3,32-16,54.7-18.4
		c10.4-1.1,21.3,0.7,31.8,2.5c12.2,2,23.7,4,34.6,1.8c3.2-0.7,6.1-1.3,8.9-1.9c9.5-2,17-3.6,28.2-5.1c10.4,10.4,21.9,12,22.8,12.1
		c0.1,2.6,0.2,5.1,0.4,7.4c0.2,4.5,0.4,8.3,0.5,11.3c0.1,3,2.1,14.9,4.2,27.5c2.6,15.5,5.7,34.7,5.4,36.9c-1.2,6.8-1.6,11.3-2,16.1
		c-0.4,4.9-0.9,10-2.2,18c-2.2,12.6-1,24.8,0.4,38.9c0.7,6.8,1.4,13.9,1.7,21.6c0.4,8.8,1.7,18,3,26.9c1.7,12.1,3.4,23.4,2.7,32.9
		c-0.3,4.4-0.7,8.1-1,11.3c-0.6,5.8-1.1,10.3-0.9,16.2c0.3,8.4,12,10.5,15.9,11.2l0.6,0.1c8.7,1.7,15.9,2.3,21.5,2
		c2.8,1.2,7,1.5,10.7,1.7c3.1,0.2,6.3,0.4,7.2,1.2c1.1,1,3,1.7,5.1,2.5c2.4,0.9,5,1.9,7,3.4c1.7,1.3,4,2,5.9,2c1.3,0,2.4-0.3,3.1-1
		c0.5-0.6,1.2-1.8-0.6-3.9c-2.3-2.7-6.9-6-11-8.6c0.8,0.2,1.7,0.4,2.5,0.5c3.1,0.6,6.7,1.3,7.8,2.3c0.3,0.3,0.8,0.8,1.4,1.3
		c2.7,2.6,7.2,6.9,10.7,6.9c0,0,0.1,0,0.1,0c1,0,1.8-0.4,2.5-1.1c1.5-1.6-2.8-7.8-4.5-9.7c-0.4-0.4-0.7-0.8-1-1.2
		c-1.5-2.1-3-4.3-15.7-8.5c0,0-0.1,0-0.1,0c0.5,0,1,0,1.6,0c0,0,0,0,0,0c0.2,0.1,0.5,0.1,0.7,0.2c0.3,0.1,0.5,0,0.7-0.1
		c2.3,0.3,4.2,0.8,6.8,1.5c1.6,0.4,3.4,1,5.7,1.5c5,2.9,10.4,4,14.4,4c2.7,0,4.8-0.5,5.6-1.3c0.5-0.5,0.6-1.1,0.3-1.6
		c-0.9-1.6-5.7-4.3-11.9-7.7c-1.1-0.6-2.1-1.2-2.9-1.6c0,0-0.1,0-0.1-0.1c-1.3-0.4-2.9-1.1-4.6-1.8c-4.6-1.9-9.7-4-13.7-3.6
		c-1.1,0.1-2.8,0.1-4.7,0.1c2-0.2,4.1-0.4,5.5-0.6c0.1,0,0.2,0,0.3,0c0.7,0,1.3,0,2,0c0.7,0.2,1.7,0.4,2.8,0.7
		c3.4,0.8,8.1,2,11.5,2.3c2.4,1.3,9.7,3.2,13.9,3.2c1.4,0,2.5-0.2,2.9-0.7c0.2-0.2,0.6-0.9,0-1.8c-2.5-3.7-11.2-8.1-15.1-9.5
		c-2.9-1.1-9.7-2.6-14.9-3.2c-0.1-0.1-0.2-0.2-0.3-0.2c-0.7-0.2-16-3.9-20.2-4.5c-1-0.1-2-0.3-3-0.5c-3.5-0.7-7.5-1.5-11.7-0.3
		c-3.7,1-6.6,1.9-8,2.3c0.4-4.7,2.2-25.4,4.2-36.1c1.9,0.2,3.9,0.1,5.8,0c1.9-0.2,3.7-0.3,4.7,0.1c2.2,0.9,5.7,1.8,9.8,2.9
		c2.2,0.6,4.5,1.2,6.9,1.9c1.6,0.5,3.2,0.7,4.7,0.7c3.4,0,6.3-1.1,7-2.5c0.2-0.4,0.5-1.4-0.7-2.4c-0.6-0.5-1.9-0.9-4.2-1.8
		c-2.7-1-6.1-2.2-8-3.5c-0.6-0.4-1.3-0.9-2.1-1.3c2.1-0.1,5.3-0.2,6.8,0.2c1.2,0.4,4.3,0.8,7.9,1.3c3.8,0.5,8.2,1.1,10.9,1.7
		c2.3,0.5,6,0.9,9.3,0.9c3.2,0,6-0.4,7.3-1.4c0,0,0,0,0,0c0.4,0.1,0.8,0.1,1.2,0.1c1.6,0,3.3-0.6,4.2-1.6c0.8-0.9,1.1-2,0.7-3.1
		c-0.2-0.8-0.9-3.1-19.3-8.1c-0.7-0.4-8-5.4-10.6-6.9c-2.9-1.7-10.2-4.7-14.3-5.4c-3.3-0.6-17.6-1-23.8-1.1c0.2-1.5,0.4-3,0.6-4.5
		c1.2-8.8,2.4-17.8,3.6-25.4c2.7-17.2,1.6-32.7-3.3-46.1c-5.7-15.7,2.2-38.3,5.5-48c1.4-4,6.4-34.7,6-48.8c1.1-4.3,3.3-9.7,5.9-15.9
		c3.6-8.9,8.1-20,11-31.7c2.3-9.4,2.7-22.6,1.6-35.3c12.6,3.1,32.9-0.6,35.2-1c7.2-1.4,12.9,0.9,14.6,5.6c1.7,4.7,8.6,24.9,8.7,25.1
		c0,0.1,0.1,0.1,0.2,0.1c1.1,3.3,2.7,5.9,4.9,6.9c3.1,1.5,5.5,0.3,7.5-0.8c0.9-0.5,1.8-1,2.7-1.2c2.6-0.6,3.7-0.1,5.1,0.7
		c0.1,0.1,0.5,0.3,0.6,0.5c0.3,0.3,0.6,0.6,1,0.7c3.9,1.9,6.1-0.2,6.9-1.3c2.1,1.7,4.9,0.3,5.1,0.2c0,0,0.1,0,0.1-0.1l4.2-3.1
		l1.6,2.7c0.8,1.9,2.5,3.5,4.7,4.3c1.9,0.7,3.9,0.8,5.3,0.1c4.1-2,4.9-3.1,7.7-6.9c0.7-0.9,1.4-2,2.4-3.2c2.1-2.7,4.6-5.9,7.8-8.1
		c1.7-1.2,4-1.3,6.7-1.4c0.9,0,1.8-0.1,2.7-0.2c18-1.8,28-7.4,37.5-17.4c0.6,0,1.2-0.5,1.3-1.3c0,0,0-0.1,0-0.1
		c1.6-1.8,3.3-3.7,4.9-5.7c13.6-16.7,12.3-48.8,9.6-60.8c-2.3-10.2-6.3-24.9-15.7-35.9c1.6-1,6.2-4.5,8.5-13.5
		c0.6-2.4,0.7-5.1,0.1-7.8c-1.2-6.1-4.9-11.8-10.1-15.8l0,0c-0.1-0.1-0.2-0.2-0.3-0.2c-1-0.7-2-1.3-3.1-1.9
		c-0.1-0.2-0.3-0.3-0.5-0.3c-1.3-0.7-2.7-1.3-4.1-1.8c-12.5-4.3-26.2-1-31.8,7.7c-3.6,5.6-4.4,14.9-4.5,16.6
		c-16.1-0.2-30.1,4.1-38.5,11.9c-11.4,10.6-18.5,22.8-20,25.5"/>
	<path class="st0" d="M851.9,151.5c-0.9,0.1-1.8,0.2-2.8,0.3"/>
	<path d="M787.9,598.2c1.3,0,2.4-0.3,3.1-1c0.5-0.6,1.2-1.8-0.6-3.9c-4.3-5.1-17.4-12.5-18-12.8c-3.3-1.9-12.3-2.8-15.1-2.7
		c-0.4,0-0.6,0.3-0.6,0.7c0,0.4,0.3,0.6,0.7,0.6c2.6-0.2,11.3,0.8,14.3,2.5c5,2.8,14.3,8.6,17.6,12.6c0.5,0.6,1.2,1.6,0.7,2.2
		c-0.9,1-4.8,0.8-7.3-1.1c-2.1-1.6-4.9-2.7-7.3-3.6c-2-0.7-3.8-1.4-4.7-2.3c-1.2-1.1-4.2-1.3-8-1.5c-3.6-0.2-7.8-0.5-10.4-1.7
		c-0.1,0-0.2-0.1-0.3-0.1c-5.5,0.4-12.6-0.3-21.3-1.9l-0.6-0.1c-3.6-0.7-14.5-2.7-14.8-10c-0.2-5.8,0.3-10.3,0.9-16.1
		c0.3-3.2,0.7-6.9,1.1-11.3c0.7-9.6-1-21-2.7-33.1c-1.3-8.9-2.6-18-3-26.8c-0.4-7.7-1.1-14.8-1.7-21.6c-1.4-14.1-2.6-26.2-0.4-38.6
		c1.4-8.1,1.8-13.2,2.2-18.1c0.4-4.8,0.8-9.3,2-16c0.4-2.3-2-16.9-5.3-37.4c-2.1-12.6-4-24.4-4.2-27.3c-0.1-3-0.3-6.8-0.5-11.3
		c-1.1-23.9-3.3-68.5-2.1-78.3c0-0.4-0.2-0.7-0.6-0.7c-0.4,0-0.7,0.2-0.7,0.6c-1.2,9.9,0.8,52.8,2.1,78.5c0.2,4.5,0.4,8.3,0.5,11.3
		c0.1,3,2.1,14.9,4.2,27.5c2.6,15.5,5.7,34.7,5.4,36.9c-1.2,6.8-1.6,11.3-2,16.1c-0.4,4.9-0.9,10-2.2,18c-2.2,12.6-1,24.8,0.4,38.9
		c0.7,6.8,1.4,13.9,1.7,21.6c0.4,8.8,1.7,18,3,26.9c1.7,12,3.4,23.4,2.7,32.9c-0.3,4.4-0.7,8.1-1,11.3c-0.6,5.8-1.1,10.3-0.9,16.2
		c0.3,8.4,12,10.5,15.9,11.2l0.6,0.1c8.7,1.7,15.9,2.3,21.4,2c2.8,1.2,7,1.5,10.7,1.7c3.1,0.2,6.3,0.4,7.2,1.2c1.1,1,3,1.7,5.1,2.5
		c2.4,0.9,5,1.9,7,3.4C783.6,597.5,785.9,598.2,787.9,598.2z"/>
	<g>
		<path class="st1" d="M967.3,140.7c-0.5-1.1-1-2.3-1.5-3.4c0-0.1,0-0.2-0.1-0.3c-0.1-0.2-0.2-0.4-0.3-0.6
			c-1.7-3.5-4.3-6.9-6.3-10.2c0.5,0.1,1.6-0.1,1.7-0.4c0.1,0,0.2,0,0.3-0.1c0.4-0.1,0.6-0.4,0.6-0.8c0.2,0,0.4-0.1,0.6-0.1
			c0.4-0.1,0.6-0.4,0.6-0.7c0.4-0.2,0.8-0.5,1.1-0.8c0.1-0.1,0.2-0.3,0.2-0.4c0.3-0.3,0.5-0.5,0.6-0.8c0.1-0.3,0-0.5-0.3-0.7
			c5.7-8.2,4.3-20-2.5-27.4c-0.2-0.3-0.4-0.6-0.5-1l0,0c-0.9-0.6-1.6-1.4-2.3-2.1c0-0.1-0.1-0.2-0.1-0.3c-0.1-0.4-0.5-0.5-0.8-0.5
			c-0.3-0.3-0.6-0.5-1-0.8c-0.3-0.2-0.7-0.5-1-0.7c-0.3-0.1-0.5-0.3-0.8-0.4c0-0.1,0-0.2-0.1-0.4c-0.1-0.7-0.9-0.7-1.3-0.2
			c-0.6-0.2-1.1-0.5-1.7-0.7c-1.1-0.3-2.1-1-3-1.5c-0.2-0.1-0.4-0.2-0.6-0.3c0,0-0.1,0-0.1,0c-0.6-0.1-1.3-0.2-1.9-0.3
			c-0.1,0.1-0.2,0.3-0.2,0.4c-0.1,0.4-0.3,0.8-0.4,1.2c-0.6,0.7-1.2,1.5-1.8,2.3c0.6-0.9,1.2-1.8,1.7-2.7c0.3-0.4,0.3-0.9,0.2-1.3
			c-0.6-0.1-1.2-0.2-1.8-0.4c0,0,0,0-0.1,0c-0.4,0-0.8,0.1-1.1,0c-3.5,5.6-7.7,10.8-10.7,16.8c-1.3,2.5-2.4,5.4-3.1,8.4
			c-0.1,0.2-0.2,0.4-0.2,0.6c-0.1,0.2-0.2,0.5-0.3,0.8c1.4-9.2,5.4-17.2,11.6-24.4c0.5-0.4,1-0.7,1.5-1c0.4-0.3,0.7-0.7,0.7-1.1
			c-1.3-0.1-2.7-0.4-4-0.3c-0.1,0-0.2,0-0.3,0c-8.1,6-14.4,15.8-14.9,26c-0.9,0.4-1.4-0.4-1.7-1.2c0-0.9,0.1-1.9,0.1-2.8
			c0.6-3.6,2.3-7.2,3.9-9.8c2.8-4.5,6.6-7.8,10.7-11.2c0.3-0.3,0.5-0.6,0.6-0.9c-1.1,0.2-2.2,0.2-3.3,0.4c-1.1,0.2-2.2,0.5-3.2,0.9
			c-2.1,1-4.1,2.1-6.2,3.3c-0.2,0.1-0.3,0.2-0.5,0.2c-5.8,5.6-9.2,13.6-9,21c-1.6,0.2-3.2,0.5-4.8,0.8c-6.4-0.3-12.4,0.8-18.1,3.1
			c-10.4,3-18.7,11-25.7,19.3c-0.2-0.1-0.3,0-0.5,0.1c-0.7,0.6-1.3,1.4-1.5,2.4c-0.3,0.3-0.5,0.7-0.8,1c-0.2,0-0.3,0.2-0.4,0.4
			c0,0,0,0.1-0.1,0.1c0,0.1-0.1,0.1-0.1,0.2c0,0,0,0,0,0c-0.1,0.2-0.2,0.3-0.4,0.5c-0.1,0.2-0.1,0.4-0.1,0.6
			c-0.5,1.2-1.1,2.4-1.6,3.6c-1,1.4-2.1,2.7-3.1,4.1 M842.7,145.7 M927.6,111.7c-0.3-0.1-0.5-0.5-0.7-1c0.5-4.6,1.4-9.1,3.8-13.3
			c1-1.8,2.2-3.4,3.4-5C930.5,98.2,928.3,104.9,927.6,111.7z M942.1,92c-4.1,6.7-6.6,14.6-7.5,22.3c-0.4-0.2-0.8-0.6-1.1-1.3
			c-0.2-0.6-0.4-1.2-0.5-1.7l0,0c0-1.2,0.2-2.4,0.4-3.5c0.7-2.6,1.8-5.1,3.3-7.6C938.4,97.3,940.3,94.7,942.1,92z M944.3,91.9
			c-1.3,3.8-2.6,7.5-3.8,11.3c-1,3.2-2.4,6.7-3.3,10.1c-0.1,0.2-0.2,0.3-0.3,0.4c0,0,0,0,0,0.1c-0.3,0.2-0.6,0.4-0.9,0.5
			C937.1,106.1,940.1,98.9,944.3,91.9z M946.5,104.5c-1.5,5-3.7,9.6-5.8,14.4c-0.3-0.3-0.5-0.8-0.6-1.6c-0.1-0.8,0-1.6,0.1-2.3
			c1.4-3.9,2.4-8.1,3.7-11.9c1.7-5.2,3.5-10.4,5.3-15.5c0,0,0.1,0,0.1,0C948.7,93.4,948.2,99,946.5,104.5z M950,96.6
			c-0.1,2.8-0.4,5.6-0.9,8.3c-0.7,3.9-2,7.4-3.4,11c0,0-0.1,0.1-0.1,0.1c-0.5,0.8-1,1.5-1.6,2.2c-0.7,0.5-1.5,0.9-2.2,1
			C946,112.8,948.8,104.6,950,96.6z M954.4,93c0.3,9.6-1.8,18.5-6,27.3c0-0.7,0.1-1.4,0.3-2.2c4.2-8.7,5.2-19.5,4.3-29
			C953.6,90.4,954,91.7,954.4,93z M955.6,102.9c0,1-0.1,2.1-0.3,3.1c-0.6,4.5-1.4,9.9-3.6,14.3c-0.9,0.6-2,1.2-2.7,1.3
			C952.5,116,954.7,109.5,955.6,102.9z M955.4,122c-0.7-0.6-0.2-1.7-0.1-2.5c0,0,0,0,0,0c0.3-0.8,0.5-1.6,0.8-2.4
			c1-3.5,2-7.2,2.4-10.8c0.5-4.5,0.3-9-0.8-13.3c0.2,0.3,0.5,0.6,0.7,0.9C960.1,103.5,959.2,112.8,955.4,122z M960.4,97.3
			c1.2,2.4,1.9,5.1,2.3,7.7c1,6.7-2.3,11.7-5.7,16.8c-0.1,0.1-0.2,0.2-0.3,0.2C960.2,114.4,961.5,105.6,960.4,97.3z M960.8,122.7
			c-0.1,0-0.3,0-0.4,0.1c4.4-5.7,6.7-13.9,4.8-20.6c-0.1-0.5-0.3-0.9-0.4-1.4c3.1,6.9,2,14.7-2.5,21.4
			C961.8,122.4,961.3,122.6,960.8,122.7z M906.4,143c2.9-3.6,5.9-6.9,9-10.2c-2.5,3.2-4.9,6.4-7.2,9.6 M965.9,141.9
			c0.2,0,0.4,0,0.6,0.1 M964.4,142.7c0.1-0.1,0.2-0.1,0.2-0.2 M959.9,141 M959.2,142.5 M955.6,139.4
			C955.6,139.4,955.6,139.4,955.6,139.4c0.1-0.4,0.2-0.7,0.3-1c0.2-0.2,0.4-0.4,0.6-0.5 M952.7,141.9 M950,135.5 M947.2,137.8
			c0.1-0.1,0.1-0.1,0.2-0.2c0.1-0.2,0.5-0.8,1.1-1.5 M943.6,139.2 M942.5,134.1C942.5,134.1,942.5,134.1,942.5,134.1 M939.4,134.1
			c0.4-0.3,0.8-0.6,1.3-0.7 M934.4,140.3 M931.6,143.9 M929.9,143.1 M925.2,144 M924.5,141.4 M921.8,141.2c0.5-0.5,1.1-1,1.6-1.5
			 M913.7,145.7c2.4-4,5.1-7.8,7.9-11.4c-2.3,3.7-4.4,7.6-6.3,11.5 M911.4,144.5c2-2.8,4.2-5.5,6.4-8.2 M913.3,131.5
			c0.1,0,0.1,0,0.2-0.1c0.7-0.5,1.4-0.9,2.1-1.4c-3.7,3.9-7.1,8.1-10.4,12.2 M895.8,143.2c4.6-5.3,9.4-10.3,14.5-14.9
			c-5,5.3-9.4,11.3-13.6,16.9 M891.7,142.8c6.4-6.7,13.4-14.2,21.6-19.5 M889.1,136.9c6.2-5.9,12.9-10.8,19.8-15.7
			c0.7-0.3,1.5-0.6,2.2-1c-7.8,5.3-14.7,12.4-20.9,19 M887.9,133.7c3.4-2.7,7-5.1,10.6-7.3c-4,3.2-7.7,6.6-11.2,10.1 M886.4,128.6
			c6.6-4.9,13.5-8.8,21-11.4 M869.4,140c4.2-4.8,8.9-9.3,14.1-13.1c6.6-4.8,13.6-8.3,21.1-10.6c-14.9,5.6-28,17.3-38.8,28.8
			c0-0.2,0.1-0.4,0.1-0.7C867,143,868.2,141.4,869.4,140z M901.8,113.1c-7.1,2.5-13.9,6.2-19.8,10.5c-5.4,4-10.4,8.5-14.8,13.6
			c-0.5,0.6-1.1,1.2-1.6,1.9c-0.2-0.3-0.3-0.7-0.3-1.1c5-6.9,10.8-13.4,18.2-17.9C889.3,116.4,895.4,114.4,901.8,113.1z M924.1,93
			c-0.8,1.1-1.5,2.3-2.1,3.6c-1.5,3-3.4,7.5-3.4,11.5c-0.3,0-0.5-0.2-0.6-0.4c0.5-4.2,0.8-8.2,3.6-11.8
			C922.3,94.8,923.2,93.9,924.1,93z"/>
	</g>
	<path class="st2" d="M881,263.7c-0.2-0.2-0.4-0.9,0.1-2.5c0.3-1-0.6-2.1-2.1-3.8c-0.5-0.6-1-1.2-1.6-1.9c-0.4-0.6-0.9-1.1-1.2-1.6
		c-1.8-2.2-3.1-3.8-3.7-6.1c0,0,0,0,0-0.1c0-0.6,0.1-1.2,0.4-1.6c0.2-0.3,0-0.7-0.3-0.9c-0.3-0.2-0.7,0-0.9,0.3
		c-0.5,0.7-0.5,2.2-0.4,2.5c0,0,0,0.1,0.1,0.2c0,0,0,0,0,0c-0.1,0.2-0.2,0.6-0.2,0.7c-0.7,1.5-1.4,2.6-2,3.7c-0.7,1.1-1.4,2.2-2,3.7
		c-0.2,0.4-0.3,0.9-0.5,1.4c-0.6,1.8-0.8,4.2-0.5,6.2c0,0.2,0.1,0.4,0.1,0.6c0.2,0.1,0.4,0.2,0.6,0.3c0,0,0.8,0.6,1.4,1
		c0.3,0.2,0.5,0.4,0.7,0.4c3.3,1.7,5-0.3,5.5-1.1c0.1-0.1,0.1-0.2,0.1-0.2c0.1-0.3,0.4-0.4,0.7-0.3c0.2,0,0.4,0.1,0.5,0.2
		c0,0,0,0,0,0c0,0,0,0,0,0c0,0,0,0,0,0c1.4,1.5,3.6,0.5,4,0.4l0.5-0.3l1.1-0.8C881.2,263.9,881.1,263.8,881,263.7z"/>
	<path class="st2" d="M742.5,171.3c-22.4-2.2-26.4-2.8-37.5-8.5c-5.6-2.9-9.9-9.2-10.9-15.8c-0.1-0.4-0.1-0.9-0.2-1.3
		c-1.7,0.2-3.9,0.7-6.5,1.3c-0.7,0.2-1.4,0.4-2.1,0.5c-1.1,0.3-2.3,0.6-3.5,1c-0.8,0.2-1.6,0.5-2.5,0.7c-0.8,0.2-1.7,0.5-2.6,0.8
		c-0.9,0.3-1.8,0.5-2.7,0.8c-1.4,0.4-2.8,0.9-4.2,1.3c-1.9,0.6-3.8,1.2-5.7,1.9c-1.9,0.6-3.9,1.3-5.8,2c-1.5,0.5-2.9,1-4.3,1.5
		c-7.2,2.5-13.9,5-19.2,7.1c-0.7,0.3-1.4,0.5-2,0.8c-0.3,0.1-0.5,0.2-0.8,0.3c0.1,1,0.2,3.3,0.4,6.4c1.1,15.3,3.9,51.5,7.5,68.4
		c2.1,9.9,4.5,20,7,29.2c3.5,12.9,7.3,23.9,11.5,29.4c6.5-1.3,12.8-2.5,21.1-3.6c0.2,0,0.4,0,0.5,0.2c0.3,0.3,0.6,0.6,0.9,0.9
		c0.1,0.1,0.2,0.2,0.3,0.3c0.2,0.2,0.4,0.4,0.6,0.6c0.1,0.1,0.2,0.2,0.4,0.3c0.2,0.2,0.4,0.3,0.6,0.5c0.1,0.1,0.3,0.2,0.4,0.3
		c0.2,0.2,0.4,0.3,0.6,0.5c0.1,0.1,0.3,0.2,0.4,0.3c0.2,0.1,0.4,0.3,0.5,0.4c0.1,0.1,0.3,0.2,0.4,0.3c0.2,0.1,0.4,0.3,0.6,0.4
		c0.1,0.1,0.3,0.2,0.4,0.3c0.2,0.1,0.4,0.3,0.6,0.4c0.1,0.1,0.2,0.2,0.4,0.2c0.2,0.1,0.4,0.3,0.6,0.4c0.1,0.1,0.2,0.1,0.3,0.2
		c0.2,0.1,0.4,0.3,0.7,0.4c0.1,0,0.2,0.1,0.2,0.1c0.6,0.4,1.2,0.7,1.8,1c0.1,0,0.1,0.1,0.2,0.1c0.2,0.1,0.5,0.2,0.7,0.4
		c0.1,0,0.2,0.1,0.3,0.1c0.2,0.1,0.4,0.2,0.6,0.3c0.1,0,0.2,0.1,0.3,0.1c0.2,0.1,0.4,0.2,0.5,0.3c0.1,0,0.2,0.1,0.3,0.1
		c0.2,0.1,0.4,0.2,0.5,0.2c0.1,0,0.2,0.1,0.3,0.1c0.2,0.1,0.3,0.1,0.5,0.2c0.1,0,0.2,0.1,0.3,0.1c0.2,0.1,0.3,0.1,0.5,0.2
		c0.1,0,0.2,0.1,0.2,0.1c0.2,0.1,0.4,0.1,0.5,0.2c0.1,0,0.1,0,0.2,0.1c0.2,0.1,0.4,0.1,0.6,0.2c0,0,0.1,0,0.1,0
		c0.5,0.2,0.9,0.3,1.3,0.4c0,0,0,0,0.1,0c0.2,0.1,0.3,0.1,0.5,0.1c0.1,0,0.1,0,0.2,0c0.1,0,0.3,0.1,0.4,0.1c0.1,0,0.1,0,0.2,0
		c0.1,0,0.2,0.1,0.3,0.1c0.1,0,0.1,0,0.2,0c0.1,0,0.2,0,0.3,0.1c0.1,0,0.1,0,0.2,0c0.1,0,0.2,0,0.2,0.1c0.1,0,0.1,0,0.1,0
		c0.1,0,0.1,0,0.2,0c0,0,0.1,0,0.1,0c0.1,0,0.1,0,0.2,0c0,0,0.1,0,0.1,0c0,0,0.1,0,0.1,0c0,0,0.1,0,0.1,0h0
		c-0.1-1.2-0.1-2.4-0.2-3.6c0-0.1,0-0.1,0-0.2c-0.2-3.3-0.3-6.7-0.5-10.1c0,0,0,0,0-0.1c0-0.4,0-0.8-0.1-1.2c0,0,0-0.1,0-0.1
		c0-0.4,0-0.8-0.1-1.2c0-0.1,0-0.1,0-0.2c0-0.4,0-0.8,0-1.1c0-0.1,0-0.1,0-0.2c0-0.4,0-0.8,0-1.2c0,0,0,0,0,0
		c-0.1-2.1-0.2-4.3-0.3-6.4c0-0.1,0-0.1,0-0.2c0-0.4,0-0.7,0-1.1c0-0.1,0-0.2,0-0.3c0-0.3,0-0.7,0-1c0-0.1,0-0.3,0-0.4
		c0-0.3,0-0.6,0-0.9c0-0.1,0-0.2,0-0.3c0-0.4,0-0.7,0-1.1c0-0.1,0-0.2,0-0.2c0-0.4,0-0.7,0-1.1c0-0.1,0-0.3,0-0.4
		c0-1.1-0.1-2.2-0.1-3.4c0,0,0-0.1,0-0.1c0-0.3,0-0.6,0-1c0-0.1,0-0.3,0-0.4c0-0.3,0-0.5,0-0.8c0-0.2,0-0.4,0-0.6c0-0.3,0-0.5,0-0.8
		c0-0.2,0-0.3,0-0.5c0-0.3,0-0.5,0-0.8c0-0.2,0-0.4,0-0.5c0-0.1,0-0.1,0-0.2c-2-1.6-3.7-3.4-5.1-5.6c-6.5-9.8-6.7-25.3-0.2-44.5
		c10.3-30.8,42.6-36.3,60-34.7c6,0.6,10.6,3.1,13.8,5.6c0.7-0.5,1.4-0.8,2.1-0.8C766.3,179.9,757.8,172.9,742.5,171.3z"/>
	<path class="st2" d="M537.2,286.4c-3.2-6.7-6.1-14.9-8.2-23.8c-3.8-15.8-4.7-29.7-4.9-38.9c-0.1-6.2,0.2-10.2,0.3-11.1
		c-4.2-0.5-8.4-1.7-12.4-3.9c-14.9-8.1-50.7-19.9-78.9-6.9c-17,7.9-28.1,23.5-33,46.5c0,0.1,0,0.1,0,0.2
		c-0.4,15.5,10.5,29,15.2,34.1c0.3,0.3,0.4,0.4,0.4,0.5c0.2,0.3,0.1,0.7-0.2,0.9c-0.1,0.1-0.2,0.1-0.4,0.1c-0.2,0-0.4-0.1-0.5-0.2
		c0,0-0.1-0.2-0.3-0.3c-4.7-5.1-15.5-18.5-15.6-34c-8,3.9-69.5,33.7-91.4,47.2c-26.1,16-47.5,35.2-59,45.5
		c-2.4,2.1-16.6,12.6-26.9,10.8c-9-1.5-34.5,0.3-55.6,11.4c-5.7,3-12.3,7.9-19.9,13.6c0.1,2.4,0.1,4.6,0.2,6.9
		c0.3,5.5,1,11,3.2,18.6c1.5,5.5,4.9,10.9,8.1,15.2c2.8,3.7,5.4,6.5,6.6,7.7c21.5-7.1,53.9-17.5,62.7-17.7c0.9,0,1.9,0,2.9-0.1
		c13.5-0.2,30.4-0.5,55.4-15.9c0.1,0,0.1-0.1,0.2-0.1c42.3-7.6,56.4-10.4,100.8-24.9c15-4.9,53-17.7,81.7-30.5
		c0.7-0.3,2.3-0.8,4.7-1.6c8.7-2.8,29.1-9.4,47.9-20.5c5.4-3.2,15.9-8.3,28.3-12.5C544.6,299.3,540.7,293.6,537.2,286.4z"/>
	<path d="M110.3,561.1c4,0,6.3-2.2,6.8-6.5c0.5-4.3-1.3-5.1-3-6c-0.3-0.2-0.6-0.3-1-0.5c-0.9-0.5-1.7-1.3-2.5-2.1
		c-0.9-0.9-1.9-1.9-3.4-2.8c-1.7-1.1-3-3.4-4.9-6.5c-0.8-1.4-1.8-3.1-2.9-4.9c-3.5-5.5-4.5-25.1-4.6-25.3
		c-2.2-21.1-1.1-36.6,3.3-46.1c1.5-3.3,8.6-9.5,12-11.2c16.6-7.8,34-13.5,39-15.1c1.8-0.6,4.7-1.6,8.5-2.8
		c19.9-6.6,61.4-20.4,71.2-20.6c0.9,0,1.9,0,2.9-0.1c13.7-0.2,30.7-0.5,56-16c42.3-7.6,56.4-10.4,100.8-24.9
		c15-4.9,53.1-17.7,81.8-30.5c0.6-0.3,2.3-0.8,4.5-1.5c8.7-2.8,29.2-9.4,48.2-20.6c9-5.3,32-16,54.6-18.4
		c10.4-1.1,21.2,0.7,31.8,2.5c12.2,2,23.7,4,34.5,1.8c3.2-0.7,6.1-1.3,8.9-1.9c9.5-2,17-3.6,28.2-5.1c10.5,10.5,22.4,12.1,22.9,12.1
		c0.4,0,0.7-0.2,0.7-0.6c0-0.4-0.2-0.7-0.6-0.7c-0.1,0-12.1-1.6-22.4-12c-0.1-0.1-0.3-0.2-0.5-0.2c-11.5,1.5-19,3.1-28.7,5.1
		c-2.8,0.6-5.7,1.2-8.9,1.9c-10.6,2.2-22,0.3-34.1-1.8c-10.6-1.8-21.6-3.6-32.1-2.5c-22.8,2.5-46.1,13.2-55.2,18.6
		c-18.8,11.1-39.2,17.7-47.9,20.5c-2.4,0.8-3.9,1.3-4.7,1.6c-28.7,12.8-66.7,25.6-81.7,30.5c-44.3,14.4-58.5,17.3-100.8,24.9
		c-0.1,0-0.2,0-0.2,0.1c-25.1,15.3-41.9,15.6-55.4,15.9c-1,0-1.9,0-2.9,0.1c-10,0.2-51.6,14-71.6,20.7c-3.7,1.2-6.7,2.2-8.4,2.8
		c-5,1.6-22.4,7.4-39.1,15.2c-3.8,1.8-11,8.2-12.7,11.8c-4.5,9.7-5.6,25.5-3.4,46.8c0,0.8,1,20.1,4.8,25.9c1.1,1.8,2.1,3.4,2.9,4.8
		c1.9,3.3,3.3,5.7,5.3,6.9c1.3,0.9,2.3,1.8,3.2,2.6c0.9,0.8,1.7,1.6,2.8,2.3c0.4,0.2,0.7,0.4,1.1,0.5c1.6,0.8,2.7,1.3,2.3,4.7
		c-0.5,3.9-2.5,5.6-6.4,5.3c-3.6-0.3-4.9-2.9-4.9-2.9c-0.2-0.3-0.5-0.5-0.9-0.3c-0.3,0.2-0.5,0.5-0.3,0.9c0.1,0.1,1.6,3.3,5.9,3.6
		C109.7,561.1,110,561.1,110.3,561.1z"/>
	<path class="st2" d="M924.9,212.4c5.2,1.4,8.5,8.7,9.1,13.1c0.4,2.8,0.2,5.7-0.1,8.5c-0.2,2.6,0,5.2-1.6,7.5
		c-0.5,0.7-2.1,0-2.2-0.7c-0.3-1.9,0.5-3,0.9-4.9c0.5-2.5,0.8-5.1,1.1-7.6c0.2-2.7-0.6-8.1-2.4-10.3c-1.5-1.8-2.8-3.4-4.7-4.3
		C924.6,213.5,924.5,212.3,924.9,212.4z"/>
</g>
</svg>
