<?xml version="1.0" encoding="utf-8"?>
<!-- Generator: Adobe Illustrator 22.1.0, SVG Export Plug-In . SVG Version: 6.00 Build 0)  -->
<svg version="1.1" id="Capa_1" xmlns="http://www.w3.org/2000/svg" xmlns:xlink="http://www.w3.org/1999/xlink" x="0px" y="0px"
	 viewBox="0 0 612 612" style="enable-background:new 0 0 612 612;" xml:space="preserve">
<style type="text/css">
	.st0{fill:#AAF1FA;}
	.st1{fill:none;stroke:#3F4749;stroke-width:9;stroke-linecap:round;stroke-linejoin:round;stroke-miterlimit:10;}
</style>
<g id="XMLID_1_">
	
		<image style="overflow:visible;opacity:0.22;" width="612" height="353" xlink:href="C566B4D6F3293153.png"  transform="matrix(1 0 0 1 -2 120)">
	</image>
	<g>
		<g>
			<path id="XMLID_15_" class="st0" d="M381,475.3h-50.1h-30.3h-202c-49.8,0-90.1-41.4-90.1-92.5s34.1-72.5,34.1-72.5
				c15.4-12.5,34.8-20,55.9-20c12.9,0,25.1,2.8,36.1,7.8c0.8-18.4,4.4-36,10.4-52.5l14.5-29.7c16.1-26.4,39-48,66.3-62.2l35.4-13.3
				c12.5-3.1,25.5-4.7,38.8-4.7c76.8,0,141.3,53.7,160,126.4c12.3-5,25.7-7.8,39.6-7.8c59.5,0,107.7,49.5,107.7,110.5
				S559,475.3,499.5,475.3h-88.2H381z"/>
		</g>
	</g>
</g>
<g id="XMLID_47_">
	<path id="XMLID_29_" class="st1" d="M259.2,148.3c12.5-3,25.5-4.6,38.9-4.6c76.9,0,141.6,52.4,160.3,123.4
		c12.3-4.9,25.7-7.6,39.7-7.6c59.6,0,107.9,48.3,107.9,107.9s-48.3,107.9-107.9,107.9h-88.4"/>
	<path id="XMLID_30_" class="st1" d="M157.3,222c16.1-25.8,39.1-46.9,66.4-60.7"/>
	<path id="XMLID_27_" class="st1" d="M40.2,314.2c15.4-12.2,34.9-19.5,56-19.5c12.9,0,25.1,2.7,36.2,7.6c0.8-18,4.4-35.2,10.4-51.3"
		/>
	<path id="XMLID_26_" class="st1" d="M298.7,475.3H96.3C46.4,475.3,6,434.9,6,385"/>
	<line id="XMLID_24_" class="st1" x1="379.3" y1="475.3" x2="329.1" y2="475.3"/>
</g>
</svg>
