<?xml version="1.0" encoding="utf-8"?>
<!-- Generator: Adobe Illustrator 22.1.0, SVG Export Plug-In . SVG Version: 6.00 Build 0)  -->
<svg version="1.1" id="Warstwa_1" xmlns="http://www.w3.org/2000/svg" xmlns:xlink="http://www.w3.org/1999/xlink" x="0px" y="0px"
	 viewBox="0 0 273.3 36.9" style="enable-background:new 0 0 273.3 36.9;" xml:space="preserve">
<style type="text/css">
	.st0{opacity:0.38;fill:#FEE013;}
</style>
<g>
	<path class="st0" d="M158.7,6.1c-4.5,0-8.9,0-13.4,0.1c-10.3,0.2-20.6,0.4-31,0.6C102.8,7,91.3,7.3,79.7,7.6
		C69.8,7.8,59.8,7.8,49.8,8C45.7,8,41.7,8,37.6,8.1c-2,0.7-3.8,1.8-5.5,3.1c-4.1,3-7.9,6.7-11.2,10.5c-1.9,2.1-3.6,4.3-5,6.8
		c-0.3,0.8-0.7,1.6-1,2.4c-0.3,1.3,0.2,1.8,1.5,1.5c12.9,0,25.8-0.2,38.7-0.3c10.4-0.1,20.8-0.3,31.2-0.4c9.6-0.1,19.3-0.2,28.9-0.2
		c10.1-0.1,20.1,0,30.2,0.1c10,0.1,20,0.3,30,0.5c4.3,0.1,8.6,0.3,12.8,0.4c4.4,0.1,8.8,0.3,13.1,0.5c5.1,0.2,10.1,0.5,15.2,0.7
		c3.9,0.2,7.8,0.6,11.6,0.8c0.9,0.3,1.9,0.6,2.8,0.8c1.1,0.3,2.2,0.5,3.3,0.8c1,0.2,1.9,0.4,2.9,0.6c1,0.2,2.1,0.3,3.2,0.3
		c0.7,0,1.3-0.1,2-0.1c2.3-0.8,4.4-2,6.3-3.6c3.1-2.3,6-4.9,8.7-7.7c2.8-2.7,5.3-5.6,7.7-8.7c0.8-1.2,1.6-2.4,2.4-3.6
		c1.1-1.3,1.5-2.8,1-4.3c-0.7-0.7-2-0.6-2.9-0.7c-0.3,0-0.5,0-0.8,0c-0.3,0-0.5,0-0.8,0c-0.7-0.1-1.5-0.1-2.2-0.2
		c-1-0.1-2-0.2-3-0.2c-2.4-0.2-4.8-0.3-7.2-0.5c-4.9-0.2-9.8-0.5-14.7-0.6c-11.4-0.3-22.8-0.5-34.2-0.6C193,6,183.4,6,173.8,6
		c-0.3,0-0.6,0-0.9,0C168.2,6,163.5,6.1,158.7,6.1L158.7,6.1L158.7,6.1z"/>
	<path class="st0" d="M249.3,9.7c-0.4,0-0.8,0-1.2,0c-0.7,0-1.3,0-2,0c-1.4,0-2.8,0-4.2,0c-2.9,0-5.8,0.1-8.6,0.1
		c-4.6,0-9.1,0.2-13.7,0.4c-11.7,0.4-23.3,0.9-34.9,1.4c-9.3,0.4-18.5,0.9-27.8,1.4c-6.7,0.4-13.3,0.8-20,1.1
		c-4.9,0.3-9.8,0.7-14.7,1c-10.6,0.7-21.2,1.6-31.8,2.5c-5.6,0.5-11.3,0.9-16.9,1.3c-4.9,0.4-9.8,0.6-14.7,0.9
		c-2.3,0.1-4.6,0.3-7,0.4c-2.8,0.1-5.7,0.2-8.5,0.3c-5.6,0.2-11.1,0.3-16.7,0.5c-1.4,0-2.9,0.1-4.3,0.1c-2.3,0.1-4.6,0.2-6.9,0.3
		c-1,0.1-2,0.2-2.9,0.3c-1.6,0.3-2.9,1.5-4.2,2.6c-1.1,0.9-2.1,2-2.9,3.1C5.2,28,5,28.3,4.8,28.6c-0.3,0.3-0.4,0.7-0.3,1
		c1.2,0.7,2.4,1.2,3.7,1.7c0.4,0.1,0.7,0,1-0.2c0.9-0.5,1.7-1.2,2.4-1.9c1.2,0,2.4,0.1,3.6,0.1c1.1,0,2.2,0.1,3.3,0.1
		c3.2,0.1,6.3,0.2,9.5,0.4C33,30,38,30.1,43,30.3c2,0.1,3.9,0,5.9,0c3.4,0,6.7,0,10.1,0c4.9,0,9.8-0.2,14.7-0.4
		c9.3-0.3,18.6-0.7,27.9-1c10.3-0.3,20.5-0.6,30.8-0.8c11.2-0.2,22.5-0.3,33.7-0.4c9-0.1,18-0.1,27,0.1c4.9,0.1,9.9,0.1,14.8,0.3
		c2.8,0.1,5.6,0.2,8.4,0.3c2.1,0.1,4.2,0.3,6.3,0.5c1.2,0.1,2.4,0.3,3.7,0.5c0.6,0.1,1.2,0.2,1.8,0.3c0,0,0,0,0,0
		c1.3,0.3,2.5,0.5,3.9,0.6c0.3,0,0.7,0.1,1,0.1c1.7-0.6,3.2-1.5,4.6-2.6c2.2-1.7,4.4-3.6,6.3-5.6c2-2,3.9-4.1,5.6-6.3
		c0.6-0.9,1.2-1.7,1.7-2.6c0.8-1,1.1-2,0.8-3.1c-0.1-0.1-0.2-0.2-0.2-0.3c-0.5-0.1-1-0.2-1.5-0.2C249.8,9.7,249.6,9.7,249.3,9.7
		C249.3,9.7,249.3,9.7,249.3,9.7L249.3,9.7L249.3,9.7z"/>
</g>
</svg>
