<?xml version="1.0" encoding="utf-8"?>
<!-- Generator: Adobe Illustrator 22.1.0, SVG Export Plug-In . SVG Version: 6.00 Build 0)  -->
<svg version="1.1" id="Capa_1" xmlns="http://www.w3.org/2000/svg" xmlns:xlink="http://www.w3.org/1999/xlink" x="0px" y="0px"
	 viewBox="0 0 612 612" style="enable-background:new 0 0 612 612;" xml:space="preserve">
<style type="text/css">
	.st0{fill:#EFE039;}
</style>
<g>
	<g id="_x37__5_">
		<g>
			<path class="st0" d="M84,287.5H28.5c-10.2,0-18.5,8.2-18.5,18.5s8.3,18.5,18.5,18.5H84c10.3,0,18.5-8.3,18.5-18.5
				S94.3,287.5,84,287.5z M306,102.5c10.3,0,18.5-8.3,18.5-18.5V28.5c0-10.2-8.2-18.5-18.5-18.5s-18.5,8.3-18.5,18.5V84
				C287.5,94.3,295.7,102.5,306,102.5z M484,153.9l38.9-38.9c7.2-7.2,7.2-18.8,0-25.9s-18.8-7.2-25.9,0L458.1,128
				c-7.2,7.2-7.2,18.8,0,25.9C465.2,161.1,476.8,161.1,484,153.9z M147.1,439l-38.9,38.9c-7.2,7.2-7.2,18.8,0,25.9
				c7.2,7.2,18.8,7.2,25.9,0l38.9-38.9c7.2-7.2,7.2-18.8,0-25.9C165.8,431.8,154.2,431.8,147.1,439z M135.9,162.1
				c7.3,7.3,19,7.3,26.1,0c7.3-7.3,7.3-19,0-26.1l-39.3-39.3c-7.3-7.3-19-7.3-26.1,0c-7.3,7.3-7.3,19,0,26.1L135.9,162.1z
				 M306,509.5c-10.3,0-18.5,8.3-18.5,18.5v55.5c0,10.3,8.3,18.5,18.5,18.5s18.5-8.3,18.5-18.5V528
				C324.5,517.7,316.3,509.5,306,509.5z M476.1,449.9c-7.3-7.3-19-7.3-26.1,0c-7.3,7.3-7.3,19,0,26.1l39.3,39.3
				c7.3,7.3,19,7.3,26.1,0c7.3-7.3,7.3-19,0-26.1L476.1,449.9z M583.5,287.5H528c-10.3,0-18.5,8.3-18.5,18.5s8.3,18.5,18.5,18.5
				h55.5c10.3,0,18.5-8.3,18.5-18.5S593.7,287.5,583.5,287.5z M306,139.4c-92,0-166.6,74.6-166.6,166.6S214,472.6,306,472.6
				S472.6,398,472.6,306S398,139.4,306,139.4z M306,435.4c-71.5,0-129.4-57.9-129.4-129.4S234.5,176.6,306,176.6
				S435.4,234.5,435.4,306S377.5,435.4,306,435.4z"/>
		</g>
	</g>
</g>
</svg>
