<?xml version="1.0" encoding="utf-8"?>
<!-- Generator: Adobe Illustrator 22.1.0, SVG Export Plug-In . SVG Version: 6.00 Build 0)  -->
<svg version="1.1" id="Layer_1" xmlns="http://www.w3.org/2000/svg" xmlns:xlink="http://www.w3.org/1999/xlink" x="0px" y="0px"
	 viewBox="0 0 329.9 770.1" style="enable-background:new 0 0 329.9 770.1;" xml:space="preserve">
<style type="text/css">
	.st0{fill:#EDF1F2;}
	.st1{fill:none;stroke:#020203;stroke-miterlimit:10;}
	.st2{fill:#020203;}
</style>
<path class="st0" d="M316.7,358.9c2.9-27.5-7.6-103.5-19.4-140.3c-13.6-42.4-39.1-95.1-63.6-131l-0.4-0.6
	c-3.6-5.3-8.5-12.5-14.2-20.2c-11.3-15.3-25.7-32.9-39.6-42.1c-4.9-3.3-10.6-6.1-16.7-8.5c-22-8.4-49.7-10.4-68.9-4
	C78.3,17.4,62,29.4,50.2,44.4c-10.9,13.9-23.4,37.4-21.3,70.8c1.8,27.8,3.7,34.2,14,63.4c3,16,6.7,34.7,10.3,52.9
	c3.7,18.7,7.2,36.3,9.3,47.7c3.4,18.9,9.7,48.4,15.2,74.5c5.8,27.2,10.8,50.6,10.9,54.5c0.1,2.8-2.4,7.1-5.7,12.5
	c-5.2,8.7-12.2,20.6-14.7,36.4c-0.3,2.2-0.6,4.5-0.9,6.9c-11.6,8.2-21.4,15.2-24.8,17.7l-3.4,2.5c-10,7.3-21.4,15.5-24.5,17.5
	c-4.6,2.9-8.9,9.3-5.9,17.9c1.4,4.2,3.7,15.7,6.3,29.1c2.9,15,6.2,32,9.2,42.3c2.9,10.3,11,37.7,23.1,68.8
	c8.4,21.6,21.7,48.3,33.1,66.9c-0.6,1.4-2.8,6.5-1,9.8l0.4,0.7c2.4,4.8,4.7,9.4,19.6,9.6c6.7,0.1,13.5,1.3,18.9,2.3
	c4,0.7,7.5,1.4,10.1,1.4c3,2.3,17.2,4.2,18.7,4.5c0.8,0.4,1.5,0.7,2.3,1.1c3.3,1.7,6.8,3.4,10.7,3.3c1.9,0.9,7.7,3.4,11.7,3.4
	c0.8,0,1.5-0.1,2.1-0.3c0.9-0.3,1.4-0.8,1.8-1.6c0.5-1.1,0.6-2,0.2-2.9c-0.7-1.8-3.2-3.3-8.7-5.7c1.9,0.6,3.6,1,4.6,1
	c3.8,1.1,8.5,2.2,12.1,2.2c1.6,0,3-0.2,3.9-0.8c0.7-0.5,1.2-1.2,1.3-2c0.4-3.2-6.7-5.9-14.4-8.3l-0.8-0.2c-0.3-0.1-0.7-0.2-1.1-0.4
	c2.7,0.4,4.7,0.7,4.7,0.7c1.1,0.2,3.1,1,5.3,1.9c3.8,1.6,7.9,3.3,10.9,3.3c0.9,0,1.6-0.1,2.3-0.5c0.9-0.5,1.4-1.2,1.6-2.3
	c0-0.1,0-0.3,0-0.4c-1.1-2.7-5.2-5.2-9.2-7.2c0.8-0.4,1.6-0.9,2-1.7c0.2-0.5,0.3-1.2-0.2-2.2c-0.5-0.9-1.9-1.7-3.8-2.5
	c3.5,0.8,6.3,1.2,8,1.1c1.5,1.6,4,2.5,7.1,2.5c0.9,0,1.9-0.1,2.9-0.2c0.3,0,0.5-0.1,0.8-0.1c0,0,0.1,0,0.1,0
	c0.1-0.1,3.1-1.3,3.9-3.6c0.2-0.4,0.2-0.9,0.2-1.4c1.4,0.7,2.9,0.9,4.1,0.9c1,0,1.8-0.2,2.2-0.3c0.5-0.2,0.8-0.7,1-1.7
	c0.1-0.6,0.2-1.2,0.2-1.9c0.6,0.1,1.2,0.1,1.7,0.1c1,0,1.9-0.2,2.2-0.3c0.5-0.2,0.8-0.7,1-1.7c0.2-0.8,0.2-1.8,0.1-2.8
	c1.1,0.6,2,1,2.7,1.2c0.3,0.1,0.5,0.1,0.8,0.1c1.6,0,3.3-1.1,4.3-2.4c0.2-0.3,0.4-0.6,0.5-0.8c0.6,0.1,1.2,0.1,1.7,0.2
	c0.5,0,0.9,0,1.3,0c5.9,0,9.6-3,10.2-8.3c0.1-0.8-0.1-1.6-0.5-2.2c0-0.1,0.1-0.2,0.1-0.3c0-0.1-0.2-3.2-1.5-6.7
	c-1.4-3.7-15.6-5.9-18.3-6.3c-0.3-0.1-21.1-4.2-35.5-9.6c0.1-0.2,0.1-0.3,0.1-0.4c0.2-3.7-5.2-6.1-8-6.3c-2.1-0.1-9.9-3.9-12.9-5.9
	c0.2,0.1,0.4,0.1,0.5,0.2c1.7,0.7,4.2,1,6.8,1.3c2.8,0.3,5.7,0.6,8,1.4c1.3,0.4,3.1,0.8,5,1.3c3.5,0.8,7.5,1.6,9,3
	c2.1,1.8,13,8.3,17.7,8.3c0.1,0,0.3,0,0.4,0c0.7-0.1,1.3-0.3,1.7-0.8c0.2-0.2,0.4-0.6,0.3-1.2c-0.3-1.3-2.4-3.5-5.1-5.7
	c1.9,0.7,3.8,1.3,5.2,1.3c0.4,0,0.7,0,1-0.1c0.7-0.2,1-0.6,1.1-0.9c1.2-2.5-2.4-5.2-7.3-7.9c0.3-0.3,0.4-0.7,0.5-1.1
	c0.1-0.7-0.4-1.4-1.3-2.1c-2.4-1.9-14-7.7-15.5-8c-0.9-0.2-5-1-9.3-1.8c-4.7-0.9-10.5-2-11.7-2.3c-3.3-1.1-6.3-2-7.8-1.9
	c-2.3,0.1-6.4-1.2-10.8-2.5c-2.2-0.7-4.5-1.3-6.6-1.9c0,0,0,0-0.1,0c-2.9-6.3-5.5-13.6-6.1-19c-0.9-8-1.1-46.9-0.7-56.8
	c0.2-6.2,0.3-24.6-0.3-31.5c9.8,12.9,22.8,23.3,30,27.6c10.1,5.9,25.2,13.8,41.4,14.5c-0.4,2-1,8.5,4.6,17.3
	c1.5,2.3,3.6,4.4,6.3,6.1c5.9,3.7,13.4,5,20.7,3.7l0,0c0.2,0,0.3,0,0.4-0.1c1.3-0.2,2.5-0.6,3.8-1c0.4,0.2,0.7,0,0.9-0.2
	c1.6-0.5,3.1-1.2,4.5-1.9c13-7,20.7-20.7,17.9-31.9c-1.8-7.3-8.8-14.9-10.1-16.3c12.4-13,19.6-27.8,19.6-40.6
	c0.1-17.4-8.1-58.9-8.1-60.6c-0.3-8.2-0.5-14.7,0.1-19.7c1.2-10,8.2-16.5,8.3-16.6c0,0,0-0.1,0-0.1c3.6-1.2,7-2.8,10-4.9
	c17.2-11.7,22.6-33.6,24.3-48.3c0,0,0.1,0,0.1-0.1c0-0.1,0-0.2,0-0.3C316.9,365.3,316.7,359.6,316.7,358.9z M89.8,677
	c-3.6-14.8-9.8-47.7-10.8-57.8c-0.8-8.3-0.3-29.7,0.5-44.8c0.6,2.8,1.2,5.6,1.8,8.4c0,0.1,0,0.1,0,0.1c5.2,24,10.6,50,12.2,59.6
	C95.1,651.7,93.4,666.8,89.8,677z M178.2,400.3c-0.3,1.2-0.6,2.2-1.1,3.1c-0.1,0.2-0.2,0.3-0.4,0.5c-8.5,3.1-17.8,6.6-26.7,10.4
	c0.2-0.1,0.4-0.2,0.6-0.3c0.6-0.2,1.1-0.5,1.7-0.7c0.7-2.4,2.2-8.1,3.5-15.4c1.5-8,3.2-25.2,3.7-30.5c4.2,4.3,9,9.4,11.7,13.4
	c2.9,4.3,6.4,10.4,8.8,15c0.2-0.3,0.5-0.6,0.8-0.9C179.3,396.5,178.7,398.5,178.2,400.3z"/>
<path class="st1" d="M172.1,574.7c10.1,5.9,25.2,13.8,41.4,14.5c-0.4,2.1-1.1,8.5,4.6,17.3c1.5,2.4,3.7,4.4,6.3,6.1
	c5.9,3.7,13.5,5,20.7,3.8l0,0c0.2,0,0.3,0,0.4-0.1c3.2-0.6,6.3-1.6,9.1-3.2c13.1-7,20.8-20.7,18-31.9c-1.8-7.3-8.8-15-10.1-16.4
	 M263.9,604c0.4-3.7,1-13.8-2.3-21c-3.2-6.8-8.6-11.7-10.9-13.5c1.2-0.4,2.5-0.9,3.7-1.3c0.2,0,0.3-0.1,0.4-0.1
	c0.3-0.1,0.6-0.2,0.9-0.3c1.3,1.6,7.1,8.7,10.3,15c2.8,5.6,1.3,15.6,1.1,17.1C266.2,601.3,265.1,602.7,263.9,604z M256.7,592.8
	c-0.2-0.7-0.5-1.5-0.7-2.3c-1.5-5.1-3.7-12.1-11.8-18.4c0.3-0.1,0.6-0.3,0.8-0.4c1.2-0.5,2.6-1.1,4.1-1.6c1.5,1.2,7.7,6.3,11.2,13.6
	c3.9,8.3,2.1,21.4,2.1,21.5c0,0.1,0,0.3,0.1,0.4c-0.5,0.5-1,1-1.6,1.4C260.2,604.2,258.3,597.6,256.7,592.8z M253.3,603.1
	c-0.7-1.2-1.4-2.5-2.2-4c-0.9-1.6-1.7-3-2.5-4.3c-1.8-3-3-5.2-4.2-7.4c-0.4-0.7-0.7-1.4-1.1-2.2c-1.9-4-3.9-8.1-6.3-9.5
	c0,0-0.1,0-0.1-0.1c2-1,4-2,5.7-2.8c0,0,0,0,0,0c8.3,6.2,10.3,12.8,11.9,18.2c0.2,0.8,0.5,1.6,0.7,2.3c2.1,6.3,4.1,13.5,4.2,14.9
	c-0.7,0.6-1.4,1.1-2.2,1.6C256.1,608.1,254.8,605.9,253.3,603.1z M254.4,611.6c-1.1-0.6-4.9-2.8-10-8.2c-5.6-5.8-7.7-8.4-9.7-11.9
	c-2.3-4.2-4.2-10.4-4.8-12.4c1.7-0.9,3.6-1.9,5.5-2.8c0.1,0.1,0.2,0.2,0.3,0.3c2.1,0.7,4.3,5.2,6.3,9.2c0.4,0.7,0.7,1.5,1.1,2.2
	c1.1,2.3,2.4,4.5,4.2,7.5c0.7,1.3,1.6,2.7,2.5,4.3c0.8,1.4,1.6,2.8,2.2,4c1.6,2.8,2.8,5.1,4.1,6.8
	C255.6,610.9,255,611.2,254.4,611.6z M190.6,547.5c3,2.5,6.3,5.4,9.8,8.4c5.9,5.2,12.1,10.6,17.6,14.4c1.3,0.9,3.1,2.3,5.1,3.7
	c2,1.5,4,2.9,5.5,4c-0.1,0.1-0.2,0.1-0.2,0.2c-1.3,0.7-2.5,1.4-3.4,2c-3-1.1-6.5-2.3-9.7-3.8c-8.2-3.8-28.9-15.2-40.2-25.9
	 M174.1,551.6c11.5,10.8,32.3,22.3,40.6,26.2c2.9,1.3,6,2.5,8.8,3.5l-1,0.7c-0.1,0-0.2,0.1-0.2,0.1c0,0,0,0,0,0l-2.6,1.9
	c-5.4-1.3-21.5-5.1-36.9-14.7c-7.6-4.7-25.9-17.3-33.3-31.1 M233.2,575.8c-1,0.5-2,1-3,1.6c-1.6-1.1-3.9-2.8-6.1-4.5
	c-2-1.5-3.8-2.9-5.1-3.8c-5.4-3.8-11.6-9.1-17.5-14.3c-3.5-3.1-6.8-6-9.9-8.4 M220.3,543.8c4.8,8.8,14.2,27.4,15.8,30.6
	c-0.5,0.3-1.1,0.5-1.6,0.8 M239.8,608.4c-4.7-4.2-10.8-10.9-12.6-15.7c-0.6-1.7-1.3-3.6-1.9-5.3c-0.9-2.6-1.4-3.9-1.6-4.5l1.5-1.1
	c0.8-0.5,2-1.2,3.3-2c0.7,2.3,2.5,8.2,4.8,12.4c2,3.7,4.2,6.2,9.9,12.2c4.3,4.5,7.7,6.9,9.5,7.9c-0.5,0.2-1,0.5-1.5,0.7
	c0,0,0,0-0.1,0C248.4,613.1,244.5,612.6,239.8,608.4z M245.2,614.8c-1-0.2-6.5-1.2-12.7-4.1c-6.6-3.1-10.9-8.3-12.2-14.6
	c-1-5.2-1.7-8.7-1.9-9.4l4.1-2.9c0.4,0.9,0.9,2.6,1.5,4.1c0.6,1.7,1.3,3.6,1.9,5.3c2.4,6.5,11.2,14.7,13,16.3c3.4,3.1,6.4,4.3,9,4.7
	C247,614.5,246.1,614.7,245.2,614.8z M215,589.2c0.2-0.1,0.4-0.2,0.5-0.3l1.6-1.2c0.3,1.4,0.9,4.4,1.8,8.7c1.3,6.8,6,12.3,13,15.6
	c3.4,1.6,6.5,2.6,8.8,3.3c-6,0.1-11.5-1.5-15.5-4c-2.5-1.6-4.5-3.5-5.9-5.6C213.7,596.9,214.7,590.5,215,589.2z M148.1,538.9
	c7.6,14.2,26.2,26.9,33.8,31.7c14.6,9.1,29.7,13.1,36.1,14.6l-3.6,2.6c-16.2-0.4-31.5-8.4-41.7-14.3 M240.1,572.2c0,0.1,0,0.1,0,0.2
	c-0.9,0.4-1.8,0.9-2.7,1.3c-1.6-3.2-11-21.8-15.8-30.6 M243.2,570.7c0,0.1,0,0.1,0,0.2c-0.5,0.2-1.1,0.5-1.7,0.8
	c-0.1-0.5-0.3-1.1-0.4-1.7c-0.1-0.2-0.1-0.4-0.2-0.6c-0.1-0.4-0.2-0.8-0.3-1.2c-0.1-0.3-0.1-0.5-0.2-0.8c-0.1-0.4-0.2-0.7-0.3-1.1
	c-0.1-0.3-0.2-0.6-0.2-0.8c-0.1-0.4-0.2-0.7-0.3-1.1c-0.1-0.3-0.2-0.6-0.3-0.9c-0.1-0.4-0.2-0.7-0.3-1.1c-0.1-0.3-0.2-0.6-0.3-1
	c-0.1-0.3-0.2-0.7-0.3-1.1c-0.1-0.3-0.2-0.7-0.3-1c-0.1-0.3-0.2-0.7-0.3-1c-0.1-0.4-0.2-0.7-0.4-1.1c-0.1-0.3-0.2-0.7-0.3-1
	c-0.1-0.4-0.3-0.8-0.4-1.2c-0.1-0.3-0.2-0.6-0.3-0.9c-0.1-0.4-0.3-0.8-0.4-1.3c-0.1-0.3-0.2-0.6-0.3-0.8c-0.2-0.5-0.3-0.9-0.5-1.4
	c-0.1-0.2-0.1-0.4-0.2-0.6c-1.2-3.4-2.4-6.9-3.8-10.4c0,0,0,0,0-0.1c-0.3-0.7-0.5-1.4-0.8-2c0-0.1,0-0.1-0.1-0.2
	c-0.3-0.7-0.5-1.3-0.8-2c0-0.1-0.1-0.2-0.1-0.2c-0.3-0.7-0.5-1.3-0.8-2c0-0.1-0.1-0.1-0.1-0.2 M246.5,569.5
	c-0.7,0.3-1.3,0.5-1.9,0.8c0-0.4-0.1-1-0.2-1.7c0,0,0,0,0,0c0-0.3-0.1-0.7-0.1-1.1c0,0,0-0.1,0-0.1c0-0.4-0.1-0.8-0.1-1.2
	c0,0,0-0.1,0-0.1c-0.1-0.4-0.1-0.9-0.2-1.4c0,0,0-0.1,0-0.1c-0.1-0.5-0.1-1-0.2-1.6c0,0,0-0.1,0-0.1c-0.1-0.5-0.1-1.1-0.2-1.7
	c0,0,0-0.1,0-0.1c-0.1-0.6-0.2-1.2-0.2-1.9c0,0,0,0,0,0 M250.1,568.2c-0.3,0.1-0.6,0.2-0.9,0.3c-0.2,0-0.3,0.1-0.4,0.2
	c-0.2,0.1-0.5,0.2-0.7,0.3 M262.4,536c-1.5,8.4-7.6,27.8-8.6,30.8c-0.7,0.2-1.4,0.5-2.1,0.7 M266.8,547.8c-3.4,7.9-8,16-9,17.8
	c-0.7,0.2-1.4,0.5-2.2,0.7c1.6-5,6.9-22.2,8.3-30 M261,564.3c-0.1,0.1-0.1,0.2-0.2,0.3c-0.3,0.1-0.7,0.2-1.1,0.3
	c1.7-3.1,5.5-9.9,8.3-16.5 M271.3,581.5c1.2,4.8,0.2,10.2-2.3,15.2c0.3-4,0.5-10.3-1.7-14.5c-3-6-8.3-12.6-10.1-14.9
	c0.3-0.1,0.6-0.2,0.8-0.3c0.2,0,0.4,0,0.6-0.2c1.4-0.4,2.4-0.8,3-1C263.1,567.5,269.7,574.8,271.3,581.5z"/>
<path class="st2" d="M315.8,364.5c2.2-20.9-3.4-70.2-11.4-108.7c0,0,0,0-0.1,0c-3.5-0.4-7-0.8-10.5-1.1c-39.4-3.2-79.6,2-108.4,8.7
	c-11.9,2.7-21.8,5.7-29,8.5c-0.6,16-2.2,53.3-5.2,91.1c0.2,0,0.3,0.1,0.5,0.2c0.1,0.1,1.1,1,2.6,2.4c2.2-4.2,11-8.5,21.7-6.4
	c10.5,2,21.3,25,23.5,29.7c1.2-4.7,1.5-9.4,1.5-13.3c-0.1-0.1-0.2-0.1-0.2-0.2c-3.6-6.3-4.7-12.3-3.4-17.7c0.5-2.3,1.5-4.4,2.9-6.4
	c7.2-10.2,23.9-14.6,32.2-13.2c12.1,2.1,23.5,4.1,43.1,30.9c10.1,13.8,5.6,30.5-2.7,44.6c-5.2,8.8-11.9,16.5-17.6,21.8
	c0.1,0,0.1,0,0.2,0c0.1,0,0.2,0,0.3,0c0.2,0,0.5,0,0.7,0c0.1,0,0.2,0,0.3,0c0.3,0,0.6,0,1,0c0,0,0.1,0,0.1,0c1.1,0,2.4-0.1,3.8-0.2
	c0.1,0,0.1,0,0.2,0c0.4,0,0.7-0.1,1.1-0.1c0.1,0,0.2,0,0.3,0c0.4,0,0.7-0.1,1.1-0.1c0.1,0,0.3,0,0.4,0c0.3,0,0.7-0.1,1-0.1
	c0.2,0,0.3,0,0.5-0.1c0.3,0,0.7-0.1,1-0.1c0.2,0,0.3,0,0.5-0.1c0.4,0,0.7-0.1,1.1-0.1c0.1,0,0.2,0,0.4-0.1c0-0.1,0.1-0.2,0.2-0.3
	c7.7-5.9,14.4-15.2,20.5-28.1c1-2.1,2-4.4,2.9-6.7c3.4-8.2,9.6-14.4,15-17.8c3.1-2,5.9-3.1,7.6-3.1c0.8-7.9,0.6-13.5,0.6-13.7
	C315.8,364.6,315.8,364.5,315.8,364.5z"/>
<path class="st2" d="M139.2,547.5c-0.5-0.8-2.6-4.1-3.8-6.1c-0.1,11.8-0.3,25-0.3,38.2c2,0,3.6-0.7,4.7-2.1
	C139.9,566.9,139.7,549.1,139.2,547.5z"/>
<path class="st2" d="M132.6,514.7l0,3.4c-0.4,31.1-1.1,89.1,0,118.4c0.1,2.5,0.6,7.9,1.1,10.5c0.9,4.6,8.4,18.6,10.1,21.2
	c3.4,5.2,13.6,15,18.4,18.6c10.7,8,32.1,14.3,38.5,15.2c6.8,0.9,9,1.4,13.9,3.4c1.6,0.7,4.8,1.1,8.4,1.6c6.9,1,17.3,2.5,16.9,6.1
	c-0.7,6.3-5.8,7.3-10,7c-0.5,0-1-0.1-1.6-0.2c0.1,0.4,0.1,0.9-0.2,1.4c0.6,0.1,1.2,0.1,1.7,0.2c0.5,0,0.9,0,1.3,0
	c5.9,0,9.6-3,10.2-8.3c0.1-0.8-0.1-1.6-0.5-2.2c-0.1,0.2-0.3,0.4-0.6,0.4c0,0,0,0,0,0c-0.4,0-0.7-0.3-0.7-0.7c0,0,0-0.5-0.1-1.2
	c-3.3-2.2-10-3.2-16.1-4c-3.4-0.5-6.6-1-8.1-1.5c-5-2-7.3-2.6-14.2-3.5c-6.3-0.8-27.2-7.1-37.8-14.9c-4.8-3.5-14.7-13.1-18.1-18.2
	c-1.6-2.5-9.1-16.3-9.9-20.7c-0.5-2.6-1-7.9-1.1-10.3c-0.9-23.7-0.6-66.3-0.3-98.1c-0.6-0.9-1-1.6-1.1-1.7c-0.2-0.3-0.1-0.8,0.2-1
	c0.3-0.2,0.6-0.1,0.9,0.1c0.1-6.4,0.1-12.4,0.2-17.5l0-3.4c0.1-4.1,0.1-8.6,0.2-13.1c0,0,0-0.1,0-0.1c-0.5,0.2-1,0.5-1.4,0.7
	C132.7,506.6,132.7,510.8,132.6,514.7z"/>
<g>
	<path class="st2" d="M5.7,83c-0.6,0.3,0.3,2.5,0.4,2.7c0,0.1,1.5-0.7,1.5-1.1C7.6,84.3,6.3,82.7,5.7,83z"/>
	<path class="st2" d="M128.6,504.2c-0.6,0.2-1.1,0.5-1.6,0.7c-0.8,0.4-1.7,0.7-2.5,1.1c-10,4.2-19.4,7.2-27.6,9.3
		c-0.2,0.1-0.4,0.1-0.6,0.2c-1,0.3-2,0.5-2.9,0.7c-0.1,0-0.3,0.1-0.4,0.1c-0.8,0.2-1.6,0.4-2.4,0.6c-0.3,0.1-0.7,0.1-1,0.2
		c-0.6,0.1-1.1,0.3-1.7,0.4c-0.4,0.1-0.7,0.2-1.1,0.2c-0.5,0.1-1,0.2-1.6,0.3c-0.3,0.1-0.7,0.1-1,0.2c-0.5,0.1-1.1,0.2-1.6,0.3
		c-0.3,0-0.5,0.1-0.8,0.1c-0.8,0.1-1.5,0.3-2.3,0.4c1.7,9.6,0.3,23.3-0.7,34.5c-0.3,3-0.6,5.8-0.8,8.3c-0.1,0.9-0.2,2-0.2,3.2
		c-0.1,1.2-0.2,2.6-0.2,4c0,0,0.1,0.1,0.1,0.1c0,0.1,0.1,0.1,0.1,0.2c0.9,4.2,1.9,8.5,2.8,12.9c2,1.8,7.8,3,13.8,3.6
		c5.1,0.5,10.2,0.7,13.2,0.5l1.1-0.1c3.7-0.2,9.1-0.5,14-1.8c3.9-1,7.4-2.6,9.2-5.2c0,0,0.1-0.1,0.1-0.1c0.1-22.4,0.4-45.2,0.6-61
		l0-3.4c0-4,0.1-8.2,0.2-12.5c0,0,0,0,0,0C131.4,502.9,130,503.5,128.6,504.2z"/>
	<path class="st2" d="M230.6,87l-0.4-0.6c-0.3-0.4-0.6-0.9-0.9-1.4c-0.1-0.2-0.3-0.4-0.4-0.6c-0.2-0.3-0.4-0.6-0.6-0.9
		c-0.2-0.3-0.4-0.5-0.6-0.8c-0.2-0.2-0.3-0.5-0.5-0.7c-0.2-0.3-0.4-0.6-0.7-1c-0.1-0.2-0.3-0.4-0.4-0.6c-0.3-0.4-0.5-0.8-0.8-1.1
		c-0.1-0.2-0.2-0.3-0.4-0.5c-0.3-0.4-0.6-0.8-0.9-1.2c-0.1-0.1-0.2-0.3-0.3-0.4c-0.3-0.5-0.7-0.9-1-1.4c0,0,0-0.1-0.1-0.1
		c-0.6-0.9-1.2-1.7-1.8-2.6c-0.1-0.1-0.1-0.2-0.2-0.2c-0.6-0.9-1.3-1.8-1.9-2.7c0,0-0.1-0.1-0.1-0.1c-11.6-16-27.1-35.6-42-45.5
		C155,10,118.7,4.3,94.4,11.3c-0.8,0.2-1.6,0.5-2.3,0.7c-15.3,5.1-31.4,17-43,31.8c-9.8,12.5-20.9,32.9-21.3,61.3c0,0,0,0,0,0
		c0,0,0,0,0,0c0,0.7,0,1.5,0,2.2c0,0.4,0,0.8,0,1.1c0,0.6,0,1.1,0,1.7c0,0.3,0,0.6,0,1c0,0.9,0.1,1.8,0.1,2.7
		c1.8,27.7,3.7,34.1,13.9,63.2c0,0,0,0.1,0,0.1c3,16,6.7,34.8,10.4,53c3.7,18.7,7.2,36.4,9.3,47.9c3.4,19,9.7,48.5,15.3,74.6
		c5.8,27.3,10.8,50.8,11,54.8c0.1,3.3-2.4,7.5-5.9,13.4c-5.1,8.6-12.1,20.4-14.5,35.9c-0.1,0.8-0.3,1.7-0.4,2.6c0,0.1,0,0.2,0,0.3
		c-0.1,0.9-0.2,1.8-0.3,2.7c0,0,0,0,0,0c0.8-0.5,1.5-1.1,2.3-1.6c1.4-1,2.8-2,4.2-3c1.1-0.8,2.2-1.5,3.3-2.3
		c12.2-8.5,24.8-17.2,33.4-22.7c0.4-0.2,0.8-0.5,1.1-0.7c0.8-0.5,1.6-1,2.4-1.5c0.4-0.2,0.7-0.4,1.1-0.7c0.6-0.3,1.1-0.7,1.6-0.9
		c3.6-2.2,7.9-4.4,12.5-6.6c0.5-0.2,1-0.5,1.6-0.7c3.1-1.5,6.4-3,9.8-4.5c0.6-3.1,1.4-6.5,2-10c0.3-1.7,0.6-3.5,0.9-5.2
		c0.3-1.7,0.5-3.4,0.7-5c5.7-49.1,8.3-111.8,9.1-132.4c1-25.6-4.1-82.1-6.2-99.3c-2.5-20.2-14.4-50.6-14.5-50.9c0-0.1,0-0.1,0-0.2
		c-0.2-0.1-0.3-0.2-0.4-0.5c-2.1-8.3-22.3-21.3-24.2-21.8c-0.3,0-0.6-0.2-0.7-0.5c-0.1-0.4,0.1-0.8,0.5-0.9c0.3-0.1,0.7-0.1,2.3,0.8
		c4.5,2.5,20.5,13.3,23.4,21.4c0,0,0-0.1,0.1-0.1c-0.1,0.1-0.2,0.2-0.2,0.2c-0.3,0.2-0.4,0.7-0.2,1c0.1,0.2,0.4,0.3,0.6,0.3
		c0.1,0,0.3,0,0.4-0.1l0,0c0,0.1,0.1,0.2,0.1,0.3c0,0,0,0.1,0,0.1c0,0.1,0.1,0.2,0.1,0.4c0,0,0,0.1,0,0.1c0.1,0.1,0.1,0.3,0.2,0.5
		c0,0,0,0.1,0,0.1c0.1,0.2,0.1,0.4,0.2,0.6c0,0,0,0.1,0,0.1c0.1,0.2,0.2,0.5,0.3,0.7c0,0,0,0.1,0,0.1c0.1,0.3,0.2,0.6,0.3,0.8
		c0,0.1,0,0.1,0.1,0.2c0.1,0.3,0.2,0.6,0.3,0.9c0,0.1,0.1,0.1,0.1,0.2c0.1,0.3,0.2,0.7,0.4,1c0,0.1,0.1,0.1,0.1,0.2
		c0.1,0.3,0.3,0.7,0.4,1.1c0,0.1,0.1,0.2,0.1,0.3c0.1,0.4,0.3,0.7,0.4,1.1c0,0.1,0.1,0.2,0.1,0.3c0.1,0.4,0.3,0.8,0.4,1.2
		c0,0.1,0.1,0.2,0.1,0.3c0.1,0.4,0.3,0.8,0.4,1.3c0,0.1,0.1,0.2,0.1,0.3c0.2,0.4,0.3,0.9,0.5,1.4c0,0.1,0.1,0.2,0.1,0.3
		c0.2,0.5,0.3,0.9,0.5,1.4c0,0.1,0.1,0.2,0.1,0.3c0.2,0.5,0.3,1,0.5,1.5c0,0.1,0.1,0.2,0.1,0.3c0.2,0.5,0.3,1,0.5,1.6
		c0,0.1,0.1,0.2,0.1,0.3c0.2,0.5,0.4,1.1,0.5,1.7c0,0.1,0,0.2,0.1,0.2c0,0.1,0.1,0.2,0.1,0.3c4.6-0.9,8.8-1.8,12.6-2.6
		c18.4-3.9,27.9-6.7,36.8-9.7c12.4-4.3,24.1-8.9,37.6-19.2c2.8-2.2,5.7-4.6,8.7-7.3C234.6,93.1,232.6,90,230.6,87z M134.5,106.9
		c0,0.1,0,0.1,0,0.2C134.5,107,134.5,107,134.5,106.9z M134.4,107.6c0,0.1,0,0.2-0.1,0.2C134.3,107.8,134.4,107.7,134.4,107.6z
		 M134.2,108.3c0,0.1,0,0.2-0.1,0.2C134.2,108.4,134.2,108.3,134.2,108.3z M134.1,108.9c0,0.1,0,0.1-0.1,0.2
		C134,109,134,108.9,134.1,108.9z M133.9,109.4c0,0.1,0,0.1-0.1,0.2C133.9,109.5,133.9,109.5,133.9,109.4z M84.4,446.6
		C84.4,446.6,84.4,446.6,84.4,446.6C84.4,446.6,84.4,446.6,84.4,446.6c6.4-4.9,12.9-9.6,19.9-13.9C97.4,437,90.8,441.7,84.4,446.6z
		 M132.9,112.1c0,0,0,0.1-0.1,0.1C132.8,112.2,132.9,112.2,132.9,112.1z M133.8,109.9c0,0.1,0,0.1,0,0.2
		C133.7,110,133.7,110,133.8,109.9z M133.6,110.4c0,0,0,0.1,0,0.1C133.6,110.5,133.6,110.4,133.6,110.4z M133.4,110.9
		c0,0,0,0.1-0.1,0.1C133.4,111,133.4,110.9,133.4,110.9z M133.3,111.2c0,0.1,0,0.1-0.1,0.2C133.3,111.3,133.3,111.3,133.3,111.2z
		 M133.2,111.5c0,0,0,0.1-0.1,0.1C133.1,111.6,133.2,111.5,133.2,111.5z M133.1,111.7c0,0,0,0.1-0.1,0.1
		C133,111.8,133.1,111.8,133.1,111.7z M133,111.9c0,0,0,0.1-0.1,0.1C132.9,112,132.9,112,133,111.9z"/>
	<path class="st2" d="M157.4,364.4c-0.1-0.1-0.3-0.2-0.4-0.2c-0.4,0-0.8,0.3-0.8,0.7c0,0,0,0.1,0,0.4c-0.3,2.9-2.2,22.8-3.8,31.6
		c-1.7,9-3.6,15.5-3.8,16.4c0.6-0.2,1.1-0.5,1.7-0.7c0.7-2.4,2.2-8.1,3.5-15.5c1.5-8,3.2-25.3,3.7-30.5c0.1-1,0.1-1.5,0.2-1.6
		C157.6,364.8,157.6,364.7,157.4,364.4C157.4,364.5,157.4,364.5,157.4,364.4z"/>
</g>
<path class="st2" d="M264.1,403.4c-0.1-0.1-0.2-0.2-0.3-0.3c-0.4-0.1-0.8,0.1-0.9,0.5c-0.1,0.2-8.7,24.7-21.7,37
	c-10,9.5-33.6,31.8-66.3,32.8c-0.4,0-0.7,0.3-0.7,0.7c0,0.4,0.3,0.7,0.7,0.7c0,0,0,0,0,0c0.2,0,0.4,0,0.6,0c0.4-0.4,0.8-0.7,1.3-1.1
	c0.3-0.3,0.8-0.2,1,0.1c0.2,0.3,0.2,0.6,0,0.9c31.8-2.2,54.5-23.7,64.4-33c11.8-11.2,19.9-32,21.7-36.6c0.2-0.6,0.3-0.9,0.4-1
	C264.3,403.8,264.2,403.6,264.1,403.4z"/>
<path class="st2" d="M177.8,473.8c-0.3-0.3-0.7-0.3-1-0.1c-0.4,0.4-0.8,0.7-1.3,1.1c-34.2,28.9-72.8,39-93.2,42.4
	c0,0.1,0.1,0.3,0.1,0.4c0.1,0.3,0.1,0.7,0.2,1c20.8-3.5,60.3-13.8,95.1-43.8c0.1,0,0.1-0.1,0.1-0.2C178,474.4,178,474.1,177.8,473.8
	z"/>
<path class="st2" d="M102.1,708c-0.2-0.8,0.4-0.4,0.4-0.4c0.3-0.3,1-0.1,1.4-0.4C98.2,699,94,687.2,92.2,682
	c-3.1-9.2-11.1-51.7-12.3-63.4c-1.1-11.1,0.3-45.6,1.2-57.2c0.2-2.5,0.5-5.3,0.8-8.3c1.1-11.1,2.4-24.9,0.7-34.5
	c-0.1-0.3-0.1-0.7-0.2-1c0-0.1-0.1-0.3-0.1-0.4c-2.6-11.8-10.4-17.4-10.8-17.6c-0.3-0.2-0.8-0.2-1,0.2c-0.2,0.3-0.2,0.8,0.2,1
	c0.1,0.1,7.9,5.7,10.3,17.1c1.9,9.4,0.5,23.6-0.6,35.1c-0.3,3-0.6,5.8-0.8,8.3c-0.9,11.6-2.4,46.3-1.2,57.4
	c1.2,11.8,9.3,54.5,12.4,63.8C93,689,96.6,700,102.1,708z"/>
<path class="st2" d="M202.2,359c-0.1-0.4-0.5-0.7-0.9-0.6c-0.4,0.1-0.7,0.5-0.6,0.9c0.1,0.3,5.9,31.8-14.7,40.5
	c-0.4,0.2-0.8,0.3-1.3,0.5c-21,7.5-49.4,18.4-65.7,28.1c-16.2,9.6-67.1,46-75.8,52.3l-3.4,2.5c-10.1,7.3-21.5,15.6-24.6,17.5
	c-4.6,2.9-8.9,9.3-5.9,18c1.4,4.2,3.7,15.8,6.3,29.1c2.9,15,6.3,32.1,9.2,42.4c2.9,10.3,11.1,37.8,23.1,68.9
	c8.6,22.2,22.4,49.8,34,68.4c0.3-0.4,0.6-0.8,1-1.2c-2.1-3.3-4.2-7-6.4-10.8l0,0c-0.4-0.7-0.8-1.4-1.2-2.2c0,0,0,0,0,0
	c-0.4-0.7-0.8-1.5-1.2-2.2c0,0,0,0,0-0.1c-0.4-0.7-0.8-1.5-1.2-2.2c0,0,0-0.1-0.1-0.1c-0.4-0.7-0.8-1.5-1.2-2.2c0,0-0.1-0.1-0.1-0.1
	c-0.4-0.7-0.8-1.4-1.2-2.2c0-0.1-0.1-0.1-0.1-0.2c-0.4-0.7-0.7-1.4-1.1-2.1c-0.1-0.1-0.1-0.2-0.2-0.3c-0.4-0.7-0.7-1.4-1.1-2.1
	c-0.1-0.1-0.1-0.2-0.2-0.3c-0.4-0.7-0.7-1.4-1.1-2.1c-0.1-0.1-0.1-0.3-0.2-0.4c-0.3-0.7-0.7-1.3-1-2c-0.1-0.1-0.1-0.3-0.2-0.5
	c-0.3-0.7-0.7-1.3-1-2c-0.1-0.2-0.2-0.4-0.3-0.5c-0.3-0.6-0.6-1.3-0.9-1.9c-0.1-0.2-0.2-0.4-0.3-0.7c-0.3-0.6-0.6-1.2-0.9-1.8
	c-0.1-0.2-0.2-0.5-0.3-0.7c-0.3-0.6-0.6-1.2-0.8-1.7c-0.1-0.3-0.2-0.5-0.4-0.8c-0.3-0.6-0.5-1.1-0.8-1.7c-0.1-0.3-0.3-0.5-0.4-0.8
	c-0.3-0.5-0.5-1.1-0.8-1.6c-0.1-0.3-0.3-0.6-0.4-0.9c-0.2-0.5-0.5-1-0.7-1.5c-0.2-0.3-0.3-0.7-0.5-1c-0.2-0.5-0.4-1-0.6-1.4
	c-0.2-0.3-0.3-0.7-0.5-1c-0.2-0.5-0.4-0.9-0.6-1.4c-0.2-0.4-0.3-0.7-0.5-1.1c-0.2-0.4-0.4-0.9-0.6-1.3c-0.2-0.4-0.3-0.8-0.5-1.2
	c-0.2-0.4-0.3-0.8-0.5-1.2c-0.2-0.4-0.4-0.9-0.6-1.3c-0.1-0.3-0.3-0.7-0.4-1c-0.2-0.5-0.4-0.9-0.6-1.4c-0.1-0.3-0.3-0.7-0.4-1
	c-0.2-0.5-0.4-0.9-0.6-1.4c-0.1-0.3-0.2-0.6-0.4-0.9c-0.3-0.8-0.6-1.5-0.9-2.3c-12.1-31.1-20.2-58.4-23.1-68.8
	c-2.9-10.2-6.2-27.2-9.1-42.3c-2.6-13.4-4.9-25-6.3-29.3c-3.4-10.1,3.8-15.3,5.3-16.3c3.1-2,14.5-10.2,24.6-17.6l3.4-2.5
	c8.7-6.3,59.6-42.7,75.7-52.2c16.2-9.6,44.5-20.5,65.4-28c5.7-2,9.6-5.6,12.3-9.8C205.8,378.7,202.3,359.2,202.2,359z"/>
<path class="st2" d="M159.5,750.1c-0.4-0.1-0.6-0.5-0.5-0.9c0.1-0.4,0.5-0.6,0.9-0.5c-1.4-0.7-2.9-1.2-5.3-2
	c-5.3-2.4-11.2-3.7-12.2-3.9c-0.8-0.5-5.2-3.2-8.2-3c-0.4,0-0.7,0.4-0.7,0.8c0,0.4,0.4,0.7,0.8,0.7c2.2-0.2,6.1,2,7.4,2.8
	c0.1,0.1,0.2,0.1,0.3,0.1c0.1,0,6.4,1.2,12,3.8c0,0,0.1,0,0.1,0c3.5,1,5,1.8,7.1,2.9c1.3,0.7,2.9,1.5,5.4,2.5c5.9,2.6,9,4.2,9.6,5.7
	c0.2,0.5,0.1,1-0.2,1.8c-0.2,0.4-0.5,0.6-0.9,0.8c-2.8,1-9.8-1.6-12.8-3.1c-0.1-0.1-0.2-0.1-0.4-0.1c-3.6,0.2-6.8-1.5-10.2-3.2
	c-0.8-0.4-1.6-0.8-2.4-1.2c-0.1,0-0.1-0.1-0.2-0.1c-8-1.1-17-3-18.3-4.3c-0.1-0.1-0.3-0.2-0.5-0.2c-2.5,0-6-0.6-10.1-1.4
	c-5.5-1-12.3-2.2-19.2-2.3c-14-0.2-16-4.2-18.3-8.8l-0.4-0.8c-1.2-2.4,0-6.1,0.8-7.9c0.3-0.6,0.4-1,0.4-1c0.2-0.4,0-0.8-0.3-1
	c0,0,0,0,0,0c-0.3-0.2-0.8,0-0.9,0.3c-0.1,0.3-3.2,6.3-1.2,10.2l0.4,0.8c2.4,4.8,4.7,9.4,19.6,9.6c6.8,0.1,13.5,1.3,18.9,2.3
	c4,0.7,7.5,1.4,10.1,1.4c3,2.3,17.2,4.3,18.8,4.5c0.8,0.4,1.5,0.7,2.3,1.1c3.3,1.7,6.8,3.5,10.7,3.3c1.9,0.9,7.7,3.4,11.7,3.4
	c0.8,0,1.5-0.1,2.1-0.3c0.9-0.3,1.4-0.8,1.8-1.6c0.5-1.1,0.6-2,0.2-2.9c-0.7-1.8-3.2-3.3-8.7-5.7c-1.1-0.3-2.3-0.7-3.6-1.1
	C163.1,751.2,161,750.5,159.5,750.1z"/>
<path class="st2" d="M167.7,742.6c0.1-0.4,0.4-0.7,0.8-0.6c0,0,0,0,0,0c-3.6-1.5-7.7-3.2-9.7-3.8c-2.1-0.6-4.7-1.1-7-1.5
	c-2.5-0.5-5.3-1-5.9-1.4c-0.1-0.1-0.3-0.2-0.5-0.4c-1.5-1.2-4-3.1-6.8-3.4c-0.4,0-0.8,0.3-0.8,0.7c0,0.4,0.3,0.8,0.7,0.8
	c2.4,0.2,4.7,2,6,3.1c0.2,0.1,0.4,0.3,0.5,0.4c0.8,0.6,2.9,1,6.5,1.7c2.3,0.4,4.9,0.9,6.9,1.5c2.1,0.6,6.3,2.3,10,3.9
	c2.9,1.2,5.3,2.2,6.5,2.6l0.8,0.2c11.4,3.6,13.6,5.6,13.4,6.8c-0.1,0.4-0.3,0.8-0.6,1c-1.8,1.2-6.8,0.7-14.9-1.6c-0.1,0-0.1,0-0.2,0
	c-1.3,0-4.8-1.1-7.8-2.1c-2.1-0.7-4.2-1.3-5.8-1.7c0,0,0,0,0,0c-0.4-0.1-0.8,0.1-0.9,0.5c-0.1,0.4,0.1,0.8,0.5,0.9
	c1.5,0.4,3.7,1.1,5.7,1.7c1.2,0.4,2.5,0.8,3.6,1.1c1.9,0.6,3.6,1,4.6,1c3.8,1.1,8.5,2.2,12.1,2.2c1.6,0,3-0.2,3.9-0.8
	c0.7-0.5,1.2-1.2,1.3-2c0.4-3.3-6.7-5.9-14.4-8.4l-0.8-0.2c-0.3-0.1-0.7-0.2-1.2-0.4c-1.8-0.3-3.9-0.6-5.9-0.9
	C167.9,743.4,167.6,743,167.7,742.6z"/>
<path class="st2" d="M187.7,739c0.1,0,0.2,0,0.3-0.1c-3.9-1.8-7.4-2.9-7.5-3c-3-1-5.9-1.8-8.5-2.6c-3.4-1-6.1-1.8-7.8-2.5
	c-2.5-1-5.4-1.9-8.1-2.6c-2.2-0.6-4.9-1.4-5.3-1.8c-1.1-1.3-7-3-8.6-3.2c-0.4,0-0.8,0.3-0.8,0.7c0,0.4,0.3,0.8,0.7,0.8
	c1.7,0.1,7,1.9,7.6,2.7c0.6,0.7,2.4,1.2,6,2.3c2.6,0.7,5.5,1.6,7.9,2.6c1.7,0.7,4.4,1.5,7.9,2.5c2.5,0.7,5.4,1.6,8.4,2.5
	c1.3,0.4,4.2,1.5,7.3,2.9c-0.1-0.1-0.2-0.2-0.2-0.4C187.1,739.5,187.4,739.1,187.7,739z"/>
<path class="st2" d="M187.9,740.5C187.9,740.5,187.9,740.5,187.9,740.5c4.2,1.9,8.6,4.5,9.8,6.9c-0.1,0.5-0.4,0.9-0.8,1.1
	c-2.2,1.2-7.9-1.2-12-2.9c-2.4-1-4.4-1.8-5.7-2c-0.1,0-5.5-0.8-10.7-1.6c0,0,0,0,0,0c-0.4-0.1-0.8,0.2-0.8,0.6
	c-0.1,0.4,0.2,0.8,0.6,0.8c2,0.3,4.2,0.6,5.9,0.9c2.7,0.4,4.7,0.7,4.7,0.7c1.1,0.2,3.2,1,5.3,1.9c3.8,1.6,8,3.3,11,3.3
	c0.9,0,1.6-0.1,2.3-0.5c0.9-0.5,1.4-1.2,1.6-2.3c0-0.1,0-0.3,0-0.4c-1.1-2.7-5.2-5.2-9.2-7.2c-0.9,0.4-1.7,0.6-1.9,0.6
	C188,740.5,187.9,740.5,187.9,740.5z"/>
<path class="st2" d="M161.1,718.2c0,0-0.1-0.1-0.1-0.1c-7.4-3.6-16.8-7.8-23.5-8c-4.1-0.1-12.5-1-18.6-1.6c-3.3-0.3-5.9-0.6-6.8-0.7
	c-7.1-0.4-8.6-0.5-8.6-0.5c-0.2,0-0.4,0.1-0.6,0.2c-0.5,0.5-3.1,3.2-5.5,5.5c-1.8,1.8-3.4,3.5-3.6,3.8c-0.3,0.3-0.2,0.8,0.1,1
	c0,0,0.1,0,0.1,0.1c0.3,0.2,0.7,0.1,0.9-0.2c0.3-0.4,5.2-5.2,8.8-9c0.7,0,2.9,0.2,8.3,0.4c0.9,0,3.5,0.3,6.7,0.6
	c6.2,0.6,14.6,1.5,18.7,1.6c6.4,0.2,16.1,4.5,22.8,7.8c2,1.6,4.7,4.2,5.7,5.9c0.2,0.3,0.3,0.6,0.4,0.8c0.5,0.1,1,0.2,1.5,0.4
	c0-0.2,0-0.4-0.1-0.6C167.2,723.1,162.2,719,161.1,718.2z"/>
<path class="st2" d="M180.3,499.4c-5.1,3.2-13.6,0.3-17.7-2.6c-2.6-1.8-4.8-4.2-6.9-6.6c-1.9-2.1,4.3,0.8,6.2,2.9
	c2,2.3,7.1,5.7,10.3,5.8c2.6,0.1,4.9,0.4,7.1-0.5C179.7,498.3,180.7,499.2,180.3,499.4z"/>
</svg>
