<?xml version="1.0" encoding="utf-8"?>
<!-- Generator: Adobe Illustrator 22.1.0, SVG Export Plug-In . SVG Version: 6.00 Build 0)  -->
<svg version="1.1" id="Layer_1" xmlns="http://www.w3.org/2000/svg" xmlns:xlink="http://www.w3.org/1999/xlink" x="0px" y="0px"
	 viewBox="0 0 1004.5 623.9" style="enable-background:new 0 0 1004.5 623.9;" xml:space="preserve">
<style type="text/css">
	.st0{fill:#EDF1F2;}
	.st1{fill:#020203;}
	.st2{fill:none;stroke:#020203;stroke-miterlimit:10;}
</style>
<path class="st0" d="M961.6,592.4c-1.7-1.7-3.4-3.1-5.1-4.3c0-0.1,0-0.2,0-0.3c-2.9-5.8-15.4-11.1-21.1-12.8c-3-0.9-6.7-1.1-10.8-1
	c0.1-0.3-0.1-0.6-0.4-0.7c-0.5-0.2-13.2-5.4-20.4-5.9c-5.8-0.4-13.9,1.9-19.3,3.4c-1.3,0.4-2.5,0.7-3.4,0.9c-3.1,0.8-4.9,0.9-5.8,1
	c-4.3-0.6-8.3-1.4-9.7-1.6c0.3-3.1,1.6-17.4,2.8-29c1.8,0,8.6-0.1,11.1-0.7c0.7-0.2,1.6-0.2,2.5-0.3c2.7-0.2,5.8-0.5,6.6-3.2
	c0.1-0.2,0-0.4,0-0.6c4.9,0,8.5,0.1,9.9,0.3c1.1,0.2,3.4,1,5.5,1.8c2.9,1,5.5,2,6.7,2c1.5,0,5.3-0.9,5.9-2.7
	c0.1-0.4,0.2-1.2-0.8-2.1c-1-0.8-2.2-1.5-3.4-2.2c1.2,0.3,2.4,0.7,3.6,1.1c3,1.8,7.8,3.3,11.1,3.3c1,0,1.8-0.1,2.4-0.4
	c0.6-0.3,1-0.9,1-1.5c0-0.4,0-1-2-2.6c1.2,0,2.3-0.3,2.8-1c0.2-0.3,0.6-1-0.2-2c-1.1-1.4-5.1-3.8-8.5-5.8c0-0.2,0-0.3,0-0.5
	c-1.8-3.5-9.3-7.3-12.8-8.3c-3.8-1.1-16.4-3.2-22.1-3.4c-4.9-0.1-13.8-1-15.8-1.3c1.9-15.9,4.4-35.4,6-45.4
	c2.3-14.3,3.8-49.3-0.9-61.2c-2-5.1-3.9-8-5.5-10.6c-2.4-3.8-4.3-6.7-5.3-14.6c-1.3-10.9-0.8-23.9-0.3-36.4c0.2-4.7,0.4-9,0.4-13.3
	c0,0,0,0,0,0c0.1-0.1,7.6-8.9,11.8-14.5c3.2-4.3,9.8-14.1,10.4-15c2.9,0,6-0.6,8.8-2.3c7.3-4.3,11.9-9.3,14-22.2
	c2.1-13.3-4.8-23.1-8.8-29c-0.6-0.8-1.1-1.5-1.5-2.2c-3.8-5.9-11.3-17.7-15-24.4c-1-1.9-2.4-4.3-3.9-6.9c-3.5-6.1-8.9-15.3-8.8-17
	c0.2-2.6-0.8-9.8-1.7-12.5c-0.9-2.5-3.8-6.5-4.2-7c-2.1-4.3-2.4-10-0.9-18.5c1.5-8.7-0.4-20.2-2.8-27.2c-0.8-2.4-2.1-5.3-3.4-8.4
	c-2.5-5.7-5.3-12.1-5.6-16.6c-0.4-5.4,3.7-16.5,5.3-20.6c0.7-1.8,0.7-2,0.7-2.2c0.2-0.3,0.5-0.7,0.7-1c2.6-4.4,3.7-8.7,2.4-11.7
	c-1.4-3.3-4.1-3.9-6.4-4.4c-1.1-0.2-2.1-0.5-2.9-0.9c-2.4-1.3-2.9-2.4-3.5-3.9c0-0.1-0.2-0.6-0.2-0.8c0-0.4-0.1-0.9-0.3-1.2
	c-1.7-4.1-4.8-4-6.2-3.7c-0.5-2.7-3.7-3.5-3.8-3.6c0,0-0.1,0-0.1,0l-5.3-0.4l0.5-3.1c0.7-2,0.4-4.4-0.7-6.5c-1-1.9-2.5-3.2-4.1-3.7
	c-4.5-1.2-5.8-0.9-10.7,0.2c-1.1,0.3-2.4,0.6-4,0.9c-3.5,0.7-7.5,1.5-11.5,1.1c-2.1-0.2-4-1.7-6.1-3.4c-0.7-0.6-1.5-1.1-2.2-1.7
	c-15.2-10.7-26.7-13-40.8-11.6c-0.5-0.4-1.3-0.4-1.9,0.1c0,0,0,0.1-0.1,0.1c-2.5,0.3-5,0.7-7.7,1.1c-21.7,3.9-42.2,29.6-48.2,40.7
	c-5.1,9.4-11.8,23.5-11.8,38.4c-1.9-0.3-7.8-0.7-15.6,4.8c-2.1,1.5-3.9,3.5-5.3,6c-3.2,5.5-4.1,12.5-2.7,19.1l0,0
	c0,0.1,0,0.3,0.1,0.4c0.3,1.2,0.6,2.3,1,3.4c-0.1,0.3,0,0.6,0.2,0.8c0.5,1.4,1.2,2.8,1.9,4.1c6.8,11.7,19.6,18.3,29.8,15.3
	c6.6-1.9,13.4-8.6,14.6-9.8c12.4,10.9,26.1,17,37.9,16.6c8.9-0.3,16.9-1.9,23-3.4c-2.4,2.1-5.8,5.8-7.9,10.4
	c-2.7,6.1-2.7,13.9-2.8,22.9c0,1.1,0,2.2,0,3.3c-0.4,23.1-6.3,58.1-13.7,70.4l-0.7,1.1c-12,19.9-37,61.2-56,64.1
	c-23.8,3.6-37,2.8-45.7,2.3l-0.8-0.1c-13.5-0.8-35,5-47.6,16.2c-10.1,9-18.5,22.9-15.8,37.8c-0.7,0.3-49.6,19.6-69.1,28.2
	c-15.1,6.6-30.4,15.4-45.1,23.9c-24.2,13.9-47.1,27.1-61.6,25.3c-5.9-0.7-13.2-2.4-21-4.1c-13-2.9-27.8-6.2-40.4-6.4
	c-9.1-0.1-19.8,0.6-30,2c0,0,0,0,0,0c-0.1,0-0.3,0-0.4,0.1c0,0,0,0,0,0c-11.2,1.5-21.6,3.8-28.5,6.4c-3.6,1.4-9,3.8-15.4,6.6
	c-15.4,6.8-36.5,16.1-46.5,17.2c-9.6,1-16.3-7.4-21.6-14.1c-2.2-2.8-4.3-5.4-6.3-7.1c-3.3-2.6-7.5-3.7-12-3.1
	c-5,0.7-9.6,3.5-12.7,7.7c-5.5,1.1-12.6,5.8-22.6,17.7c-14.6,17.4-28.2,20.5-38.1,22.8c-2.8,0.6-5.2,1.2-7.3,2
	c-8.3,3.3-19.2,14.1-20.9,15.8c-0.9-0.1-3.7-0.2-5.5-0.1c-2.1,0.1-7.9,1.9-9.6,3c-0.9,0.1-4.2,0.3-5.4,1.3c-0.3,0.3-0.7,0.7-1,1.2
	c0,0-0.1,0-0.1,0c-0.3,0.1-3.3,1-4.3,1.8c-0.4,0.3-0.8,0.9-1.1,1.5c0,0,0,0,0,0c-0.5,0.1-4.9,1.1-5.1,3.6c-0.3,3.6,2.9,7.1,6.8,7.5
	c0.4,0,0.8,0.1,1.2,0.1c2.8,0,6.3-0.9,9.6-1.7c2-0.5,3.9-1,5.6-1.2c0,0,0.1,0,0.5,0c1.1,0,3.9,0.1,9.6,0.8
	c4.8,0.6,13.9-1.1,23.5-2.9c6.4-1.2,13-2.4,17.9-2.8c4.7-0.4,9.9,0.4,15.9,1.3c9.5,1.4,21.4,3.2,35.8,0.3c8.5-1.7,17.1-4.1,24-6
	c5.9-1.6,10.5-2.9,12.6-3.1c1.3-0.1,10.1,0.1,22.2,0.5c20.5,0.6,50,1.4,73.6,1.4c0,0,0,0,0,0h0.7c0,0,0,0,0,0
	c11.8,0,22-0.2,28.8-0.8c5.4-0.5,10.7-1,15.9-1.5c18.9-1.9,35.3-3.6,41.7,0.7c24,16.5,57.7,6,71.2,0.7c23-2.8,94.8-17.2,118-24
	c23.7-7,64.9-23.3,75.1-28c9.8-4.6,19.6-10.4,32-18.8c7.8-5.4,37.4-27.4,61.2-45c12.1-9,22.6-16.8,26.5-19.6
	c9-6.5,24.2-17.5,34.8-25c0.2,5.4,0.4,16.7-1.2,25.1c-1.8,9.7-0.4,27.1,0.5,38.6c0.1,1.5,0.2,2.9,0.3,4.2c0.6,7.4,2.2,19.6,3.6,30.3
	c0.7,5.4,1.4,10.4,1.9,14.2c1.4,11.3,5.5,37,6.5,40.6c0.9,3.3,6.1,3.7,8.2,3.7c0.2,0,0.4,0,0.5,0c0.5,11,1,21.5,1.5,28.9
	c0.5,6.8,3.4,34.7,7.8,36.1c3.3,1,19.6,3.5,23,3.9c10.2,1.1,24.1-0.9,26.9-1.3c4.9,0.1,12.2-1.1,21.7-3.3c0.4-0.1,0.6-0.1,0.7-0.2
	c2.9,0.5,6,2.3,9.3,4.2c4.3,2.5,8.8,5.1,13.9,5.5c0,0,0.1,0,0.1,0c0.9,0,3.6-0.5,4.6-1.7c0.5-0.5,0.5-1,0.4-1.4
	c-0.3-1.6-3-3.4-6.1-5.4c-0.4-0.3-0.8-0.5-1.2-0.8c-0.7-0.4-1.6-1-2.7-1.8c-0.7-0.5-1.5-1-2.2-1.5c4.2,1.7,9.5,3.8,11.5,4.9
	c1.2,0.7,3.2,1,5.1,1c2,0,4-0.4,4.7-1.3c0.2-0.3,0.7-1.1-0.1-2.2c-0.9-1.2-2.6-2.6-4.9-4.3c2.9,1.1,6.5,2.4,8.8,3
	c0.8,0.2,1.6,0.3,2.2,0.3c1.9,0,3.1-0.8,3.6-1.6C962.1,593.6,962.1,592.9,961.6,592.4z"/>
<path d="M864.2,267.9c0.2,0,0.3-0.1,0.5-0.2c6.7-6.9,6.9-14.1,7.2-33.1l0.1-3.8c0.5-24.1-3.1-39.2-5.8-48.5
	c-3.6-12.1-9.6-24.3-27.6-23.1c-1.6,0.1-9.6-2.9-13-4.7c-0.3-0.2-0.7-0.1-0.9,0.3c-0.2,0.3-0.1,0.7,0.3,0.9c3.4,1.8,11.7,5,13.7,4.9
	c17.1-1.1,22.8,10.5,26.2,22.1c2.7,9.2,6.2,24.2,5.8,48.1l-0.1,3.8c-0.4,19.2-0.5,25.7-6.9,32.2c-0.3,0.3-0.3,0.7,0,0.9
	C863.9,267.8,864.1,267.9,864.2,267.9z"/>
<path d="M935.9,607.4c0.9,0,3.6-0.5,4.6-1.7c0.5-0.5,0.5-1,0.4-1.4c-0.3-1.6-3-3.4-6.1-5.4c-0.4-0.3-0.8-0.5-1.2-0.8
	c-0.7-0.4-1.6-1.1-2.7-1.8c-4.3-2.9-10.8-7.3-13.4-8c-2.9-0.9-10.5,0.2-15.1,0.8c-0.6,0.1-1.2,0.2-1.7,0.2c-0.4,0-0.6,0.4-0.6,0.7
	c0,0.4,0.4,0.6,0.7,0.6c0.5-0.1,1-0.1,1.7-0.2c4.2-0.6,11.9-1.6,14.5-0.8c2.4,0.7,9,5.2,13,7.9c1.1,0.7,2,1.4,2.7,1.8
	c0.4,0.3,0.8,0.5,1.2,0.8c2.4,1.5,5.4,3.4,5.5,4.5c0,0,0,0.1-0.1,0.3c-0.7,0.8-3.2,1.3-3.7,1.2c-4.8-0.4-9.1-2.9-13.3-5.4
	c-3.4-2-6.7-3.9-9.9-4.4c-0.2,0-0.2,0-1.2,0.2c-9.5,2.2-16.7,3.3-21.5,3.3c0,0-0.1,0-0.1,0c-7.4,1.1-18.8,2.2-26.7,1.3
	c-3.3-0.4-19.5-2.8-22.7-3.8c-2.4-0.8-5.8-19.9-6.9-35c-0.9-11.8-1.7-31.5-2.4-48.8c-0.3-6.6-0.5-12.9-0.8-18.6
	c-1.1-24.3,0-47.4,0.5-56.2c0.3-5.2,1-9.3,1.7-13.2c1.1-6.3,2.1-12.2,1-21.2c-0.5-4.3-8.1-26.2-8.2-26.4c-1.2-3.5-7.2-21.3-8.5-34.2
	c-1.2-12.1-3.5-34.7-3.9-43c-0.4-8.3-0.8-34.2-0.1-42.4c0.6-8-0.3-31.1-6.3-36c-0.3-0.2-0.7-0.2-0.9,0.1c-0.2,0.3-0.2,0.7,0.1,0.9
	c5.2,4.3,6.4,26.6,5.8,34.8c-0.7,8.2-0.3,34.3,0.1,42.6c0.4,8.4,2.7,31,3.9,43.1c1.3,13.1,7.4,31.1,8.6,34.5
	c2.1,6.1,7.7,22.7,8.1,26.1c1.1,8.7,0.1,14.3-0.9,20.8c-0.7,4-1.4,8.1-1.7,13.3c-0.5,8.8-1.6,31.9-0.5,56.3c0.3,5.7,0.5,12,0.8,18.6
	c0.7,17.4,1.5,37,2.4,48.9c0.5,6.8,3.4,34.8,7.8,36.1c3.3,1,19.7,3.5,23,3.9c10.2,1.1,24.2-0.9,27-1.3c4.9,0.1,12.2-1.1,21.7-3.3
	c0.4-0.1,0.6-0.1,0.7-0.2c2.9,0.5,6,2.3,9.3,4.2c4.3,2.5,8.8,5.2,13.9,5.5C935.8,607.4,935.8,607.4,935.9,607.4z"/>
<path d="M796.3,175.3c0.3,0,0.6-0.3,0.7-0.6c0.2-3.5,4.7-12.1,9.3-15.5c4.2-3.1,14.1-5.4,18.5-3.5c0.3,0.1,0.7,0,0.9-0.4
	c0.1-0.3,0-0.7-0.4-0.9c-4.8-2.1-15.2,0.3-19.8,3.6c-5,3.6-9.6,12.7-9.8,16.5C795.6,175,795.8,175.3,796.3,175.3
	C796.2,175.3,796.2,175.3,796.3,175.3z"/>
<path d="M100,515.4c1.9-0.8,4.3-1.3,7.1-1.9c9.6-2.2,24-5.5,38.9-23.2c19.6-23.3,27.5-17.6,31.3-14.9c1.1,0.8,3,2.4,5.5,4.5
	c8.6,7.3,23,19.5,31.8,21.3c6.2,1.3,17.2-3.2,32.5-9.4c11.5-4.7,25.9-10.5,42.3-15.5c21.5-6.5,46.9-9.7,66.2-8.2
	c10.9,0.8,21.6,3.2,31.9,5.5c5.8,1.3,11.3,2.5,16.5,3.4c17.6,2.9,56.9-18.2,82.9-32.1c8.7-4.7,16.2-8.7,20.8-10.7
	c17.8-7.7,78.2-31.1,78.8-31.4c0.3-0.1,0.5-0.5,0.4-0.9c-0.1-0.3-0.5-0.5-0.9-0.4c-0.6,0.2-61,23.7-78.8,31.4
	c-4.6,2-12.1,6-20.9,10.7c-25.9,13.9-64.9,34.8-82.1,32c-5.2-0.9-10.6-2.1-16.4-3.3c-10.3-2.3-21-4.7-32-5.5
	c-19.4-1.5-45,1.6-66.7,8.2c-16.5,5-30.8,10.8-42.4,15.5c-15,6.1-25.9,10.5-31.7,9.3c-8.4-1.7-22.7-13.8-31.2-21
	c-2.5-2.1-4.5-3.8-5.6-4.6c-6.3-4.5-15.2-6.2-33.1,15.1c-14.6,17.4-28.2,20.5-38.2,22.8c-2.8,0.6-5.2,1.2-7.3,2"/>
<g>
	<path class="st1" d="M813.3,260.4c-0.3-0.2-1.7-1-3.8-2.4c-3.4-2.3-8.6-6.4-13.7-12c-7.9-8.8-17.1-23.5-16-43.5
		c1.2-21,4.8-27.4,7.6-29c0.8-0.5,1.5-0.6,2-0.5c0.2-0.6,0.5-1.1,0.7-1.7c0,0-0.1-0.1-0.1-0.1c-1.4-1.9-2.9-3.8-4.3-5.6
		c-0.5,0.3-6.7,5.1-9.7,23.3c-2.1,12.7-6.8,30.1-10.2,35c-0.8,1.1-1.6,1.9-2.5,2.4c-1.7,1.1-3.5,1.3-4.6,1.3c-0.2,0-0.4,0-0.6,0
		c-2.4,16.6-6.4,33.4-11.3,41.6l-0.7,1.1c-0.2,0.3-0.4,0.6-0.6,1c1.8,1.6,3.7,3.1,5.5,4.6c20.9,16.7,44.5,28.5,56.4,33.9
		c3.5,1.6,5.9,2.6,7.1,3.1c-0.5-5.4-0.8-10-1-13C813.2,292.4,812.9,270.8,813.3,260.4z"/>
	<path class="st1" d="M904.8,252.5L904.8,252.5c0,0-0.1,0-0.1,0c-0.2,0-12.2-2.7-23-14.5c-3.5-3.8-6.8-8.6-9.6-14.6
		c0.1,3.6,0.2,7.3,0.1,11.4l-0.1,3.8c0,0.5,0,1,0,1.5c0,0.2,0,0.3,0,0.5c0,0,0,0.1,0,0.1c0,0,0,0.1,0,0.1c0,0.3,0,0.6,0,0.8
		c0,0.2,0,0.5,0,0.7c0,0.3,0,0.5,0,0.8c0,0.3,0,0.5,0,0.8c0,0,0,0,0,0v0c0,0.2,0,0.4,0,0.6c0,0.3,0,0.5,0,0.8v0c0,0,0,0,0,0
		c0,0.1,0,0.2,0,0.2c0,0,0,0,0,0.1c0,0,0,0,0,0c0,0.6,0,1.2-0.1,1.8c0,0,0,0,0,0c0,0,0,0,0,0c0,0.1,0,0.3,0,0.4c0,0.3,0,0.6,0,0.8
		c0,0.1,0,0.3,0,0.4c0,0.3,0,0.6,0,0.8v0v0c0,0.1,0,0.2,0,0.3c0,0.3,0,0.6,0,0.8c0,0,0,0,0,0c0,0,0,0,0,0c0,0,0,0.1,0,0.1
		c0,0,0,0,0,0.1c0,0,0,0,0,0c0,0.5-0.1,0.9-0.1,1.4c0,0,0,0,0,0.1c0,0.5-0.1,0.9-0.1,1.3c0,0,0,0.1,0,0.1c0,0,0,0,0,0l0,0
		c0,0.3,0,0.5-0.1,0.8c0,0.1,0,0.1,0,0.2c0,0.3,0,0.5-0.1,0.8c0,0,0,0.1,0,0.1c-0.1,1.1-0.3,2.2-0.4,3.2l0,0v0c0,0,0,0,0,0l0,0l0,0
		c0,0.2-0.1,0.5-0.1,0.7l0,0l0,0c0,0,0,0.1,0,0.1l0,0c-0.2,1.2-0.5,2.4-0.9,3.5l0,0v0c0,0,0,0,0,0l0,0l0,0c-0.1,0.2-0.1,0.4-0.2,0.6
		c0,0,0,0,0,0l0,0v0c-0.2,0.5-0.4,1-0.7,1.5l0,0c-0.2,0.5-0.5,1-0.8,1.5c0,0,0,0,0,0l0,0c0,0,0,0,0,0c-0.1,0.2-0.2,0.4-0.3,0.6
		c0,0.1,0,0.1,0,0.2c0,0,0,0,0,0c0,0.1,0,0.2,0,0.3h0l0,0c0,0.6,0,1.7-0.1,3.7c-0.1,2.4-0.2,5.9-0.3,9.9
		c-0.4,13.4-1.1,33.7-1.2,43.9c0,0.5,0,1,0,1.5c0,0,0,0,0,0c0,0,0,0,0,0c0.1-0.1,0.2-0.3,0.4-0.4c0,0,0,0,0.1-0.1c0,0,0,0,0,0
		c0.1-0.2,0.3-0.3,0.4-0.5c0,0,0.1-0.1,0.1-0.1c0.1-0.2,0.3-0.3,0.4-0.5c0-0.1,0.1-0.1,0.1-0.2c0,0,0.1-0.1,0.1-0.1
		c0.1-0.2,0.3-0.3,0.4-0.5c0-0.1,0.1-0.1,0.1-0.2c0,0,0,0,0,0c0.1-0.2,0.3-0.3,0.4-0.5c0.1-0.1,0.1-0.1,0.2-0.2
		c0.1-0.1,0.2-0.2,0.3-0.3c0.1-0.1,0.2-0.2,0.3-0.3c0,0,0-0.1,0.1-0.1c0,0,0.1-0.1,0.1-0.1c0.2-0.3,0.4-0.5,0.6-0.8l0,0c0,0,0,0,0,0
		c0.1-0.1,0.2-0.2,0.3-0.4c0.1-0.1,0.2-0.3,0.3-0.4c0.1-0.1,0.1-0.1,0.2-0.2c0.1-0.1,0.2-0.3,0.4-0.4c0.1-0.1,0.2-0.2,0.3-0.4
		c0-0.1,0.1-0.1,0.1-0.1c0.2-0.2,0.4-0.5,0.6-0.7c0.1-0.1,0.1-0.1,0.2-0.2c0,0,0,0,0,0c0.2-0.3,0.4-0.5,0.6-0.8c0,0,0.1-0.1,0.1-0.1
		c0,0,0,0,0,0c0.1-0.1,0.2-0.2,0.2-0.3c0.1-0.1,0.2-0.3,0.3-0.4c0.1-0.1,0.1-0.1,0.2-0.2c0.2-0.3,0.4-0.5,0.6-0.8
		c0,0,0.1-0.1,0.1-0.1c0,0,0,0,0,0c0.1-0.2,0.3-0.4,0.4-0.5c0-0.1,0.1-0.1,0.1-0.2c0,0,0-0.1,0.1-0.1c0.2-0.3,0.4-0.5,0.6-0.8
		c0,0,0.1-0.1,0.1-0.1c0,0,0,0,0,0c0.2-0.3,0.4-0.5,0.6-0.7c0.2-0.2,0.3-0.4,0.5-0.7c0,0,0.1-0.1,0.1-0.1c0.2-0.2,0.3-0.5,0.5-0.7
		c0,0,0,0,0,0c0,0,0.1-0.1,0.1-0.1c0.4-0.5,0.8-1.1,1.1-1.6c0,0,0,0,0-0.1c0-0.1,0.1-0.1,0.1-0.2c0.1-0.1,0.1-0.2,0.2-0.3
		c0.1-0.2,0.3-0.4,0.4-0.6c0,0,0.1-0.1,0.1-0.1c0,0,0,0,0,0l0,0c0.4-0.6,0.9-1.3,1.3-1.9c0,0,0.1-0.1,0.1-0.1c0,0,0.1-0.1,0.1-0.1
		c0.2-0.3,0.4-0.5,0.5-0.8c0,0,0-0.1,0.1-0.1c0,0,0,0,0,0c0.4-0.6,0.8-1.2,1.3-1.8c0,0,0,0,0,0c0,0,0,0,0-0.1c0,0,0-0.1,0.1-0.1
		c0.1-0.1,0.1-0.2,0.2-0.2c0.1-0.2,0.3-0.4,0.4-0.6c0-0.1,0.1-0.1,0.1-0.2c0.2-0.2,0.3-0.5,0.5-0.7c0,0,0-0.1,0.1-0.1
		c0.2-0.3,0.3-0.5,0.5-0.7c0,0,0.1-0.1,0.1-0.1c0.1-0.1,0.1-0.2,0.2-0.3c0.1-0.1,0.1-0.2,0.2-0.3c0,0,0-0.1,0.1-0.1
		c0-0.1,0.1-0.1,0.1-0.2c0.1-0.1,0.2-0.3,0.2-0.4c0,0,0-0.1,0.1-0.1c0,0,0,0,0-0.1c0,0,0,0,0,0c0-0.1,0.1-0.1,0.1-0.2
		c0-0.1,0.1-0.1,0.1-0.2c0,0,0,0,0,0c0,0,0-0.1,0.1-0.1c0,0,0,0,0,0c-2.4-0.1-4.5-0.6-5.9-1c0,0,0,0-0.1,0c-0.4-0.1-0.7-0.2-1-0.3
		c0,0-0.1,0-0.1,0c-0.1,0-0.1,0-0.2-0.1c-0.1,0-0.1,0-0.1,0c0,0-0.1,0-0.1,0c0,0-0.1,0-0.1,0c0,0-0.1,0-0.1,0c0,0,0,0,0,0
		c0,0,0,0,0,0l0,0c-0.1,0-0.2-0.1-0.2-0.1c-0.3-0.1-0.5-0.5-0.4-0.9c0.1-0.3,0.5-0.5,0.9-0.4c0.1,0,10,3.8,17.2-0.5
		c0.3-0.2,0.7-0.4,1-0.6c0.1,0,0.1-0.1,0.2-0.1c0.3-0.2,0.6-0.4,0.9-0.6c0.1,0,0.1-0.1,0.2-0.1c0.3-0.2,0.6-0.4,0.9-0.6
		c0,0,0.1,0,0.1-0.1c0.6-0.5,1.2-0.9,1.8-1.5c0,0,0.1,0,0.1-0.1c0.3-0.2,0.6-0.5,0.8-0.8c0,0,0,0,0.1-0.1c0.8-0.8,1.6-1.8,2.3-2.8
		c0,0,0,0,0-0.1c0.2-0.3,0.5-0.7,0.7-1c0,0,0,0,0,0c0.7-1.1,1.3-2.3,1.8-3.7c0,0,0,0,0,0c0.6-1.4,1-2.9,1.5-4.6l0,0
		c0.4-1.4,0.7-2.9,0.9-4.6C911.4,265.9,908.1,258.2,904.8,252.5z"/>
</g>
<path class="st2" d="M693.1,67.4c-5.1,9.4-11.8,23.6-11.9,38.5c-1.9-0.3-7.9-0.7-15.7,4.8c-2.1,1.5-3.9,3.5-5.3,6
	c-3.2,5.5-4.1,12.5-2.7,19.1l0,0c0,0.1,0,0.3,0.1,0.4c0.6,2.9,1.7,5.7,3.2,8.3c6.8,11.7,19.7,18.3,29.9,15.4
	c6.6-1.9,13.4-8.6,14.6-9.8 M669.3,152.5c3.4,0.2,12.7,0.5,19.1-2.9c6.1-3.2,10.4-8.3,12-10.4c0.4,1.1,0.9,2.2,1.3,3.3
	c0,0.1,0.1,0.3,0.2,0.4c0.1,0.3,0.2,0.6,0.3,0.8c-1.4,1.3-7.8,6.8-13.4,9.9c-5,2.8-14.2,1.8-15.6,1.6
	C671.9,154.5,670.6,153.6,669.3,152.5z M679.4,145.5c0.6-0.2,1.3-0.5,2.1-0.7c4.6-1.6,11-3.8,16.5-11.4c0.1,0.3,0.3,0.5,0.4,0.8
	c0.5,1,1.1,2.3,1.6,3.7c-1,1.4-5.5,7.3-12.1,10.7c-7.5,3.9-19.6,2.6-19.7,2.6c-0.1,0-0.3,0-0.4,0.1c-0.5-0.4-0.9-0.9-1.4-1.4
	C669.1,149.1,675.1,147.1,679.4,145.5z M669.9,142.7c1.1-0.7,2.3-1.4,3.6-2.2c1.4-0.9,2.7-1.7,3.9-2.4c2.7-1.7,4.7-2.9,6.7-4.1
	c0.6-0.4,1.3-0.7,2-1.1c3.6-1.9,7.3-3.9,8.5-6.1c0,0,0-0.1,0.1-0.1c1,1.8,1.9,3.6,2.7,5.2c0,0,0,0,0,0c-5.4,7.8-11.4,9.8-16.2,11.5
	c-0.7,0.3-1.4,0.5-2.1,0.7c-5.7,2.1-12.2,4.2-13.5,4.4c-0.5-0.6-1-1.3-1.5-1.9C665.3,145.5,667.4,144.2,669.9,142.7z M662.1,144
	c0.5-1,2.4-4.6,7.1-9.5c5.1-5.3,7.4-7.4,10.5-9.3c3.8-2.3,9.4-4.2,11.2-4.8c0.9,1.5,1.8,3.2,2.8,4.9c-0.1,0.1-0.2,0.2-0.2,0.3
	c-0.6,2-4.6,4.2-8.2,6.1c-0.7,0.4-1.3,0.7-2,1.1c-2.1,1.1-4,2.4-6.7,4.1c-1.1,0.7-2.4,1.5-3.8,2.4c-1.3,0.8-2.5,1.5-3.6,2.2
	c-2.5,1.5-4.6,2.7-6.1,4C662.8,145.1,662.4,144.6,662.1,144z M718.6,83.4c-2.2,2.9-4.7,6-7.4,9.3c-4.6,5.6-9.3,11.4-12.6,16.6
	c-0.8,1.2-2,2.9-3.2,4.8c-1.3,1.8-2.6,3.7-3.5,5.2c-0.1-0.1-0.1-0.1-0.2-0.2c-0.7-1.2-1.4-2.2-1.9-3.1c0.9-2.8,1.9-6,3.1-9
	c3.2-7.7,13-27,22.4-37.7 M714.3,68.4c-9.5,10.9-19.3,30.4-22.6,38.1c-1.1,2.7-2.1,5.6-2.9,8.2l-0.7-0.9c0-0.1-0.1-0.1-0.1-0.2
	c0,0,0,0,0,0l-1.8-2.3c1-5,3.9-19.9,12.2-34.3c4.1-7.1,14.9-24.3,27.4-31.6 M733.7,90.3c-4.9,3.6-28.9,23.2-39.6,33.1
	c-0.5-0.9-1-1.8-1.5-2.7c0.9-1.5,2.4-3.7,3.9-5.8c1.3-1.9,2.5-3.6,3.3-4.8c3.3-5.1,8-10.9,12.5-16.5c2.7-3.3,5.2-6.4,7.4-9.3
	 M723.1,110.5c-7.9,4.7-24.6,13.9-27.5,15.5c-0.3-0.5-0.5-0.9-0.8-1.4c10.5-9.8,34.8-29.5,39.7-33.2 M664.5,130.6
	c3.7-4.4,9.6-10.3,13.9-12c1.5-0.6,3.3-1.3,4.8-1.9c2.3-0.9,3.5-1.4,4.1-1.7l1.1,1.4c0.5,0.7,1.2,1.8,1.9,3
	c-2.1,0.7-7.4,2.6-11.2,4.8c-3.3,2-5.6,4.1-10.8,9.5c-4,4.1-6.1,7.3-7,9c-0.2-0.4-0.5-0.9-0.7-1.3c0,0,0,0,0-0.1
	C660.5,138.6,660.8,135,664.5,130.6z M658.9,135.7c0.1-1,0.9-6,3.4-11.8c2.6-6.2,7.2-10.3,12.9-11.7c4.8-1.1,7.9-1.9,8.5-2l2.8,3.7
	c-0.8,0.4-2.4,1-3.7,1.5c-1.5,0.6-3.2,1.3-4.8,1.9c-5.9,2.4-13.1,10.8-14.5,12.4c-2.7,3.2-3.7,6-4,8.4
	C659.2,137.3,659,136.5,658.9,135.7z M681.3,107.2c0.1,0.2,0.2,0.3,0.3,0.4l1.1,1.5c-1.2,0.3-4,1-7.9,1.9
	c-6.2,1.5-11.1,5.9-13.8,12.4c-1.3,3.1-2.2,6-2.7,8.2c-0.3-5.5,1-10.6,3.1-14.3c1.3-2.3,3-4.2,5-5.6
	C674.2,106.2,680.1,107,681.3,107.2z M725.1,44.2c-12.7,7.4-23.7,24.9-27.9,32.1c-7.9,13.7-11,27.6-12.2,33.6l-2.5-3.2
	c-0.2-14.9,6.6-29.2,11.7-38.7 M697.7,129.6c-0.1,0-0.1,0-0.2,0c-0.4-0.8-0.8-1.6-1.3-2.5c2.9-1.6,19.6-10.8,27.5-15.5 M699.2,132.4
	c-0.1,0-0.1,0-0.2,0c-0.2-0.5-0.5-1-0.8-1.6c0.5-0.1,1-0.3,1.5-0.5c0.2-0.1,0.4-0.1,0.6-0.2c0.3-0.1,0.7-0.2,1-0.3
	c0.2-0.1,0.5-0.1,0.7-0.2c0.3-0.1,0.7-0.2,1-0.3c0.3-0.1,0.5-0.2,0.8-0.2c0.3-0.1,0.6-0.2,1-0.3c0.3-0.1,0.5-0.2,0.8-0.3
	c0.3-0.1,0.6-0.2,1-0.3c0.3-0.1,0.6-0.2,0.9-0.3c0.3-0.1,0.6-0.2,1-0.3c0.3-0.1,0.6-0.2,0.9-0.3c0.3-0.1,0.6-0.2,0.9-0.3
	c0.3-0.1,0.7-0.2,1-0.4c0.3-0.1,0.6-0.2,0.9-0.3c0.4-0.1,0.7-0.3,1.1-0.4c0.3-0.1,0.6-0.2,0.9-0.3c0.4-0.1,0.8-0.3,1.2-0.4
	c0.2-0.1,0.5-0.2,0.7-0.3c0.4-0.2,0.9-0.3,1.3-0.5c0.2-0.1,0.3-0.1,0.5-0.2c3.1-1.2,6.3-2.5,9.4-3.8c0,0,0,0,0.1,0
	c0.6-0.3,1.2-0.5,1.8-0.8c0.1,0,0.1,0,0.2-0.1c0.6-0.3,1.2-0.5,1.8-0.8c0.1,0,0.1-0.1,0.2-0.1c0.6-0.3,1.2-0.5,1.8-0.8
	c0.1,0,0.1-0.1,0.2-0.1c0.6-0.3,1.2-0.5,1.8-0.8c0,0,0.1,0,0.1-0.1c0.6-0.3,1.2-0.6,1.8-0.8c0,0,0,0,0.1,0 M700.4,135.4
	c-0.3-0.6-0.5-1.2-0.8-1.7c0.4-0.1,0.9-0.1,1.5-0.2c0,0,0,0,0,0c0.3,0,0.6-0.1,1-0.2c0,0,0.1,0,0.1,0c0.3-0.1,0.7-0.1,1.1-0.2
	c0,0,0.1,0,0.1,0c0.4-0.1,0.8-0.1,1.3-0.2c0,0,0.1,0,0.1,0c0.5-0.1,0.9-0.1,1.4-0.2c0,0,0.1,0,0.1,0c0.5-0.1,1-0.2,1.6-0.3
	c0,0,0,0,0.1,0c0.5-0.1,1.1-0.2,1.7-0.3c0,0,0,0,0,0 M737.5,141.3c-13.7,0.8-28.2-1.3-35.8-2.7c-0.1-0.3-0.2-0.6-0.3-0.8
	c0-0.1-0.1-0.3-0.2-0.4c-0.1-0.2-0.2-0.4-0.3-0.6 M731.6,148.8c-7.8-1.1-25.8-6-28.6-6.8c-0.2-0.6-0.5-1.3-0.7-1.9
	c7.8,1.4,21.9,3.3,35.3,2.5 M720.9,153.2c-7.3-2.9-15-6.8-16.6-7.7c-0.2-0.6-0.5-1.3-0.7-2c4.7,1.3,20.6,5.6,27.8,6.6 M705.6,148.5
	c-0.1-0.1-0.2-0.1-0.3-0.1c-0.1-0.3-0.2-0.6-0.3-1c2.9,1.5,9.3,4.7,15.4,7.1 M690.3,158.5c-4.3,1.3-9.3,0.6-14-1.6
	c3.6,0.2,9.4,0.1,13.2-2c5.4-2.9,11.3-8,13.3-9.8c0.1,0.3,0.2,0.5,0.3,0.7c0,0.2,0.1,0.4,0.2,0.5c0.4,1.2,0.8,2.2,1,2.7
	C702.8,150.5,696.3,156.8,690.3,158.5z"/>
<path class="st1" d="M772.4,68.6c-3.1-4.6-0.7-12.5,1.7-16.3c1.6-2.4,3.7-4.6,5.8-6.6c1.9-1.8,3.5-4,6.3-4.8
	c0.8-0.2,1.6,1.4,1.2,2.1c-1.1,1.7-2.4,2-4,3.2c-2.1,1.6-4.1,3.4-5.9,5.2c-2,2-5,6.7-5,9.6c0,2.4-0.2,4.5,0.7,6.5
	C773.4,68,772.6,69,772.4,68.6z"/>
<path class="st1" d="M849.6,63.7c0,0-0.2-1-0.4-1.7c-0.1-0.4-0.2-0.7-0.2-0.8c-1.5-3.5-4.1-3.1-5-2.8c-0.1,0-0.2,0.1-0.3,0.1
	c-0.3,0.1-0.6,0-0.8-0.2c-0.1-0.1-0.2-0.3-0.2-0.5c0,0,0,0,0,0c-0.1-2.1-2.5-2.9-2.8-3l-0.6,0l-1.4-0.1c0,0.1,0.1,0.2,0.1,0.4
	c0,0.3-0.3,1-1.8,1.9c-0.9,0.6-0.9,2-0.9,4.4c0,0.8,0,1.6-0.1,2.5c0,0.7-0.1,1.4-0.1,2.1c-0.1,2.9-0.2,5-1.2,7.2c0,0,0,0,0,0.1
	c-0.4,0.4-0.9,0.8-1.3,1c-0.3,0.1-0.5,0.5-0.4,0.9c0.1,0.3,0.5,0.5,0.9,0.4c0.9-0.3,1.9-1.4,2-1.7c0,0,0.1-0.1,0.1-0.2c0,0,0,0,0,0
	c0.2-0.1,0.6-0.3,0.6-0.4c1.5-0.8,2.8-1.1,4-1.5c1.3-0.4,2.5-0.8,4-1.5c0.4-0.2,0.8-0.5,1.3-0.7c1.6-1,3.5-2.7,4.5-4.5
	c0.1-0.2,0.2-0.4,0.3-0.5C849.8,64.2,849.7,63.9,849.6,63.7z"/>
<path class="st1" d="M732.5,407.2c-8-6.7-16.7-15.8-26.6-27.6c-13-15.6-21.3-30.3-25.1-37.9c-1.7-3.3-2.5-5.3-2.5-5.3c0,0,0,0,0,0
	c-18.5,2.2-29.5,1.5-37.1,1.1l-0.8-0.1c-13.3-0.8-34.3,4.9-46.7,15.9c-11.7,10.4-21.2,27.8-12.5,45.3c0.2,0.3,0,0.7-0.3,0.9
	c-0.1,0-0.2,0.1-0.3,0.1c-0.2,0-0.5-0.1-0.6-0.4c-0.2-0.5-0.5-1-0.7-1.4c-0.1-0.1-0.1-0.3-0.2-0.4c-0.1-0.1-0.1-0.2-0.1-0.4v0
	c-0.2-0.5-0.4-1-0.6-1.5v0v0c0-0.1-0.1-0.2-0.1-0.3c-0.2-0.6-0.4-1.1-0.5-1.7v0l0,0c0,0,0-0.1,0-0.1c-0.2-0.6-0.3-1.2-0.5-1.8
	c-0.1,0-0.2,0.1-0.3,0.1c-0.2,0.1-0.4,0.2-0.7,0.3c-0.1,0.1-0.3,0.1-0.4,0.2c-0.6,0.2-1.2,0.5-2,0.8c-0.1,0-0.2,0.1-0.3,0.1
	c-0.1,0-0.1,0-0.2,0.1c-0.1,0-0.2,0.1-0.3,0.1c0,0,0,0-0.1,0c-0.2,0.1-0.5,0.2-0.8,0.3c0,0-0.1,0-0.1,0c-1.2,0.5-2.5,1-4,1.6
	c0,0,0,0,0,0c-0.4,0.1-0.7,0.3-1.1,0.4c0,0,0,0,0,0c-0.3,0.1-0.6,0.2-0.9,0.3c-0.2,0.1-0.4,0.1-0.5,0.2c-0.3,0.1-0.7,0.3-1,0.4
	c0,0,0,0,0,0c-0.1,0-0.1,0-0.1,0.1c-0.3,0.1-0.5,0.2-0.8,0.3c-0.2,0.1-0.3,0.1-0.5,0.2c-0.2,0.1-0.3,0.1-0.5,0.2
	c-0.5,0.2-1,0.4-1.4,0.6c0,0-0.1,0-0.1,0c0,0,0,0-0.1,0c-0.2,0.1-0.3,0.1-0.5,0.2c-0.2,0.1-0.3,0.1-0.5,0.2c-0.1,0-0.2,0.1-0.2,0.1
	c-0.2,0.1-0.5,0.2-0.7,0.3c-0.2,0.1-0.5,0.2-0.7,0.3c-0.2,0.1-0.3,0.1-0.5,0.2c-0.2,0.1-0.5,0.2-0.8,0.3c-0.2,0.1-0.3,0.1-0.5,0.2
	c-0.1,0.1-0.3,0.1-0.4,0.2c-0.1,0.1-0.3,0.1-0.4,0.2c-0.2,0.1-0.3,0.1-0.5,0.2c-0.3,0.1-0.5,0.2-0.8,0.3c0,0-0.1,0-0.1,0
	c0,0,0,0,0,0c-0.1,0-0.2,0.1-0.3,0.1c-0.3,0.1-0.6,0.3-1,0.4c-0.1,0.1-0.3,0.1-0.4,0.2c-0.4,0.2-0.7,0.3-1.1,0.5c0,0-0.1,0-0.1,0
	c-0.4,0.1-0.7,0.3-1.1,0.4c-0.2,0.1-0.3,0.1-0.5,0.2c-0.2,0.1-0.3,0.1-0.5,0.2c-0.1,0-0.2,0.1-0.3,0.1c-0.2,0.1-0.3,0.1-0.5,0.2
	c-0.2,0.1-0.5,0.2-0.7,0.3c-0.1,0-0.1,0.1-0.2,0.1c-0.1,0-0.1,0-0.2,0.1c-0.1,0-0.2,0.1-0.3,0.1c-0.4,0.2-0.9,0.3-1.3,0.5
	c0,0,0,0,0,0c-0.3,0.1-0.7,0.3-1.1,0.4c0,0,0,0,0,0c0,0,0,0,0,0c-0.1,0.1-0.3,0.1-0.4,0.2c-0.9,0.4-1.8,0.7-2.6,1.1
	c-0.1,0-0.1,0-0.2,0.1c-1.4,0.6-2.8,1.1-4.2,1.7c0,0-0.1,0-0.1,0c0,0-0.1,0-0.1,0l0,0c-0.4,0.2-0.9,0.4-1.3,0.5c0,0,0,0,0,0
	c0,0,0,0,0,0c-0.5,0.2-0.9,0.4-1.4,0.6c0,0-0.1,0-0.1,0.1c0,0,0,0-0.1,0c-0.3,0.1-0.6,0.2-0.8,0.3c-0.1,0-0.2,0.1-0.3,0.1
	c0,0-0.1,0-0.1,0.1c-0.1,0-0.2,0.1-0.2,0.1c-0.2,0.1-0.3,0.1-0.5,0.2c-0.2,0.1-0.4,0.1-0.5,0.2c-0.1,0.1-0.3,0.1-0.4,0.2
	c-0.3,0.1-0.6,0.3-0.9,0.4c-0.1,0.1-0.3,0.1-0.4,0.2c0,0-0.1,0-0.1,0c-0.3,0.1-0.6,0.2-0.9,0.4c-0.2,0.1-0.4,0.1-0.5,0.2
	c-0.1,0-0.2,0.1-0.3,0.1c-0.2,0.1-0.3,0.1-0.5,0.2c-0.2,0.1-0.4,0.2-0.6,0.3c0,0,0,0-0.1,0c-0.2,0.1-0.5,0.2-0.7,0.3
	c-0.2,0.1-0.4,0.1-0.5,0.2c0,0,0,0,0,0c-0.2,0.1-0.5,0.2-0.7,0.3c-0.2,0.1-0.4,0.2-0.6,0.3c-0.2,0.1-0.5,0.2-0.7,0.3
	c-0.1,0-0.1,0.1-0.2,0.1c-0.1,0.1-0.3,0.1-0.4,0.2c-0.1,0.1-0.3,0.1-0.4,0.2c-0.1,0-0.2,0.1-0.3,0.1c-0.1,0.1-0.3,0.1-0.4,0.2
	c-0.1,0-0.1,0.1-0.2,0.1c-0.2,0.1-0.5,0.2-0.7,0.3c-0.2,0.1-0.4,0.1-0.5,0.2c-0.2,0.1-0.5,0.2-0.7,0.3c-0.2,0.1-0.4,0.1-0.5,0.2
	c0,0,0,0,0,0c-0.2,0.1-0.4,0.2-0.6,0.3c-0.2,0.1-0.4,0.2-0.6,0.2c-0.2,0.1-0.5,0.2-0.7,0.3c-0.1,0.1-0.3,0.1-0.4,0.2
	c-0.2,0.1-0.3,0.1-0.5,0.2c-0.1,0-0.2,0.1-0.2,0.1c-0.1,0-0.1,0.1-0.2,0.1c-0.1,0-0.2,0.1-0.2,0.1c-0.2,0.1-0.3,0.1-0.5,0.2
	c-0.1,0-0.1,0.1-0.2,0.1c-0.2,0.1-0.3,0.1-0.5,0.2c-0.2,0.1-0.4,0.2-0.6,0.2c0,0,0,0,0,0c0,0,0,0,0,0c-0.2,0.1-0.3,0.1-0.5,0.2
	c-0.2,0.1-0.4,0.2-0.6,0.2c0,0-0.1,0-0.1,0c-0.1,0.1-0.3,0.1-0.4,0.2c-0.1,0-0.2,0.1-0.3,0.1c-0.1,0-0.2,0.1-0.2,0.1
	c-0.1,0.1-0.3,0.1-0.4,0.2c0,0,0,0,0,0c0,0,0,0,0,0c-0.2,0.1-0.4,0.2-0.6,0.3c-0.1,0.1-0.2,0.1-0.4,0.2c-0.1,0-0.2,0.1-0.3,0.1
	c-0.1,0-0.2,0.1-0.3,0.1c-0.1,0.1-0.3,0.1-0.4,0.2c0,0,0,0,0,0c-0.3,0.1-0.6,0.3-0.9,0.4c-15.1,6.6-30.3,15.4-45,23.9
	c-25.5,14.7-47.5,27.4-62.6,25.5c-5.9-0.8-13.3-2.4-21.1-4.1c-13-2.9-27.7-6.1-40.2-6.3c-9.1-0.1-19.7,0.6-29.8,2
	c-0.6,0.9-2.6,4.6-2.6,10.7c16.3-3.1,33-4.4,46.7-3.3c11,0.9,21.7,3.2,32,5.5c5.8,1.3,11.3,2.5,16.4,3.3c17.2,2.8,56.2-18.1,82.1-32
	c8.7-4.7,16.3-8.7,20.9-10.7c0.3-0.1,0.6-0.2,0.9-0.4c0,0,0.1,0,0.1,0c0,0,0,0,0,0c0,0,0.1,0,0.1,0c0.2-0.1,0.4-0.2,0.7-0.3
	c0.1,0,0.2-0.1,0.3-0.1c0.2-0.1,0.4-0.2,0.6-0.3l0,0c0,0,0,0,0,0c0.1-0.1,0.3-0.1,0.4-0.2c0.2-0.1,0.4-0.2,0.6-0.3l0,0c0,0,0,0,0,0
	c0.1-0.1,0.3-0.1,0.4-0.2c0.2-0.1,0.4-0.2,0.6-0.2c0,0,0,0,0,0c0,0,0,0,0,0c0.1-0.1,0.3-0.1,0.4-0.2c0.2-0.1,0.4-0.2,0.6-0.3
	c0,0,0,0,0,0c0,0,0,0,0,0c0.1-0.1,0.3-0.1,0.4-0.2c0.2-0.1,0.5-0.2,0.7-0.3c0.2-0.1,0.3-0.1,0.5-0.2c0.2-0.1,0.5-0.2,0.7-0.3
	c0,0,0,0,0,0c0,0,0,0,0,0c0.1-0.1,0.3-0.1,0.4-0.2c0,0,0,0,0.1,0c0,0,0,0,0,0c0.3-0.1,0.5-0.2,0.8-0.3c0.1-0.1,0.3-0.1,0.4-0.2
	c0.3-0.1,0.6-0.2,0.9-0.3c0,0,0,0,0,0c0,0,0,0,0,0c0.1-0.1,0.3-0.1,0.4-0.2c0.3-0.1,0.6-0.2,0.9-0.4c0.2-0.1,0.3-0.1,0.5-0.2l0,0
	l0,0c0.3-0.1,0.6-0.2,0.8-0.3c0.1-0.1,0.3-0.1,0.4-0.2c0,0,0.1,0,0.1,0c0,0,0.1,0,0.1-0.1c0.3-0.1,0.5-0.2,0.8-0.3
	c0.1,0,0.2-0.1,0.3-0.1c0,0,0.1,0,0.1,0c0.1,0,0.1,0,0.2-0.1c0.2-0.1,0.5-0.2,0.7-0.3c0,0,0.1,0,0.1,0c0,0,0,0,0.1,0
	c0.1-0.1,0.3-0.1,0.4-0.2c0.3-0.1,0.6-0.2,0.9-0.4c0.1,0,0.1,0,0.2-0.1c0.1,0,0.1,0,0.2-0.1c0,0,0.1,0,0.1-0.1c0,0,0.1,0,0.1-0.1
	c0,0,0.1,0,0.1,0c0.3-0.1,0.5-0.2,0.8-0.3c0,0,0.1,0,0.1,0c0,0,0.1,0,0.1-0.1c0.1,0,0.2-0.1,0.3-0.1c0.1,0,0.1,0,0.2-0.1
	c0.1,0,0.1-0.1,0.2-0.1c0.2-0.1,0.4-0.2,0.6-0.3c0,0,0.1,0,0.1-0.1c0,0,0.1,0,0.1,0c0.1,0,0.2-0.1,0.4-0.1c0,0,0.1,0,0.1,0
	c0,0,0.1,0,0.1-0.1c0.2-0.1,0.4-0.1,0.5-0.2c0.1,0,0.1-0.1,0.2-0.1c0.1,0,0.1-0.1,0.2-0.1c0.2-0.1,0.3-0.1,0.5-0.2c0,0,0,0,0,0
	c0,0,0,0,0,0c0.2-0.1,0.4-0.2,0.7-0.3c0.1,0,0.1-0.1,0.2-0.1c0,0,0.1,0,0.1-0.1c0.1-0.1,0.3-0.1,0.4-0.2c0.4-0.1,0.7-0.3,1.1-0.4
	c0.1-0.1,0.3-0.1,0.5-0.2c0.3-0.1,0.6-0.2,0.9-0.3c0.1,0,0.2-0.1,0.3-0.1c0.1,0,0.2-0.1,0.3-0.1c0,0,0,0,0,0c0,0,0.1,0,0.1,0
	c0,0,0,0,0,0c0.4-0.2,0.8-0.3,1.1-0.5c0.1,0,0.2-0.1,0.4-0.1c0,0,0.1,0,0.1,0c0.1,0,0.1,0,0.2-0.1c0.3-0.1,0.5-0.2,0.8-0.3
	c0.2-0.1,0.4-0.1,0.5-0.2c0,0,0.1,0,0.1,0c0,0,0.1,0,0.1,0c0.5-0.2,1-0.4,1.5-0.6c0,0,0,0,0.1,0c0,0,0,0,0,0c0,0,0.1,0,0.1,0
	c1-0.4,2.1-0.8,3.1-1.2c0,0,0.1,0,0.1,0c1.2-0.5,2.4-1,3.7-1.5c0.1,0,0.1,0,0.2-0.1c1.2-0.5,2.3-0.9,3.5-1.4c0.1,0,0.2-0.1,0.2-0.1
	c1.1-0.4,2.2-0.9,3.3-1.3c0.1,0,0.2-0.1,0.3-0.1c1.1-0.4,2.3-0.9,3.4-1.3c0,0,0.1,0,0.1,0c0,0,0.1,0,0.1,0c0,0,0.1,0,0.1-0.1
	c0.4-0.2,0.9-0.3,1.3-0.5c0.2-0.1,0.3-0.1,0.5-0.2c0.3-0.1,0.7-0.3,1-0.4c0.3-0.1,0.7-0.3,1-0.4c0.1,0,0.2-0.1,0.4-0.1
	c0.4-0.1,0.7-0.3,1.1-0.4c0.1-0.1,0.3-0.1,0.4-0.2c0.3-0.1,0.6-0.2,0.9-0.4c0.2-0.1,0.5-0.2,0.7-0.3c0,0,0,0,0,0
	c0.2-0.1,0.4-0.1,0.5-0.2c0.3-0.1,0.5-0.2,0.8-0.3c0.1,0,0.1-0.1,0.2-0.1c0.2-0.1,0.3-0.1,0.5-0.2c0.2-0.1,0.3-0.1,0.5-0.2
	c0.1,0,0.2-0.1,0.3-0.1c0.1,0,0.2-0.1,0.3-0.1c0.1,0,0.1,0,0.2-0.1c0.3-0.1,0.6-0.2,0.9-0.3c0.1,0,0.2-0.1,0.3-0.1
	c0.1,0,0.1-0.1,0.2-0.1c0.1,0,0.2-0.1,0.3-0.1c0.2-0.1,0.4-0.1,0.6-0.2c0.1,0,0.1-0.1,0.2-0.1c0.1,0,0.1,0,0.2-0.1
	c0.1,0,0.2-0.1,0.4-0.1c0.2-0.1,0.3-0.1,0.5-0.2c0.2-0.1,0.5-0.2,0.7-0.3c0.1,0,0.1,0,0.2-0.1c0,0,0,0,0.1,0c0.1,0,0.2-0.1,0.3-0.1
	c0.2-0.1,0.4-0.2,0.6-0.2c0.1,0,0.2-0.1,0.3-0.1c0.1,0,0.2-0.1,0.3-0.1c0.2-0.1,0.3-0.1,0.5-0.2c0.2-0.1,0.3-0.1,0.5-0.2
	c0.1,0,0.2-0.1,0.3-0.1c0.2-0.1,0.4-0.2,0.6-0.2c0.2-0.1,0.4-0.2,0.7-0.3c0,0,0.1,0,0.1-0.1c0.2-0.1,0.5-0.2,0.7-0.3
	c0.1,0,0.2-0.1,0.3-0.1c0.1,0,0.3-0.1,0.4-0.1c1.3-0.5,2.4-0.9,3.4-1.3c1.3-0.5,2.4-0.9,3-1.2c0.1-0.1,0.3-0.1,0.4-0.1
	c0,0,0,0,0.1,0c0.1,0,0.2-0.1,0.3-0.1c0-0.5,0.1-1.1,0.2-1.6v0v0c0,0,0-0.1,0-0.1c0.1-0.5,0.1-1,0.2-1.5c0,0,0-0.1,0-0.1l0,0v0
	c0.1-0.5,0.1-1,0.2-1.5v0v0c0,0,0-0.1,0-0.1c0.1-0.5,0.2-1,0.3-1.5c0,0,0,0,0-0.1c0.1-0.3,0.1-0.7,0.2-1c4-18.7,16.2-30.4,25.6-36.9
	l0,0c0.2-0.2,0.5-0.3,0.7-0.5l0,0c0,0,0,0,0,0l0,0c0.2-0.2,0.5-0.3,0.7-0.5c0,0,0,0,0.1,0l0,0c0.2-0.1,0.4-0.3,0.7-0.4c0,0,0,0,0,0
	l0,0c0.2-0.1,0.4-0.3,0.7-0.4l0,0c0,0,0,0,0,0c0,0,0,0,0,0c0.2-0.1,0.4-0.3,0.7-0.4h0l0,0c1.3-0.8,2.5-1.5,3.6-2c0,0,0.1,0,0.1,0
	c0.1-0.1,0.3-0.1,0.4-0.2c0,0,0.1,0,0.1-0.1c0,0,0,0,0,0c0.1-0.1,0.2-0.1,0.4-0.2c0,0,0,0,0,0c0.1,0,0.1-0.1,0.2-0.1l0,0
	c0.1-0.1,0.2-0.1,0.3-0.2c0,0,0,0,0,0c0.1,0,0.1-0.1,0.2-0.1c0,0,0,0,0,0c0.1,0,0.2-0.1,0.3-0.1c0.1,0,0.1-0.1,0.2-0.1c0,0,0,0,0,0
	c0.1,0,0.2-0.1,0.3-0.1c0.1,0,0.1-0.1,0.2-0.1c0.1,0,0.2-0.1,0.2-0.1c0.1,0,0.1-0.1,0.2-0.1c0.1,0,0.1-0.1,0.2-0.1c0,0,0,0,0,0
	c0.1,0,0.1,0,0.2-0.1c0,0,0,0,0,0c0,0,0.1,0,0.1-0.1c0,0,0.1,0,0.1-0.1c0,0,0,0,0,0c0,0,0.1,0,0.1-0.1c0,0,0,0,0,0
	c0.1,0,0.1-0.1,0.2-0.1c0,0,0,0,0.1,0l0,0c0.1,0,0.1-0.1,0.2-0.1c14-5.8,30.7-7.2,30.9-7.2c0.4,0,0.7,0.2,0.7,0.6
	c0,0.3-0.2,0.6-0.5,0.7c0,0-0.1,0-0.1,0c-0.2,0-16.8,1.4-30.5,7.1c-4,1.7-39.3,17.4-37.4,58.1c0,0.4-0.3,0.7-0.6,0.7c0,0,0,0,0,0
	c-0.4,0-0.6-0.3-0.7-0.6c0-0.6,0-1.3-0.1-1.9c0-0.5,0-1.1,0-1.6c0-0.1,0-0.2,0-0.2c0-0.6,0-1.2,0-1.8c0,0,0,0,0,0
	c0-0.6,0.1-1.2,0.1-1.8c-0.2,0.1-0.4,0.2-0.7,0.3c-0.1,0-0.2,0.1-0.2,0.1c-0.8,0.3-1.8,0.7-3.1,1.2c-0.2,0.1-0.5,0.2-0.7,0.3
	c-0.1,0-0.2,0.1-0.3,0.1c-0.1,0-0.2,0.1-0.4,0.1c-0.5,0.2-1.1,0.4-1.7,0.7c-0.4,0.2-0.8,0.3-1.3,0.5c-0.9,0.4-1.9,0.8-3,1.2
	c-0.1,0.1-0.3,0.1-0.4,0.2c-0.2,0.1-0.5,0.2-0.7,0.3c-0.2,0.1-0.4,0.2-0.7,0.3c-0.2,0.1-0.4,0.2-0.7,0.3c-0.2,0.1-0.4,0.2-0.6,0.2
	c-0.3,0.1-0.6,0.2-0.8,0.3c-0.2,0.1-0.4,0.2-0.6,0.2c-0.2,0.1-0.5,0.2-0.7,0.3c-0.2,0.1-0.5,0.2-0.7,0.3c-0.3,0.1-0.5,0.2-0.8,0.3
	c-0.3,0.1-0.5,0.2-0.8,0.3c-0.2,0.1-0.4,0.2-0.6,0.3c-0.9,0.4-1.9,0.8-2.9,1.1c-0.1,0-0.1,0-0.2,0.1c-1.1,0.4-2.2,0.8-3.3,1.3
	c-0.5,0.2-1,0.4-1.4,0.6c0,0,0,0,0,0c-0.4,0.1-0.7,0.3-1.1,0.4c-0.2,0.1-0.4,0.2-0.7,0.3c-0.3,0.1-0.5,0.2-0.8,0.3
	c-0.3,0.1-0.7,0.3-1,0.4c-0.2,0.1-0.4,0.2-0.6,0.2c-0.4,0.2-0.8,0.3-1.2,0.5c-0.2,0.1-0.3,0.1-0.5,0.2c-0.4,0.2-0.8,0.3-1.3,0.5
	c-0.2,0.1-0.3,0.1-0.5,0.2c-0.4,0.2-0.8,0.3-1.3,0.5c-0.2,0.1-0.4,0.1-0.5,0.2c-0.4,0.2-0.8,0.3-1.3,0.5c-0.1,0.1-0.3,0.1-0.4,0.2
	c-0.6,0.2-1.1,0.4-1.7,0.7c0,0,0,0,0,0c-1.2,0.5-2.4,1-3.6,1.4c0,0-0.1,0-0.1,0c0,0-0.1,0-0.1,0c-0.5,0.2-1,0.4-1.5,0.6
	c-0.1,0-0.1,0-0.2,0.1c-0.4,0.2-0.8,0.3-1.2,0.5c-0.1,0-0.2,0.1-0.3,0.1c-0.1,0-0.2,0.1-0.3,0.1c-0.4,0.2-0.8,0.3-1.1,0.5
	c-0.1,0-0.1,0.1-0.2,0.1c0,0,0,0,0,0c-0.1,0-0.2,0.1-0.2,0.1c-0.4,0.2-0.8,0.3-1.2,0.5c0,0-0.1,0-0.1,0c-0.2,0.1-0.3,0.1-0.5,0.2
	c-0.2,0.1-0.4,0.1-0.5,0.2c-0.2,0.1-0.4,0.2-0.7,0.3c0,0-0.1,0-0.1,0.1c-0.1,0-0.1,0.1-0.2,0.1c-0.2,0.1-0.4,0.2-0.7,0.3
	c-0.2,0.1-0.3,0.1-0.5,0.2c-0.1,0-0.1,0.1-0.2,0.1c-0.1,0-0.2,0.1-0.3,0.1c-0.4,0.2-0.8,0.3-1.2,0.5c0,0-0.1,0-0.1,0
	c-0.1,0-0.1,0-0.2,0.1c-0.2,0.1-0.5,0.2-0.7,0.3c-0.2,0.1-0.5,0.2-0.7,0.3c0,0-0.1,0-0.1,0.1c-0.5,0.2-0.9,0.4-1.4,0.6
	c-0.1,0-0.1,0-0.2,0.1c-0.1,0-0.2,0.1-0.3,0.1c-0.6,0.2-1.1,0.4-1.7,0.7c-0.2,0.1-0.4,0.2-0.6,0.2c-0.6,0.3-1.2,0.5-1.8,0.7
	c0,0,0,0,0,0c-0.2,0.1-0.4,0.2-0.6,0.2c-0.3,0.1-0.5,0.2-0.8,0.3c-0.1,0-0.1,0.1-0.2,0.1c-0.1,0.1-0.2,0.1-0.4,0.2
	c-0.3,0.1-0.6,0.2-0.8,0.3c-0.1,0-0.2,0.1-0.2,0.1c-0.1,0-0.2,0.1-0.2,0.1c-0.3,0.1-0.6,0.2-0.8,0.3c-0.2,0.1-0.3,0.1-0.5,0.2
	c-0.2,0.1-0.4,0.1-0.5,0.2c-0.1,0-0.2,0.1-0.3,0.1c-0.1,0-0.1,0-0.2,0.1c-0.1,0-0.2,0.1-0.3,0.1c-0.2,0.1-0.4,0.2-0.7,0.3
	c0,0-0.1,0-0.1,0.1c-0.1,0-0.2,0.1-0.4,0.1c0,0-0.1,0-0.1,0.1c0,0,0,0-0.1,0c-0.2,0.1-0.4,0.2-0.7,0.3c-0.1,0-0.2,0.1-0.3,0.1
	c-0.1,0-0.1,0.1-0.2,0.1c-0.2,0.1-0.5,0.2-0.7,0.3c-0.2,0.1-0.3,0.1-0.5,0.2c-0.2,0.1-0.4,0.2-0.6,0.2c-0.2,0.1-0.3,0.1-0.5,0.2
	c-0.1,0.1-0.3,0.1-0.4,0.2c-0.1,0-0.1,0-0.2,0.1c0,0-0.1,0-0.1,0.1c-0.1,0-0.2,0.1-0.3,0.1c-0.1,0-0.1,0.1-0.2,0.1
	c-0.1,0-0.2,0.1-0.3,0.1c-0.2,0.1-0.3,0.1-0.5,0.2c0,0-0.1,0-0.1,0.1c-0.2,0.1-0.3,0.1-0.4,0.2c-0.1,0.1-0.2,0.1-0.4,0.2
	c-0.2,0.1-0.4,0.2-0.6,0.3c-0.1,0-0.2,0.1-0.3,0.1c-0.3,0.1-0.6,0.2-0.8,0.4c-4.5,2-12.1,6-20.8,10.7c-26,14-65.3,35-82.9,32.1
	c-5.2-0.9-10.7-2.1-16.5-3.4c-10.3-2.3-20.9-4.6-31.9-5.5c-15.7-1.2-35.5,0.6-53.9,4.9c0,0,0,0,0,0.1c-1.2,2.1-2.2,4-2.9,6.7
	c-1.1,4.5-1.3,10.9-0.2,23.2c0.7,8,2.1,14.8,3.6,20.1c1.7,6.4,3.5,10.5,4.1,11.9c11.8,0,22-0.2,28.7-0.8c5.4-0.5,10.7-1,15.9-1.5
	c19.2-2,35.9-3.7,42.6,1c23.5,16.2,56.9,5.7,70.1,0.5c0.1,0,0.1,0,0.2,0c22.9-2.8,94.9-17.2,118.1-24c23.7-7,64.9-23.3,75-28
	c9.7-4.5,19.5-10.3,31.8-18.8c7.8-5.4,38.7-28.3,61.3-45.1c0.4-0.3,0.8-0.6,1.2-0.9C743.9,415.9,738.4,412.2,732.5,407.2z"/>
</svg>
